<?xml version="1.0" encoding="utf-8"?>
<!-- Generator: Adobe Illustrator 16.0.0, SVG Export Plug-In . SVG Version: 6.00 Build 0)  -->
<!DOCTYPE svg PUBLIC "-//W3C//DTD SVG 1.1//EN" "http://www.w3.org/Graphics/SVG/1.1/DTD/svg11.dtd">
<svg version="1.1" id="image" xmlns="http://www.w3.org/2000/svg" xmlns:xlink="http://www.w3.org/1999/xlink" x="0px" y="0px"
	 width="60px" height="60px" viewBox="0 0 60 60" enable-background="new 0 0 60 60" xml:space="preserve">
<rect x="-611" y="-1461" fill="none" width="1440" height="2988"/>
<rect x="-636" y="-1496" fill="none" width="1440" height="2988"/>
<g>
	<path fill-rule="evenodd" clip-rule="evenodd" fill="#68BC5A" d="M34.332,8.132H25.67c-0.994,0-1.792,0.808-1.792,1.8v40.262
		c0,0.993,0.809,1.801,1.803,1.801h8.663c0.994,0,1.791-0.808,1.791-1.801V9.932C36.135,8.939,35.326,8.132,34.332,8.132z
		 M30.151,46.443c-1.069,0-1.938-0.867-1.938-1.938c0-1.069,0.868-1.938,1.938-1.938s1.938,0.868,1.938,1.938
		C32.089,45.576,31.221,46.443,30.151,46.443z M33.136,32.095h-5.969V17.432h5.969V32.095z"/>
	<path fill-rule="evenodd" clip-rule="evenodd" fill="#68BC5A" d="M18.455,8.006H9.792C8.798,8.006,8,8.813,8,9.806v40.262
		c0,0.993,0.809,1.801,1.803,1.801h8.663c0.994,0,1.791-0.808,1.791-1.801V9.806C20.257,8.813,19.449,8.006,18.455,8.006z
		 M14.273,46.317c-1.069,0-1.937-0.867-1.937-1.938c0-1.069,0.867-1.937,1.937-1.937c1.07,0,1.938,0.867,1.938,1.937
		C16.211,45.45,15.344,46.317,14.273,46.317z M17.258,31.969h-5.969V17.306h5.969V31.969z"/>
	<path fill-rule="evenodd" clip-rule="evenodd" fill="#68BC5A" d="M50.198,8.132h-8.663c-0.994,0-1.792,0.808-1.792,1.8v40.262
		c0,0.993,0.809,1.801,1.803,1.801h8.663c0.994,0,1.791-0.808,1.791-1.801V9.932C52,8.939,51.192,8.132,50.198,8.132z
		 M46.017,46.443c-1.069,0-1.937-0.867-1.937-1.938c0-1.069,0.867-1.938,1.937-1.938c1.07,0,1.938,0.868,1.938,1.938
		C47.954,45.576,47.087,46.443,46.017,46.443z M49.001,32.095h-5.969V17.432h5.969V32.095z"/>
</g>
<rect x="-433" y="-2594" fill="none" width="1440" height="2988"/>
<rect x="-433" y="-2594" fill="none" width="1440" height="2988"/>
<rect x="-433" y="-2594" fill="none" width="1440" height="2988"/>
</svg>
