<?xml version="1.0" encoding="utf-8"?>
<!-- Generator: Adobe Illustrator 16.0.0, SVG Export Plug-In . SVG Version: 6.00 Build 0)  -->
<!DOCTYPE svg PUBLIC "-//W3C//DTD SVG 1.1//EN" "http://www.w3.org/Graphics/SVG/1.1/DTD/svg11.dtd">
<svg version="1.1" id="image" xmlns="http://www.w3.org/2000/svg" xmlns:xlink="http://www.w3.org/1999/xlink" x="0px" y="0px"
	 width="60px" height="60px" viewBox="0 0 60 60" enable-background="new 0 0 60 60" xml:space="preserve">
<g>
	<path fill-rule="evenodd" clip-rule="evenodd" fill="#FCBF51" d="M18.467,42.019H9.805c-0.995,0-1.792,0.807-1.792,1.8v6.373
		c0,0.994,0.808,1.802,1.801,1.802h8.664c0.994,0,1.791-0.808,1.791-1.802v-6.373C20.27,42.825,19.46,42.019,18.467,42.019"/>
	<path fill-rule="evenodd" clip-rule="evenodd" fill="#FCBF51" d="M34.332,38.503H25.67c-0.995,0-1.792,0.807-1.792,1.801v9.889
		c0,0.993,0.809,1.801,1.803,1.801h8.663c0.994,0,1.791-0.808,1.791-1.801v-9.889C36.135,39.31,35.326,38.503,34.332,38.503"/>
	<path fill-rule="evenodd" clip-rule="evenodd" fill="#FCBF51" d="M41.535,28.936c-0.994,0-1.793,0.807-1.793,1.8v19.456
		c0,0.994,0.81,1.802,1.804,1.802h8.663c0.994,0,1.791-0.808,1.791-1.802V30.735c0-0.993-0.809-1.8-1.803-1.8H41.535z"/>
	<path fill-rule="evenodd" clip-rule="evenodd" fill="#FCBF51" d="M51.423,8.488c-0.683-0.633-1.739-0.642-2.432-0.021
		c0,0-2.235,2.006-5.587,5.014l0.008-0.009c-0.826,0.732-1.724,1.505-2.689,2.29l-0.021,0.018c-0.923,0.776-1.964,1.561-3.058,2.371
		c-0.545,0.383-1.098,0.771-1.658,1.166c-0.523,0.353-1.123,0.709-1.756,1.111l-0.025,0.016c-0.507,0.337-1.09,0.656-1.715,0.99
		v0.001c-0.727,0.381-1.287,0.733-1.752,0.924l-0.052,0.023l-1.92,0.882c-0.53,0.235-1.171,0.443-1.88,0.718l-0.044,0.019
		c-1.036,0.438-2.276,0.709-3.592,1.105c-1.253,0.266-2.426,0.513-3.506,0.677c-1.214,0.119-2.274,0.274-3.158,0.317
		c-1.006,0.025-1.93,0.047-2.755,0.067H13.76c-0.664,0.001-1.299-0.071-1.973-0.101c-1.195-0.069-1.877-0.109-1.879-0.109
		c-0.494-0.029-0.981,0.148-1.342,0.488C8.205,26.786,8,27.263,8,27.759v8.786c0,0.516,0.223,1.01,0.609,1.351
		c0.385,0.342,0.904,0.502,1.416,0.44c0.002-0.001,0.81-0.101,2.23-0.275l0.039-0.007c0.612-0.091,1.531-0.16,2.622-0.368
		l0.032-0.007c0.972-0.205,2.066-0.437,3.263-0.689l0.047-0.01c1.301-0.313,2.581-0.751,3.865-1.128l0.084-0.026
		c1.382-0.48,2.776-1.055,4.172-1.639l0.13-0.062c1.249-0.649,2.73-1.269,4.221-2.223v0.002c0.617-0.382,1.336-0.773,2.084-1.281
		l0.023-0.017l1.937-1.365V29.24c0.794-0.537,1.394-1.097,1.919-1.502l0.02-0.016c0.608-0.488,1.242-1.005,1.859-1.594v0.001
		c0.537-0.498,1.117-1.009,1.697-1.576l0.025-0.026c0.519-0.528,1.033-1.054,1.539-1.571l0.031-0.03
		c0.982-1.056,1.934-2.095,2.804-3.146c0.004-0.004,0.006-0.008,0.01-0.011c0.002-0.003,0.003-0.005,0.007-0.007
		c0.859-1.015,1.641-1.986,2.344-2.887l0.008-0.009c2.752-3.573,4.588-5.956,4.588-5.956C52.192,10.174,52.104,9.121,51.423,8.488"
		/>
	<path fill-rule="evenodd" clip-rule="evenodd" fill="#FCBF51" d="M41.535,11.615h6.856v6.854c0,0.997,0.808,1.805,1.804,1.805
		S52,19.467,52,18.47V9.811c0-0.474-0.192-0.94-0.529-1.274c-0.335-0.338-0.801-0.529-1.275-0.529h-8.66
		c-0.996,0-1.805,0.809-1.805,1.804C39.73,10.808,40.539,11.615,41.535,11.615"/>
</g>
<rect x="-611" y="-1461" fill="none" width="1440" height="2988"/>
<rect x="-636" y="-1496" fill="none" width="1440" height="2988"/>
<rect x="-433" y="-2594" fill="none" width="1440" height="2988"/>
<rect x="-433" y="-2594" fill="none" width="1440" height="2988"/>
<rect x="-433" y="-2594" fill="none" width="1440" height="2988"/>
</svg>
