<?xml version="1.0" encoding="utf-8"?>
<!-- Generator: Adobe Illustrator 16.0.0, SVG Export Plug-In . SVG Version: 6.00 Build 0)  -->
<!DOCTYPE svg PUBLIC "-//W3C//DTD SVG 1.1//EN" "http://www.w3.org/Graphics/SVG/1.1/DTD/svg11.dtd">
<svg version="1.1" id="image" xmlns="http://www.w3.org/2000/svg" xmlns:xlink="http://www.w3.org/1999/xlink" x="0px" y="0px"
	 width="60px" height="60px" viewBox="0 0 60 60" enable-background="new 0 0 60 60" xml:space="preserve">
<rect x="-611" y="-1461" fill="none" width="1440" height="2988"/>
<rect x="-636" y="-1496" fill="none" width="1440" height="2988"/>
<rect x="-433" y="-2594" fill="none" width="1440" height="2988"/>
<rect x="-433" y="-2594" fill="none" width="1440" height="2988"/>
<rect x="-433" y="-2594" fill="none" width="1440" height="2988"/>
<g>
	<path fill-rule="evenodd" clip-rule="evenodd" fill="#B1B1B1" d="M32.868,24.007c-1.639,0.203-5.188,3.043-6.738,4.283
		l-0.205,0.163c-0.917,0.749-2.075,1.161-3.26,1.161c-1.543,0-2.991-0.681-3.978-1.873c-1.879-2.273-1.069-4.734-0.059-6.398
		l0.062-0.104l0.073-0.1c1.819-2.569,3.715-4.657,5.699-6.287l-7.959-0.001l-0.017-0.007c-1.004,0-1.871,0.218-2.156,1.124
		L8.989,32.942l-0.035,0.166l-0.021,0.094l-0.017,0.242v0.089l0.027,0.231l0.021,0.103l0.065,0.202l0.047,0.119l0.097,0.172
		l0.077,0.119l0.128,0.147l0.067,0.079L23.706,48.3c0.332,0.318,0.761,0.475,1.185,0.475c0.457,0,0.909-0.178,1.248-0.533
		c0.606-0.637,0.62-1.612,0.073-2.275l-1.545-1.457c-0.692-0.652-0.723-1.74-0.071-2.432c0.338-0.357,0.794-0.539,1.252-0.539
		c0.423,0,0.847,0.156,1.179,0.469l4.162,3.924c0.305,0.225,0.666,0.338,1.025,0.338c0.453,0,0.904-0.179,1.242-0.537
		c0.594-0.633,0.611-1.594,0.082-2.252l-3.43-3.232c-0.691-0.652-0.723-1.74-0.072-2.432c0.34-0.359,0.795-0.539,1.252-0.539
		c0.424,0,0.848,0.154,1.18,0.469l4.576,4.312c0.305,0.229,0.668,0.342,1.029,0.342c0.453,0,0.904-0.18,1.242-0.537
		c0.604-0.643,0.607-1.619,0.053-2.276l-3.818-3.603c-0.691-0.652-0.723-1.74-0.072-2.431c0.34-0.358,0.795-0.54,1.252-0.54
		c0.424,0,0.848,0.156,1.18,0.469l4.41,4.158l0.006-0.004c0.332,0.312,0.756,0.469,1.178,0.469c0.459,0,0.914-0.181,1.254-0.541
		c0.65-0.691,0.617-1.781-0.074-2.432L32.868,24.007z"/>
	<path fill-rule="evenodd" clip-rule="evenodd" fill="#B1B1B1" d="M45.575,15.883c-0.336-1.211-5.652-1.937-9.322-1.937
		c-0.18,0-0.354,0.002-0.525,0.006c-2.469,0.05-5.09,0.724-7.818,2.604c-0.025,0.017-0.053,0.039-0.078,0.057
		c-0.393,0.274-0.787,0.577-1.184,0.902c-0.109,0.09-0.22,0.176-0.33,0.27c-0.148,0.127-0.297,0.264-0.446,0.399
		c-0.139,0.126-0.278,0.251-0.417,0.383c-0.139,0.131-0.277,0.269-0.416,0.408c-0.153,0.153-0.308,0.309-0.462,0.471
		c-0.13,0.136-0.26,0.275-0.391,0.417c-0.168,0.185-0.338,0.377-0.506,0.573c-0.121,0.136-0.237,0.271-0.356,0.414
		c-0.194,0.232-0.39,0.475-0.584,0.722c-0.097,0.123-0.192,0.239-0.289,0.364c-0.293,0.382-0.586,0.776-0.881,1.192
		c-0.574,0.946-0.836,1.69-0.229,2.422c0.34,0.411,0.832,0.624,1.325,0.624c0.388,0,0.775-0.13,1.097-0.395
		c0.194-0.156,0.399-0.32,0.606-0.485c0.048-0.038,0.097-0.077,0.146-0.115c0.195-0.156,0.397-0.316,0.603-0.477
		c0.034-0.027,0.068-0.054,0.104-0.082c0.482-0.377,0.984-0.761,1.499-1.136c0.033-0.025,0.066-0.048,0.1-0.073
		c0.248-0.179,0.499-0.357,0.751-0.53c0.009-0.006,0.017-0.011,0.024-0.017c0.53-0.362,1.067-0.704,1.603-1.008
		c0.035-0.021,0.071-0.04,0.108-0.061c0.259-0.145,0.519-0.284,0.775-0.41c1.042-0.508,2.056-0.833,2.966-0.833
		c0.721,0,1.377,0.203,1.934,0.676l12.594,11.875c0.856,0.872,1.69,1.363,2.309,1.363c0.625,0,1.035-0.498,1.035-1.609
		L45.575,15.883z"/>
	<path fill-rule="evenodd" clip-rule="evenodd" fill="#B1B1B1" d="M8.291,12.43L2.15,31.943c-0.285,0.906,0.218,1.872,1.123,2.157
		c0.908,0.285,1.873-0.218,2.158-1.124l6.141-19.514c0.285-0.906-0.219-1.872-1.124-2.157C9.542,11.021,8.576,11.524,8.291,12.43"/>
	<path fill-rule="evenodd" clip-rule="evenodd" fill="#B1B1B1" d="M48.428,13.463l6.141,19.514c0.285,0.906,1.251,1.409,2.157,1.124
		s1.409-1.251,1.124-2.158L51.709,12.43c-0.285-0.906-1.251-1.409-2.157-1.124C48.646,11.591,48.143,12.557,48.428,13.463"/>
</g>
</svg>
