<?xml version="1.0" encoding="utf-8"?>
<!-- Generator: Adobe Illustrator 16.0.0, SVG Export Plug-In . SVG Version: 6.00 Build 0)  -->
<!DOCTYPE svg PUBLIC "-//W3C//DTD SVG 1.1//EN" "http://www.w3.org/Graphics/SVG/1.1/DTD/svg11.dtd">
<svg version="1.1" id="image" xmlns="http://www.w3.org/2000/svg" xmlns:xlink="http://www.w3.org/1999/xlink" x="0px" y="0px"
	 width="60px" height="60px" viewBox="0 0 60 60" enable-background="new 0 0 60 60" xml:space="preserve">
<g>
	<path fill-rule="evenodd" clip-rule="evenodd" fill="#2C659D" d="M50.652,9.405c-0.817-0.825-1.975-1.343-3.237-1.342H12.582
		c-1.251-0.001-2.408,0.517-3.24,1.342C8.521,10.231,8,11.388,8,12.649V35.83c0,1.26,0.521,2.418,1.342,3.242
		c0.832,0.826,1.989,1.343,3.24,1.342h34.833c1.263,0.001,2.42-0.516,3.237-1.342C51.481,38.248,52,37.091,52,35.83V12.649
		C52,11.388,51.481,10.231,50.652,9.405z M48.397,35.83c-0.002,0.279-0.1,0.515-0.283,0.698c-0.192,0.181-0.427,0.288-0.699,0.289
		H12.582c-0.275-0.001-0.508-0.108-0.699-0.289c-0.171-0.184-0.283-0.419-0.286-0.698V12.649c0.003-0.28,0.115-0.516,0.286-0.699
		c0.191-0.182,0.424-0.289,0.699-0.289h34.833c0.272,0,0.507,0.107,0.699,0.289c0.184,0.184,0.281,0.419,0.283,0.699V35.83z"/>
	<path fill-rule="evenodd" clip-rule="evenodd" fill="#2C659D" d="M21.042,44.012c-0.203,1.005-0.491,1.889-0.833,2.583
		c-0.326,0.692-0.712,1.189-1.013,1.449c-0.147,0.132-0.27,0.206-0.366,0.245c-0.099,0.039-0.153,0.047-0.21,0.049
		c-0.993,0-1.801,0.806-1.801,1.798c0,0.993,0.809,1.801,1.801,1.801h22.769c0.992,0,1.79-0.808,1.79-1.801
		c0-0.992-0.798-1.798-1.79-1.798c-0.068-0.002-0.125-0.01-0.223-0.049c-0.162-0.066-0.43-0.254-0.728-0.636
		c-0.45-0.563-0.931-1.522-1.263-2.73c-0.082-0.289-0.153-0.597-0.22-0.911"/>
</g>
<rect x="-611" y="-1461" fill="none" width="1440" height="2988"/>
<rect x="-636" y="-1496" fill="none" width="1440" height="2988"/>
<rect x="-433" y="-2594" fill="none" width="1440" height="2988"/>
<rect x="-433" y="-2594" fill="none" width="1440" height="2988"/>
<rect x="-433" y="-2594" fill="none" width="1440" height="2988"/>
</svg>
