<?xml version="1.0" encoding="utf-8"?>
<!-- Generator: Adobe Illustrator 25.0.1, SVG Export Plug-In . SVG Version: 6.00 Build 0)  -->
<!DOCTYPE svg PUBLIC "-//W3C//DTD SVG 1.1//EN" "http://www.w3.org/Graphics/SVG/1.1/DTD/svg11.dtd">
<svg version="1.1" id="image" xmlns="http://www.w3.org/2000/svg" xmlns:xlink="http://www.w3.org/1999/xlink" x="0px" y="0px"
	 viewBox="0 0 16 16" style="enable-background:new 0 0 16 16;" xml:space="preserve">
<g>
	<path fill="#8C96A9" d="M15.968,5.921l-5.615,4.3l5.617,4.291c0.019-0.102,0.03-0.207,0.03-0.314V6.25
		C16,6.138,15.987,6.029,15.968,5.921z"/>
	<path fill="#8C96A9" class="st0" d="M0.024,5.952C0.009,6.049,0,6.148,0,6.251v7.947c0,0.108,0.011,0.214,0.028,0.314l5.584-4.284L0.024,5.952z"/>
	<path fill="#8C96A9" class="st0" d="M8.363,11.742c-0.229,0.174-0.545,0.174-0.774,0L6.66,11.03l-5.975,4.583c0.309,0.246,0.698,0.391,1.122,0.391
		h12.385c0.423,0,0.814-0.146,1.123-0.391l-6.012-4.59L8.363,11.742z"/>
	<path fill="#8C96A9" class="st0" d="M9.832,0.613c-1.075-0.822-2.567-0.822-3.641,0L0.673,4.845l7.304,5.588l7.327-5.607L9.832,0.613z"/>
</g>
</svg>
