<?xml version="1.0" encoding="utf-8"?>
<!-- Generator: Adobe Illustrator 23.0.4, SVG Export Plug-In . SVG Version: 6.00 Build 0)  -->
<svg version="1.1" id="Layer_1" xmlns="http://www.w3.org/2000/svg" xmlns:xlink="http://www.w3.org/1999/xlink" x="0px" y="0px"
	 viewBox="0 0 158 160" style="enable-background:new 0 0 158 160;" xml:space="preserve">
<style type="text/css">
	.st0{fill:url(#SVGID_1_);}
	.st1{fill:url(#SVGID_2_);}
	.st2{fill:url(#SVGID_3_);}
	.st3{fill:url(#SVGID_4_);}
	.st4{fill:url(#SVGID_5_);}
	.st5{fill:url(#SVGID_6_);}
	.st6{fill:url(#SVGID_7_);}
	.st7{fill:#FFFFFF;}
	.st8{fill:url(#SVGID_8_);}
	.st9{fill:url(#SVGID_9_);}
	.st10{fill:url(#SVGID_10_);}
	.st11{opacity:0.2;}
	.st12{fill:url(#SVGID_11_);}
	.st13{fill:#11191D;}
	.st14{fill:url(#SVGID_12_);}
	.st15{fill:url(#SVGID_13_);}
	.st16{fill:url(#SVGID_14_);}
	.st17{fill:url(#SVGID_15_);}
	.st18{fill:url(#SVGID_16_);}
	.st19{fill:url(#SVGID_17_);}
	.st20{fill:#1A2A33;}
	.st21{fill:#2D4656;}
	.st22{fill:#B89B50;}
	.st23{fill:#FBCD63;}
	.st24{fill:url(#SVGID_18_);}
	.st25{fill:url(#SVGID_19_);}
	.st26{fill:url(#SVGID_20_);}
	.st27{fill:url(#SVGID_21_);}
	.st28{fill:url(#SVGID_22_);}
	.st29{fill:url(#SVGID_23_);}
</style>
<g>
	
		<linearGradient id="SVGID_1_" gradientUnits="userSpaceOnUse" x1="-4746.1177" y1="124.7505" x2="-4704.2925" y2="124.7505" gradientTransform="matrix(-1 0 0 1 -4664.5034 0)">
		<stop  offset="0" style="stop-color:#293F70"/>
		<stop  offset="1" style="stop-color:#2F4C84"/>
	</linearGradient>
	<path class="st0" d="M75.9,107.3c-1.9,1.4-5.8,9.1-9.2,9.9c-12.5,3-25.8-6.8-26.8-2.2c-0.7,3.3,1.8,15.4,30.5,22.2
		c3.3,0.8,7.4,4.3,11.3,4.9"/>
	
		<linearGradient id="SVGID_2_" gradientUnits="userSpaceOnUse" x1="-4746.1177" y1="116.519" x2="-4699.3457" y2="116.519" gradientTransform="matrix(-1 0 0 1 -4664.5034 0)">
		<stop  offset="0" style="stop-color:#293F70"/>
		<stop  offset="1" style="stop-color:#2F4C84"/>
	</linearGradient>
	<path class="st1" d="M75.7,116.3c-4.6,13.6-13.5,19-22.7,13.7c-2.6-1.5,4.3-7.5,4.8-17.7c0.2-4.5-3.3-13.8-5.3-17
		c-0.6-1-1.4-1.9-2.3-2.6c-6.4-5.3-12.8,2.7-15,0.6c-2.2-2,7.2,9.8,0.1,14.5c-0.7,3.7,3,31.5,46.3,34.3"/>
	
		<linearGradient id="SVGID_3_" gradientUnits="userSpaceOnUse" x1="-4742.9609" y1="113.9959" x2="-4705.0601" y2="113.9959" gradientTransform="matrix(-1 0 0 1 -4664.5034 0)">
		<stop  offset="0" style="stop-color:#293F70"/>
		<stop  offset="1" style="stop-color:#2F4C84"/>
	</linearGradient>
	<path class="st2" d="M75.9,107.3c-2.7,2-6.4,6.5-11.8,7.4C52,116.8,41.4,110,40.6,114c4.3-2.5,8.2,5.9,23.8,6.6
		c4.3,0.2,9-4.5,14.1-4.1"/>
</g>
<linearGradient id="SVGID_4_" gradientUnits="userSpaceOnUse" x1="-4819.4902" y1="73.1098" x2="-4730.9683" y2="73.1098" gradientTransform="matrix(-1 0 0 1 -4664.5034 0)">
	<stop  offset="0" style="stop-color:#417BAE"/>
	<stop  offset="1" style="stop-color:#416BAE"/>
</linearGradient>
<path class="st3" d="M155,146.2c0.2-7.7-5.9-25.9-5.9-25.9c0.4-12.2-0.4-22.7-1.6-43.6c0.1-19.7,4.5-33.7-11.4-35.4
	c-1.5-0.5-15.3-10.4-23.8-22.1c-0.8-1.1-10.4-10.5-11.4-11.3c-13.2-10.2-22.5-12.9-26,7.6c-5.9,34.9-4.8,37.6-4.4,53.7
	c0.2,8.6-6.8-11.9-2.5,2.8c7,24.2,24.9,47.8,30.9,74.2"/>
<g>
	<linearGradient id="SVGID_5_" gradientUnits="userSpaceOnUse" x1="135.748" y1="87.2706" x2="152.8742" y2="87.2706">
		<stop  offset="0" style="stop-color:#3F78AE"/>
		<stop  offset="0.3557" style="stop-color:#6992BD"/>
		<stop  offset="0.5932" style="stop-color:#759BC1"/>
		<stop  offset="0.8589" style="stop-color:#6D91BB"/>
		<stop  offset="1" style="stop-color:#4279AE"/>
	</linearGradient>
	<path class="st4" d="M147.4,76.6c0.1-19.7,4.5-33.7-11.4-35.4c-0.2-0.1,8.7,2,9.8,7.7c1.5,7.7,0.4,14.9,0.3,28
		c0,2.4,0.2,5.9,0.4,9.6c-0.4,1.3-0.8,2.5-1.4,3.6c-0.7,1.3-1.6,2.4-2.8,3.3c-1.1,1-2.3,1.9-3.5,2.9c-1.1,1-2.2,2.1-3.1,3.3
		c1.2-0.9,2.4-1.9,3.6-2.7c1.2-0.9,2.4-1.7,3.6-2.8c0.6-0.5,1.1-1.1,1.6-1.7c0.5-0.6,0.9-1.3,1.2-2c0.4-1,0.7-2.1,0.8-3.1
		c0.1,1.6,0.2,3.2,0.4,4.8c-0.3,1.1-0.7,2.1-1.2,3.1c-0.6,1.2-1.5,2.3-2.5,3.2c-1,0.9-2.2,1.8-3.2,2.8c-1.1,1-2,2.1-2.9,3.3
		c1.1-0.9,2.2-1.8,3.4-2.7c1.1-0.9,2.3-1.7,3.4-2.7c1.1-1,2-2.2,2.6-3.6c0.3-0.7,0.5-1.5,0.6-2.3c0.1,1.6,0.2,3.1,0.3,4.6
		c-0.3,0.8-0.6,1.6-1.1,2.3c-0.6,1.1-1.5,1.9-2.5,2.7c-1,0.8-2,1.5-3,2.3c-1,0.8-1.9,1.8-2.7,2.8l3.2-2.2c1.1-0.7,2.1-1.4,3.2-2.2
		c1-0.8,2-1.8,2.5-3.1c0.2-0.4,0.3-0.8,0.4-1.3c0,0.2,0,0.5,0,0.7c0.3,7.4-0.3,10.6,0,16.1c0.3,4.4,3.1,11.2,5.5,17.4
		c-1.7-6.8-3.8-13.1-3.8-13.1C149.4,108,148.7,97.6,147.4,76.6z"/>
	<linearGradient id="SVGID_6_" gradientUnits="userSpaceOnUse" x1="152.8742" y1="139.7458" x2="156.511" y2="139.7458">
		<stop  offset="0" style="stop-color:#3F78AE"/>
		<stop  offset="0.3557" style="stop-color:#6992BD"/>
		<stop  offset="0.5932" style="stop-color:#759BC1"/>
		<stop  offset="0.8589" style="stop-color:#6D91BB"/>
		<stop  offset="1" style="stop-color:#4279AE"/>
	</linearGradient>
	<path class="st5" d="M152.9,133.3c1.2,4.7,2.2,9.7,2.1,12.8l1.5,0C156.7,143.4,154.9,138.5,152.9,133.3z"/>
</g>
<linearGradient id="SVGID_7_" gradientUnits="userSpaceOnUse" x1="-4809.5547" y1="60.133" x2="-4787.5703" y2="60.133" gradientTransform="matrix(-1 0 0 1 -4664.5034 0)">
	<stop  offset="0" style="stop-color:#2E4981"/>
	<stop  offset="1" style="stop-color:#293E74"/>
</linearGradient>
<path class="st6" d="M136.7,50.4c-2.9-1-8.3,6-13.6,7.3c3.9-0.4,6.4,0.5,8.3,1c8.8,2.4,12.6,5.2,11.7,10c0.8,2,1.6,2.1,2,3.2
	c-0.9-5.2-2.2-12.1-2.7-13.7c-0.7-2.1-0.7,7.7-0.6,6.8c0.4-7.8-1.4-16.1-5.7-16.5"/>
<path class="st7" d="M128.6,58c8.1,2.5,13,5,14.5,10.7c1.6-16.1-0.4-20.9-5-20.9C135.1,47.9,131.8,51.4,128.6,58z"/>
<path d="M141.2,58.2c0.3-2.6-1.6-5-4.2-5.5c-2.6-0.5-4.9,1.2-5.1,3.8c-0.1,1,0.1,1.9,0.6,2.8c2.2,0.8,4.1,1.7,5.6,2.7
	C139.7,61.5,141,60.1,141.2,58.2z"/>
<path class="st7" d="M138.6,57.5c-0.1,1.1-1.2,1.9-2.3,1.7c-1.2-0.2-2-1.3-1.9-2.5c0.1-1.1,1.1-1.9,2.3-1.7
	C137.9,55.3,138.8,56.4,138.6,57.5z"/>
<linearGradient id="SVGID_8_" gradientUnits="userSpaceOnUse" x1="-4744.2983" y1="38.8914" x2="-4726.9194" y2="38.8914" gradientTransform="matrix(-1 0 0 1 -4664.5034 0)">
	<stop  offset="0" style="stop-color:#3B5AA0"/>
	<stop  offset="1" style="stop-color:#385E9E"/>
</linearGradient>
<path class="st8" d="M62.4,68.1c-0.2-6.6,1.1-11.2,2.2-16.9c1.1-5.6,0.7-12.5,3-23c1-4.5,3.7-11,5.1-15.6l6.1-8.5
	c1.5,0.1,1.3,14.4-0.5,31.8L71,73.6L62.4,68.1z"/>
<linearGradient id="SVGID_9_" gradientUnits="userSpaceOnUse" x1="-4793.4912" y1="91.0066" x2="-4729.7505" y2="91.0066" gradientTransform="matrix(-1 0 0 1 -4664.5034 0)">
	<stop  offset="0" style="stop-color:#E6EEF2"/>
	<stop  offset="1" style="stop-color:#C5D0D4"/>
</linearGradient>
<path class="st9" d="M83.1,146.2c-2.8-13.7-5.8-24.9-6.3-27.4c-2.2-12.5-7.1-10.5-11.4-27.3c-1.2-4.5,3.7-9.3,2.6-10.8
	c-3.5-5.2,2-24.7,10.3-44.6c10.1-1.8,18,23.2,27.9,30.4c6.1,4.4,22.4-0.3,22.7,12.9c0.3,12.9-7.9,27.5-13.5,45.5
	c-1.3,4.1-1.7,12-1.9,21.5"/>
<linearGradient id="SVGID_10_" gradientUnits="userSpaceOnUse" x1="-4803.7939" y1="20.9914" x2="-4736.9043" y2="20.9914" gradientTransform="matrix(-1 0 0 1 -4664.5034 0)">
	<stop  offset="0" style="stop-color:#3F78AE"/>
	<stop  offset="0.3557" style="stop-color:#6992BD"/>
	<stop  offset="0.5932" style="stop-color:#759BC1"/>
	<stop  offset="0.8589" style="stop-color:#6D91BB"/>
	<stop  offset="1" style="stop-color:#4279AE"/>
</linearGradient>
<path class="st10" d="M139.3,42c-11.1-3.8-26.1-24-40.7-36.1c-7.3-6-20.7-12.3-26.1,7.9c-0.2,0.9,1.9-6.5,2,1.8
	C75.2,6.7,86,2.8,91.2,15.3C99.6-4.8,114.7,38.6,139.3,42"/>
<g class="st11">
	<path d="M114.4,75.1c1.4,0.1,2.7,0.4,4,1c0.7,0.2,1.3,0.7,1.9,1.3c0.3,0.3,0.5,0.8,0.6,1.2c0.1,0.4,0.1,0.9,0.1,1.2
		c-0.1,1.6-0.6,2.8-1.1,4c-0.5,1.2-1.1,2.4-1.8,3.6c0-1.4,0.1-2.7,0.3-4c0.2-1.3,0.5-2.6,0.6-3.7c0-0.6,0-0.9-0.3-1.3
		c-0.2-0.4-0.7-0.7-1.2-1.1C116.7,76.7,115.5,76,114.4,75.1z"/>
</g>
<linearGradient id="SVGID_11_" gradientUnits="userSpaceOnUse" x1="-4757.4082" y1="91.0507" x2="-4726.9263" y2="91.0507" gradientTransform="matrix(-1 0 0 1 -4664.5034 0)">
	<stop  offset="0" style="stop-color:#CAD0D4"/>
	<stop  offset="1" style="stop-color:#939D9E"/>
</linearGradient>
<path class="st12" d="M92.9,146.2c-2.4-13.1-5.2-27-5.4-27.6C85.7,113,81,96.4,83,92.7l0.9-5.5c-5.7-2-6-23.9-5.6-51.3
	C76,35.7,71.8,47.3,67.7,61c-2,6.8-6.3-0.2-5.1,10.1c0.5,4.4,2.7,4.5,4,6c1,1.5-2.4,9.7-1.2,14.2c4.3,16.8,3.9,14.3,6.1,26.8
	c0.4,2.6,4.1,14,7.8,27.9"/>
<g>
	<path class="st13" d="M112,80.5c-8.5,3.6-22.3,4.8-31.7,2.8c-9.1-1.9-10.7-4.1-13.7-6.2c9.2,21.2,37.7,13.7,53.2,0.6"/>
</g>
<g>
	<linearGradient id="SVGID_12_" gradientUnits="userSpaceOnUse" x1="97.7958" y1="22.4607" x2="105.5555" y2="22.4607">
		<stop  offset="0" style="stop-color:#2E4981"/>
		<stop  offset="1" style="stop-color:#293E74"/>
	</linearGradient>
	<path class="st14" d="M100.8,17.1c0.1,0,0.2,0,0.3,0c0.2,0,0.4,0.1,0.6,0.2c0.1,0,0.2,0.1,0.2,0.1c0.1,0,0.2,0.1,0.2,0.1l0.2,0.2
		c0.1,0.1,0.1,0.1,0.2,0.2c0.1,0.1,0.1,0.1,0.2,0.2l0.1,0.2c0.3,0.5,0.5,0.9,0.7,1.4c0.1,0.4,0.2,0.9,0.4,1.3
		c0.1,0.4,0.2,0.8,0.3,1.3c0.1,0.4,0.2,0.8,0.3,1.2c0.2,0.8,0.4,1.5,0.5,2.1c0.3,1.3,0.5,2.1,0.5,2.1l-0.3,0.1c0,0-0.1-0.2-0.4-0.5
		c-0.2-0.3-0.5-0.8-0.9-1.3c-0.3-0.6-0.8-1.2-1.2-1.9c-0.2-0.4-0.4-0.7-0.6-1.1c-0.2-0.4-0.4-0.7-0.6-1.1c-0.2-0.4-0.4-0.7-0.7-1
		c-0.2-0.3-0.5-0.6-0.6-0.7l0-0.1l0,0c0,0,0,0,0-0.1c0,0,0,0,0,0l0,0l0,0l0,0l0,0c0,0-0.1,0-0.1-0.1c0,0-0.1,0-0.1,0
		c0,0-0.1,0-0.1,0c-0.2,0-0.4,0-0.6,0c-0.3,0-0.5,0-0.7,0.1c-0.2,0-0.4,0-0.5,0c-0.1,0-0.2,0-0.2,0l-0.2-0.2c0,0,0-0.1,0.1-0.2
		c0-0.1,0-0.1,0.1-0.2c0-0.1,0.1-0.2,0.1-0.3c0.1-0.1,0.1-0.2,0.2-0.3c0.1-0.1,0.2-0.2,0.3-0.4c0.2-0.2,0.4-0.5,0.8-0.8
		c0.1-0.1,0.2-0.1,0.3-0.2c0.1-0.1,0.2-0.1,0.4-0.1c0.1,0,0.2,0,0.2,0c0.1,0,0.2,0,0.3,0C100.6,17.1,100.7,17.1,100.8,17.1"/>
	<linearGradient id="SVGID_13_" gradientUnits="userSpaceOnUse" x1="70.3624" y1="20.166" x2="73.5581" y2="20.166">
		<stop  offset="0" style="stop-color:#293E74"/>
		<stop  offset="1" style="stop-color:#1D2E52"/>
	</linearGradient>
	<path class="st15" d="M73.2,15.7C73.2,15.7,73.2,15.7,73.2,15.7C73.1,15.7,73.1,15.7,73.2,15.7c-0.1,0-0.1,0-0.1-0.1l0,0
		C73.1,15.6,73.1,15.7,73.2,15.7 M73.2,15c-0.1,0-0.1,0-0.2,0c-0.3,0.1-0.3,0.2-0.4,0.3c-0.2,0.2-0.3,0.4-0.4,0.7
		c-0.3,0.5-0.5,1.1-0.6,1.7c-0.1,0.6-0.2,1.3-0.3,2c-0.1,0.7-0.2,1.4-0.3,2c-0.1,0.6-0.2,1.2-0.2,1.8c-0.1,1-0.2,1.7-0.2,1.7l0.1,0
		c0,0,0.3-0.6,0.6-1.6c0.2-0.5,0.4-1.1,0.6-1.7c0.2-0.6,0.4-1.3,0.6-1.9c0.2-0.7,0.5-1.3,0.6-1.9c0.2-0.6,0.2-1.2,0.3-1.7
		c0-0.2,0.1-0.4,0.1-0.6c0,0,0,0,0,0c0.1,0.1,0.1,0.1,0.1,0.1l0.1,0c0,0,0,0,0-0.1c0,0,0-0.1,0-0.2c0-0.1,0-0.1,0-0.3
		c0-0.1,0-0.1-0.1-0.2C73.3,15.1,73.3,15.1,73.2,15C73.2,15,73.2,15,73.2,15"/>
</g>
<g>
	<linearGradient id="SVGID_14_" gradientUnits="userSpaceOnUse" x1="134.1485" y1="96.0427" x2="146.7911" y2="96.0427">
		<stop  offset="0" style="stop-color:#293F70"/>
		<stop  offset="1" style="stop-color:#2F4C84"/>
	</linearGradient>
	<path class="st16" d="M146.7,89.2c-0.4,1.1-0.8,2.1-1.3,3.1c-0.8,1.5-2,2.7-3.3,3.7c-1.3,1.1-2.8,2.1-4.1,3.2
		c-1.4,1.1-2.6,2.4-3.8,3.7c1.4-1.1,2.8-2.1,4.2-3.1c1.4-1,2.9-1.9,4.3-3c0.7-0.6,1.3-1.2,1.9-1.9c0.6-0.7,1.1-1.5,1.5-2.3
		c0.3-0.7,0.6-1.4,0.7-2.1"/>
	<linearGradient id="SVGID_15_" gradientUnits="userSpaceOnUse" x1="135.7524" y1="101.0508" x2="147.1619" y2="101.0508">
		<stop  offset="0" style="stop-color:#293F70"/>
		<stop  offset="1" style="stop-color:#2F4C84"/>
	</linearGradient>
	<path class="st17" d="M147.1,94.6c-0.4,1.2-0.8,2.3-1.4,3.3c-0.7,1.3-1.8,2.4-3,3.3c-1.2,1-2.5,1.8-3.7,2.8c-1.2,1-2.3,2.1-3.3,3.3
		c1.3-0.9,2.5-1.8,3.8-2.7c1.3-0.9,2.6-1.7,3.8-2.7c0.6-0.5,1.2-1.1,1.7-1.7c0.5-0.6,1-1.3,1.3-2.1c0.4-0.8,0.6-1.7,0.8-2.6"/>
	<linearGradient id="SVGID_16_" gradientUnits="userSpaceOnUse" x1="136.6587" y1="105.5952" x2="147.4403" y2="105.5952">
		<stop  offset="0" style="stop-color:#293F70"/>
		<stop  offset="1" style="stop-color:#2F4C84"/>
	</linearGradient>
	<path class="st18" d="M147.4,100.7c-0.3,0.8-0.7,1.6-1.2,2.3c-0.8,1-1.8,1.8-2.9,2.6c-1.1,0.7-2.3,1.4-3.5,2.2
		c-1.1,0.8-2.2,1.7-3.2,2.7c1.2-0.7,2.4-1.4,3.6-2c1.2-0.7,2.4-1.3,3.6-2c1.2-0.8,2.3-1.7,3-3c0.2-0.4,0.4-0.9,0.6-1.3"/>
</g>
<g>
	
		<linearGradient id="SVGID_17_" gradientUnits="userSpaceOnUse" x1="-4822.1997" y1="128.3362" x2="-4807.6846" y2="128.3362" gradientTransform="matrix(-1 0 0 1 -4664.5034 0)">
		<stop  offset="0" style="stop-color:#3F78AE"/>
		<stop  offset="0.3557" style="stop-color:#6992BD"/>
		<stop  offset="0.5932" style="stop-color:#759BC1"/>
		<stop  offset="0.8589" style="stop-color:#6D91BB"/>
		<stop  offset="1" style="stop-color:#4279AE"/>
	</linearGradient>
	<path class="st19" d="M157.7,146.2c0-0.1,0-0.3,0-0.4c-0.9-11.1-11.9-35.3-14.5-35.2c0,0,11.6,22.3,11.4,35.7"/>
</g>
<g>
	<path d="M47.1,104.6l-1.5-0.1v0L47.1,104.6z M60.7,110.2c-0.9,2.4-2,7-2.6,10C58.8,117.2,59.9,112.6,60.7,110.2z M64.5,105.8
		c-1,0.4-2.2,1.3-3.4,3.4C62.3,107.1,63.5,106.2,64.5,105.8z"/>
	<g>
		<g>
			<g>
				<g>
					<path class="st13" d="M14.4,153.2C14.4,153.2,14.4,153.2,14.4,153.2c0.3,0.1,0.5,0.1,0.8,0.1l49,6.5c0.2,0,0.4,0,0.6,0
						c1.5-0.2,2.9-1.5,2.9-3l6.4-44.2c0.1-1.4-16.2,12.3-16.2,12.3l-1.4,0l-3,0.1L40,125.3l-1.3,0l-2.6,0.1l-16.6,0.5
						c-1.4,0-1.7,0.2-1.9,0.3c-1.3,1-2.9,3.3-3.4,7.5c0,0,0,0,0,0c0,0.1,0,0.2,0,0.3l-1.9,16.3C12.2,151.6,13.2,152.8,14.4,153.2z
						 M20.1,132.2c-0.2,0-0.3,0-0.5,0C19.8,132.3,19.9,132.2,20.1,132.2z M61.5,128.5L61.5,128.5c-0.1,0-0.2,0-0.4,0.1
						C61.2,128.5,61.3,128.5,61.5,128.5z M53.9,130L53.9,130C53.9,130,53.9,130,53.9,130C53.9,130,53.9,130,53.9,130z M20.8,132.1
						c-0.2,0-0.3,0-0.5,0.1C20.4,132.2,20.6,132.2,20.8,132.1z"/>
				</g>
				<path class="st20" d="M3.5,127.6C3.5,127.6,3.5,127.6,3.5,127.6l-0.3,1.7c0.4,0.3,1,0.6,1.6,0.6l19.8,2.4l0,0.1
					c-0.1,1.1,0.6,2.1,1.7,2.2l0.6,0.1c0.1,0,0.2,0.1,0.4,0.1L30,135c0.1,0,0.3,0,0.4,0c0.9-0.1,1.7-0.8,1.8-1.7l0-0.1l24.7,2.9
					c0.2,0,0.4,0,0.6,0c1.4-0.1,2.7-1,3.2-2.3L58,148.1l-48.4,2l-7,0.3l-0.7,0c-1.2-0.1-2-1.2-1.8-2.3L3.5,127.6"/>
				<g>
					<path class="st20" d="M2.1,151.8C2.1,151.8,2.1,151.8,2.1,151.8c0.3,0.1,0.5,0.1,0.8,0.2l50.2,7.8c0.2,0,0.4,0,0.6,0
						c1.5-0.2,3-1.4,3.2-3l2.9-14.7c0.1-1.5,1.1-8.3,1.1-8.3c0.1-0.4,1.2-5,1.3-5.3v0c1.2-2.4,2.5-3.3,3.5-3.6l0,0l-17.5-0.3l-1.5,0
						l-3.1,0l-13.8-0.2l-1.3,0l-2.7,0L8.6,124c-1.4,0-1.8,0.1-2,0.3c-1.4,0.9-3.1,3.3-3.8,7.6c0,0,0,0,0,0c0,0.1-0.1,0.2-0.1,0.3
						L0,148.8C-0.1,150.2,0.8,151.4,2.1,151.8z M8.9,130.5c-0.2,0-0.3,0-0.5,0C8.6,130.5,8.7,130.5,8.9,130.5z M51.7,128.6
						L51.7,128.6c-0.1,0-0.3,0-0.4,0C51.4,128.6,51.6,128.6,51.7,128.6z M43.8,129.7L43.8,129.7C43.8,129.7,43.8,129.7,43.8,129.7
						C43.8,129.7,43.8,129.7,43.8,129.7z M9.6,130.5c-0.2,0-0.3,0-0.5,0C9.2,130.5,9.4,130.5,9.6,130.5z"/>
				</g>
				<path class="st13" d="M34.9,95c-1.1,0.1-1.9,0.8-2.2,2l-0.7,3.5l1.4,0.1l0.6-2.8c0.3-1.1,1-1.8,2-1.9c0.1,0,0.3,0,0.4,0
					l10.3,0.6c0.2,0,0.4,0.1,0.6,0.1c-0.4-0.5-1-0.9-1.8-1L35.3,95C35.2,95,35.1,95,34.9,95 M34.1,92.4l14,0.8
					c1.2,0.1,3,1.3,2.9,3.9l-0.3,4.5l1.5,0.1l0.3-3.8c0.3-4-3-4.6-3.9-4.7L34.1,92.4C34.1,92.4,34.1,92.4,34.1,92.4"/>
				<path class="st13" d="M33.3,92.3c0.1,0,0.1,0,0.2,0l0.6,0l14,0.8c1.2,0.1,3,1.4,2.9,3.9l-0.3,4.5l-3.1-0.2l0.3-3.2
					c0.1-0.6-0.1-1.2-0.4-1.6c-0.4-0.5-1-0.9-1.8-1L35.3,95c-0.1,0-0.3,0-0.4,0c-1.1,0.1-1.9,0.8-2.2,2l-0.7,3.5l-2.8-0.2l1.2-5.2
					C30.8,93.9,32,92.4,33.3,92.3"/>
				<g>
					<path class="st21" d="M3.5,127.6C3.5,127.6,3.5,127.6,3.5,127.6c0.3,0.1,0.5,0.2,0.8,0.2l20.6,2.4l7.6,0.9l24,2.9
						c0.2,0,0.4,0,0.6,0c1.6-0.1,3.1-1.3,3.3-2.9l2.2-11.1c0.2-1.5,1.9-9.3,3.1-12.7c0.2-0.4,0.3-0.8,0.5-1.1c0,0,0,0,0,0
						c1.3-2.3,2.7-3.2,3.8-3.5l0,0l-17.8-1l-1.5-0.1l-3.1-0.2l-14.1-0.8l-1.4-0.1l-2.8-0.2l-17.4-1c-1.5-0.1-1.8,0.1-2,0.2
						c-1.5,0.9-3.3,3.2-4.2,7.6c0,0,0,0,0,0c0,0.1-0.1,0.2-0.1,0.3l-4,16.9C1.4,125.8,2.2,127.1,3.5,127.6z M11.9,106.1
						c-0.2,0-0.3,0-0.5,0C11.6,106.1,11.7,106.1,11.9,106.1z M55.6,105.8L55.6,105.8c-0.1,0-0.3,0-0.4,0
						C55.3,105.9,55.5,105.9,55.6,105.8z M47.5,106.7L47.5,106.7C47.5,106.7,47.5,106.7,47.5,106.7
						C47.5,106.7,47.5,106.7,47.5,106.7z M12.6,106c-0.2,0-0.3,0-0.5,0C12.2,106.1,12.4,106.1,12.6,106z"/>
				</g>
				<g>
					<path class="st13" d="M56.8,156.8l3.9-23c0.1-0.2,0.1-0.4,0.1-0.6l0,0c0,0.2-0.1,0.4-0.1,0.6c-0.5,1.3-1.8,2.2-3.2,2.3
						c-0.2,0-0.4,0-0.6,0l-24.7-2.9l0.3-2.1l24,2.9c0.2,0,0.4,0,0.6,0c1.6-0.1,3.1-1.3,3.3-2.9l2.2-11.1c0.2-1.5,1.9-9.3,3.1-12.7
						l0,0c0.2-0.4,0.3-0.8,0.5-1.1c0,0,0,0,0,0c1.3-2.3,2.7-3.2,3.8-3.5c0.3-0.1,0.5-0.1,0.8-0.1c0.2,0,0.5,0,0.6,0
						c1.7,0.1,3.8,2.1,3.2,6.9L69,146.4l-0.3,2.1L56.8,156.8z"/>
					<path class="st13" d="M3.6,127.6c0.2,0.1,0.5,0.2,0.8,0.2l30.9,3.7l-3.1,1.7l-27.4-3.3c-0.6-0.1-1.2-0.3-1.6-0.6L3.6,127.6z"/>
				</g>
				<path class="st22" d="M12.3,133c0.1,0,0.3,0,0.4,0c0.9-0.1,1.7-0.8,1.8-1.7l0-0.1l0.3-2.1l0.3-2.3c0.1-1-0.5-1.8-1.4-2.1
					l0.6,0.1c1.1,0.1,1.9,1.1,1.7,2.2l-0.3,2.3l-0.3,2.1h0l0,0.1c-0.1,0.9-0.9,1.7-1.8,1.7c-0.1,0-0.3,0-0.4,0l-2.7-0.3
					c-0.1,0-0.2,0-0.4-0.1L12.3,133z"/>
				<path class="st23" d="M10.3,124.3c0.1,0,0.3,0,0.4,0l2.7,0.3c0.1,0,0.2,0,0.4,0.1c0.9,0.3,1.5,1.2,1.3,2.1l-0.3,2.3l-0.3,2.1
					l0,0.1c-0.1,0.9-0.9,1.7-1.8,1.7c-0.1,0-0.3,0-0.4,0l-2.1-0.3l-0.6-0.1c-1.1-0.1-1.9-1.1-1.7-2.2l0-0.1l0.3-2.1l0.3-2.3
					C8.6,125.1,9.4,124.4,10.3,124.3"/>
				<path class="st22" d="M45.3,137.3c0.1,0,0.3,0,0.4,0c1-0.1,1.9-0.9,2-1.9l0-0.1l0.3-2.3l0.3-2.5c0.1-1-0.5-2-1.5-2.3l0.7,0.1
					c1.2,0.1,2,1.2,1.9,2.4l-0.3,2.5l-0.3,2.3l0,0l0,0.1c-0.1,1-1,1.8-2,1.9c-0.1,0-0.3,0-0.4,0l-2.9-0.4c-0.1,0-0.3,0-0.4-0.1
					L45.3,137.3z"/>
				<path class="st23" d="M43.1,127.7c0.1,0,0.3,0,0.4,0l2.9,0.4c0.1,0,0.3,0,0.4,0.1c1,0.3,1.6,1.3,1.5,2.3l-0.3,2.5l-0.3,2.3
					l0,0.1c-0.1,1-1,1.8-2,1.9c-0.1,0-0.3,0-0.4,0l-2.3-0.3l-0.7-0.1c-1.2-0.1-2-1.2-1.9-2.4l0-0.1l0.3-2.3l0.3-2.6
					C41.3,128.5,42.1,127.7,43.1,127.7"/>
			</g>
		</g>
	</g>
</g>
<linearGradient id="SVGID_18_" gradientUnits="userSpaceOnUse" x1="-4714.7026" y1="94.3949" x2="-4695.9282" y2="94.3949" gradientTransform="matrix(-1 0 0 1 -4664.5034 0)">
	<stop  offset="0" style="stop-color:#417BAE"/>
	<stop  offset="1" style="stop-color:#416BAE"/>
</linearGradient>
<path class="st24" d="M31.4,94c0,3.1,5.7,6.6,9.9,6.6c4.2,0,4.7-7.7,8.1-7.3c3.1,0.3-3.3-4.7-7.5-4.9C32.7,87.8,31.4,90.9,31.4,94z"
	/>
<linearGradient id="SVGID_19_" gradientUnits="userSpaceOnUse" x1="-4716.999" y1="94.4894" x2="-4695.9282" y2="94.4894" gradientTransform="matrix(-1 0 0 1 -4664.5034 0)">
	<stop  offset="0" style="stop-color:#3B5AA0"/>
	<stop  offset="1" style="stop-color:#385E9E"/>
</linearGradient>
<path class="st25" d="M31.4,94c0,3.1,5.7,6.6,9.9,6.6c4.2,0,4.7-7.6,8.1-7.3c1.9,0.2,3.4,2.5,3.1,2.1c-0.6-1-1.5-2-1.8-2.3
	c-0.3-0.3-0.9-0.8-1.6-1.5c-0.2-0.2,1.5,1.4,0.8,1.2c-2-0.4-3.3,0.5-3.7,0.8c-2.6,1.6-3,7-7.4,5.4c-4.5-1.6-6.1-3.4-6.3-4.9
	c-0.1-1.3,0.7-2.9,1.6-3.8c1.5-1.4,3.4-1.8,2.8-1.7C32.2,89.1,31.4,91.6,31.4,94z"/>
<linearGradient id="SVGID_20_" gradientUnits="userSpaceOnUse" x1="-4798.6514" y1="137.2491" x2="-4789.6064" y2="137.2491" gradientTransform="matrix(-1 0 0 1 -4664.5034 0)">
	<stop  offset="0" style="stop-color:#293F70"/>
	<stop  offset="1" style="stop-color:#2F4C84"/>
</linearGradient>
<path class="st26" d="M125.5,145.4c4.4-6.2,4.5-17.3,4.5-17.3c0.7,1.2,4.1,10.2,4.1,13.7c0,3.5-1.2,1.9-2.6,1.9
	C130.1,143.7,123.4,148.3,125.5,145.4z"/>
<linearGradient id="SVGID_21_" gradientUnits="userSpaceOnUse" x1="-6929.6421" y1="6062.5249" x2="-6908.6265" y2="6062.5249" gradientTransform="matrix(-4.489659e-11 1 1 4.489659e-11 -5926.4907 7068.6284)">
	<stop  offset="0" style="stop-color:#417BAE"/>
	<stop  offset="1" style="stop-color:#416BAE"/>
</linearGradient>
<path class="st27" d="M134.6,160c14.4,0,2-13.1,14.6-13.8c0,0-3.5-7.2-14.5-7.2c-5.6,0-11.8,3.4-11.8,8.4
	C122.9,152.3,129,160,134.6,160z"/>
<linearGradient id="SVGID_22_" gradientUnits="userSpaceOnUse" x1="-6928.606" y1="6058.9316" x2="-6908.6265" y2="6058.9316" gradientTransform="matrix(-4.489659e-11 1 1 4.489659e-11 -5926.4907 7068.6284)">
	<stop  offset="0" style="stop-color:#3B5AA0"/>
	<stop  offset="1" style="stop-color:#385E9E"/>
</linearGradient>
<path class="st28" d="M134.6,160c4.8,0,6.7-1.5,7.4-3.5c0,0-8.5,5.2-13.6-3l0,0c-5.5-10.7,2.4-14.2,0.6-13.5c-3.4,1.4-6.1,4-6.1,7.2
	C122.9,152.3,129,160,134.6,160z"/>
<linearGradient id="SVGID_23_" gradientUnits="userSpaceOnUse" x1="-6929.6421" y1="6068.4097" x2="-6911.8174" y2="6068.4097" gradientTransform="matrix(-4.489659e-11 1 1 4.489659e-11 -5926.4907 7068.6284)">
	<stop  offset="0" style="stop-color:#3F78AE"/>
	<stop  offset="0.3557" style="stop-color:#6992BD"/>
	<stop  offset="0.5932" style="stop-color:#759BC1"/>
	<stop  offset="0.8589" style="stop-color:#6D91BB"/>
	<stop  offset="1" style="stop-color:#4279AE"/>
</linearGradient>
<path class="st29" d="M144.2,145.1c-4.8,4.4-3,13.4-2.3,11.4c1.5-3.9-1.2-9.9,7.2-10.4c0,0-3.5-7.2-14.5-7.2
	C134.7,139,147.8,141.9,144.2,145.1z"/>
</svg>
