<?xml version="1.0" encoding="utf-8"?>
<!-- Generator: Adobe Illustrator 24.3.0, SVG Export Plug-In . SVG Version: 6.00 Build 0)  -->
<svg version="1.1" id="Layer_1" xmlns="http://www.w3.org/2000/svg" xmlns:xlink="http://www.w3.org/1999/xlink" x="0px" y="0px"
	 viewBox="0 0 580 223.839" style="enable-background:new 0 0 580 223.839;" xml:space="preserve">
<style type="text/css">
	.st0{fill:#40D1FA;}
	.st1{fill:url(#SVGID_1_);}
	.st2{fill:url(#SVGID_2_);}
	.st3{fill:url(#SVGID_3_);}
	.st4{fill:url(#SVGID_4_);}
	.st5{fill:url(#SVGID_5_);}
	.st6{fill:url(#SVGID_6_);}
	.st7{opacity:0.5;fill:#FFFFFF;}
	.st8{fill:url(#SVGID_7_);}
	.st9{fill:url(#SVGID_8_);}
	.st10{fill:url(#SVGID_9_);}
	.st11{fill:#B0B7C6;}
	.st12{fill:url(#SVGID_10_);}
	.st13{fill:url(#SVGID_11_);}
	.st14{opacity:0.2;fill:#FFFFFF;}
	.st15{fill:url(#SVGID_12_);}
	.st16{fill:#AA711D;}
	.st17{fill:#C68D26;}
	.st18{fill:#FFC134;}
	.st19{fill:url(#SVGID_13_);}
	.st20{clip-path:url(#SVGID_15_);}
	.st21{fill:#AA7621;}
	.st22{fill:url(#SVGID_16_);}
	.st23{fill:url(#SVGID_17_);}
	.st24{fill:url(#SVGID_18_);}
	.st25{fill:url(#SVGID_19_);}
	.st26{fill:url(#SVGID_20_);}
	.st27{fill:url(#SVGID_21_);}
	.st28{fill:url(#SVGID_22_);}
	.st29{fill:url(#SVGID_23_);}
	.st30{fill:url(#SVGID_24_);}
	.st31{fill:url(#SVGID_25_);}
	.st32{fill:url(#SVGID_26_);}
	.st33{opacity:0.2;}
	.st34{fill:#D3B694;}
	.st35{fill:#EFD6B4;}
	.st36{fill:#FBC9AA;}
	.st37{fill:#EFB192;}
	.st38{fill:#FA5A3A;}
	.st39{fill:#82684E;}
	.st40{fill:#937B5F;}
	.st41{fill:#937B5F;stroke:#82684E;stroke-width:2.9509;stroke-linecap:round;stroke-miterlimit:10;}
	.st42{fill:#2E659C;}
	.st43{fill:#5897D1;}
	.st44{fill:#53AD49;}
	.st45{fill:#937B5F;stroke:#C68D26;stroke-width:3;stroke-linecap:round;stroke-miterlimit:10;}
	.st46{opacity:0.5;}
	.st47{font-family:'Ubuntu-Bold';}
	.st48{font-size:22px;}
</style>
<g>
	<path class="st0" d="M129.329,95.106c13.856-8.386,32.313-15.856,53.968-21.632l2.062,9.702l29.641-26.689l-37.933-12.33
		l2.068,9.729c-23.478,6.19-43.887,14.29-60.149,24.103L129.329,95.106z"/>
	<polygon class="st0" points="129.329,95.106 129.329,95.106 129.329,95.106 	"/>
	<path class="st0" d="M450.672,169.284L450.672,169.284c-8.331,5.036-18.324,9.76-29.675,13.97
		c-17.027,6.32-37.103,11.486-59.251,15.049c-22.15,3.566-46.375,5.537-71.746,5.536c-29.311,0.001-57.095-2.631-81.913-7.311
		c-22.013-4.146-41.689-9.922-57.976-16.798l4.771-8.534l-39.882,0.556l20.418,34.264l4.882-8.734
		c18.339,7.96,40.005,14.356,64.081,18.9c26.142,4.928,55.111,7.656,85.619,7.657c35.209-0.002,68.365-3.633,97.497-10.091
		c14.567-3.231,28.13-7.17,40.457-11.743c12.328-4.576,23.421-9.78,33.061-15.603L450.672,169.284z"/>
	<path class="st0" d="M414.779,89.276l39.73-3.524l-22.913-32.648l-4.22,9.076c-17.903-6.593-38.382-11.862-60.745-15.56
		l-3.26,19.732h0c20.616,3.404,39.394,8.206,55.545,14.027L414.779,89.276z"/>
</g>
<g>
	<g>
		<g>
			
				<linearGradient id="SVGID_1_" gradientUnits="userSpaceOnUse" x1="501.413" y1="22.1834" x2="488.1798" y2="33.2874" gradientTransform="matrix(0.9843 0.1763 -0.1763 0.9843 32.178 13.6222)">
				<stop  offset="0" style="stop-color:#9193AD"/>
				<stop  offset="1" style="stop-color:#A4ABBD"/>
			</linearGradient>
			<path class="st1" d="M528.544,140.246c-1.471,3.371-9.241,8.81-11.998,7.61c-2.754-1.201-15.355-26.342-13.886-29.709
				c1.468-3.367,3.721-10.074,6.475-8.872c2.62,1.141,4.574,0.443,4.574,0.443c0.545,3.595,1.992,12.567,3.591,16.515
				C520.539,134.248,529.299,138.513,528.544,140.246z"/>
			
				<linearGradient id="SVGID_2_" gradientUnits="userSpaceOnUse" x1="474.6227" y1="29.8955" x2="507.9977" y2="29.8955" gradientTransform="matrix(0.9843 0.1763 -0.1763 0.9843 32.178 13.6222)">
				<stop  offset="0" style="stop-color:#C1C3E6"/>
				<stop  offset="1" style="stop-color:#A4ABBD"/>
			</linearGradient>
			<path class="st2" d="M525.011,143.343c-1.468,3.367-11.611,7.713-14.368,6.513c-2.754-1.201-15.658-32.761-14.19-36.13
				c0.966-2.223,9.928-5.653,12.682-4.451c1.332,0.574,1.292,10.572,4.332,18.094C516.712,135.387,525.768,141.605,525.011,143.343z
				"/>
			
				<linearGradient id="SVGID_3_" gradientUnits="userSpaceOnUse" x1="489.8543" y1="18.4156" x2="497.1732" y2="18.4156" gradientTransform="matrix(0.9843 0.1763 -0.1763 0.9843 32.178 13.6222)">
				<stop  offset="0" style="stop-color:#E64708"/>
				<stop  offset="1" style="stop-color:#ED690A"/>
			</linearGradient>
			<path class="st3" d="M518.095,120.498c-0.575,1.319-2.374,3.661-3.675,3.093c-1.294-0.566-3.239-7.622-2.663-8.942
				c0.575-1.319,1.999-1.139,3.303-0.571C516.358,114.645,518.668,119.179,518.095,120.498z"/>
			
				<linearGradient id="SVGID_4_" gradientUnits="userSpaceOnUse" x1="489.8719" y1="18.4151" x2="497.4179" y2="18.4151" gradientTransform="matrix(0.9843 0.1763 -0.1763 0.9843 32.178 13.6222)">
				<stop  offset="0" style="stop-color:#D44107"/>
				<stop  offset="1" style="stop-color:#D15D09"/>
			</linearGradient>
			<path class="st4" d="M518.447,120.052c-0.422,1.76-2.726,4.107-4.027,3.539c0,0,3.184-1.417,2.783-2.342
				c-0.562-1.278-2.7-6.063-3.194-6.344c-1.123-0.645-2.438,0.172-2.252-0.255c0.575-1.319,1.999-1.139,3.303-0.571
				C516.358,114.645,518.783,118.654,518.447,120.052z"/>
		</g>
		
			<linearGradient id="SVGID_5_" gradientUnits="userSpaceOnUse" x1="421.0852" y1="-141.688" x2="458.4048" y2="-77.0486" gradientTransform="matrix(0.9339 0.3575 -0.3575 0.9339 74.4831 41.0601)">
			<stop  offset="0" style="stop-color:#C1C3E6"/>
			<stop  offset="0.2799" style="stop-color:#E9EAFA"/>
			<stop  offset="1" style="stop-color:#A4ABBD"/>
		</linearGradient>
		<path class="st5" d="M562.621,90.513c6.246,71.633,2.49,17.266-33.423,18.426c-9.984,0.322-18.001,1.948-24.442,4.201
			c-3.104,1.082-4.385-0.181-6.491,0.038c-13.519,1.399-9.703-11.247-10.207-16.994c-0.395-4.535-8.074,17.579,0.144,5.813
			c5.732-8.205,14.39-16.586,27.237-21.449c0.019-0.007,0.348,0.054,0.633,0.11c0.167,0.034,0.219,0.107,0.455,0.046
			c2.766-0.716,9.99-2.549,9.99-2.549C561.674,70.76,556.369,18.889,562.621,90.513z"/>
		
			<linearGradient id="SVGID_6_" gradientUnits="userSpaceOnUse" x1="422.0518" y1="-120.965" x2="490.9541" y2="-108.8157" gradientTransform="matrix(0.9339 0.3575 -0.3575 0.9339 74.4831 41.0601)">
			<stop  offset="0" style="stop-color:#C1C3E6"/>
			<stop  offset="1" style="stop-color:#A4ABBD"/>
		</linearGradient>
		<path class="st6" d="M562.621,90.513c6.246,71.633,2.49,17.266-33.423,18.426c-4.298,0.139-8.423,0.736-8.423,0.736
			c-26.554-0.097-21.053-5.376-22.838-5.533c-0.197-0.019-14.497,15.623,3.202,6.859c7.672-3.799,17.759-6.918,30.891-8.049
			c1.642-0.142,9.352,1.912,14.47,4.642c6.254,3.33,10.029,7.4,11.543,6.413C582.283,98.167,557.003,26.18,562.621,90.513z"/>
		<path class="st7" d="M530.751,94.029c-7.251,1.344-20.486,4.623-20.486,4.623c-5.868,1.726-10.991,3.795-17.016,6.317
			c-1.419,0.594,7.617,0.773,6.152,1.423c-13.085,5.82-16.092-2.999-16.427-6.884c3.973-4.309,14.78-13.766,49.063-19.133
			c2.111-0.335,0.366,2.188,0.106,6.186C531.877,90.553,533.312,93.555,530.751,94.029z"/>
		
			<linearGradient id="SVGID_7_" gradientUnits="userSpaceOnUse" x1="451.541" y1="-128.9275" x2="497.3886" y2="-128.9275" gradientTransform="matrix(0.9339 0.3575 -0.3575 0.9339 74.4831 41.0601)">
			<stop  offset="0" style="stop-color:#ED690A"/>
			<stop  offset="1" style="stop-color:#E64708"/>
		</linearGradient>
		<path class="st8" d="M579.842,88.881c1.949,22.242-3.718,40.902-12.649,41.674c-8.926,0.782-17.737-16.611-19.672-38.85
			c-1.947-22.241,3.718-40.9,12.648-41.675C569.099,49.252,577.907,66.646,579.842,88.881z"/>
		
			<linearGradient id="SVGID_8_" gradientUnits="userSpaceOnUse" x1="476.2509" y1="-96.882" x2="476.2509" y2="-162.4229" gradientTransform="matrix(0.9339 0.3575 -0.3575 0.9339 74.4831 41.0601)">
			<stop  offset="0" style="stop-color:#808299"/>
			<stop  offset="0.5" style="stop-color:#E3E4F4"/>
			<stop  offset="0.6161" style="stop-color:#DEDFF0"/>
			<stop  offset="0.7542" style="stop-color:#D0D2E3"/>
			<stop  offset="0.9028" style="stop-color:#B8BDCE"/>
			<stop  offset="1" style="stop-color:#A4ABBD"/>
		</linearGradient>
		<path class="st9" d="M578.06,89.162c1.729,19.774-2.448,36.285-9.331,36.881c-6.873,0.596-13.845-14.937-15.58-34.705
			c-1.722-19.763,2.456-36.274,9.337-36.87C569.363,53.864,576.337,69.403,578.06,89.162z"/>
		
			<linearGradient id="SVGID_9_" gradientUnits="userSpaceOnUse" x1="477.9956" y1="-116.5612" x2="470.006" y2="-138.5125" gradientTransform="matrix(0.9339 0.3575 -0.3575 0.9339 74.4831 41.0601)">
			<stop  offset="0" style="stop-color:#C23B06"/>
			<stop  offset="0.6465" style="stop-color:#D15D09"/>
		</linearGradient>
		<path class="st10" d="M553.15,91.338c0.367,4.107,0.96,8.006,1.725,11.639c15.427-4.553,18.704-3.911,17.878-13.347
			c-0.827-9.435-3.938-8.234-19.923-10.05C552.703,83.288,552.795,87.238,553.15,91.338z"/>
		<path class="st11" d="M572.753,89.63c0.314,3.579-0.441,6.567-1.68,6.683c-1.252,0.103-2.514-2.707-2.828-6.291
			c-0.313-3.575,0.442-6.57,1.692-6.679C571.184,83.235,572.446,86.048,572.753,89.63z"/>
		
			<linearGradient id="SVGID_10_" gradientUnits="userSpaceOnUse" x1="398.0867" y1="-100.4992" x2="441.3234" y2="-100.4992" gradientTransform="matrix(0.9339 0.3575 -0.3575 0.9339 74.4831 41.0601)">
			<stop  offset="0" style="stop-color:#E64708"/>
			<stop  offset="1" style="stop-color:#ED690A"/>
		</linearGradient>
		<path class="st12" d="M520.775,109.674c-18.594,5.019-26.735,4.532-29.285,4.675c-11.57,0.662-15.602-23.464-5.511-27.702
			c3.218-1.349,28.439-7.383,30.548-5.942c0,0-0.525-0.168-1.039-0.041c-2.282,0.581-8.097,3.555-6.015,16.677
			C511.21,108.297,520.775,109.674,520.775,109.674z"/>
		<g>
			
				<linearGradient id="SVGID_11_" gradientUnits="userSpaceOnUse" x1="401.107" y1="-87.8936" x2="441.3234" y2="-87.8936" gradientTransform="matrix(0.9339 0.3575 -0.3575 0.9339 74.4831 41.0601)">
				<stop  offset="0" style="stop-color:#D44107"/>
				<stop  offset="1" style="stop-color:#D15D09"/>
			</linearGradient>
			<path class="st13" d="M515.091,107.133c-16.184,4.067-23.476,3.65-25.864,3.784c-3.885,0.223-6.954-3.735-8.642-8.749
				c1.156,6.545,5.069,12.513,10.904,12.181c2.55-0.143,10.691,0.344,29.285-4.675c0,0-1.206-0.492-2.872-1.233
				C517.054,108.064,516.058,107.853,515.091,107.133z"/>
		</g>
		<path class="st14" d="M509.471,98.341c0,0-23.526,4.965-25.857,5.327c-2.373,0.37-2.658-10.805,0.017-13.645
			c1.784-1.894,27.27-6.458,27.27-6.458c0.965,0.663-1.403,3.21-1.622,6.124C509.049,92.749,510.222,97.242,509.471,98.341z"/>
		
			<linearGradient id="SVGID_12_" gradientUnits="userSpaceOnUse" x1="421.9145" y1="-108.1847" x2="441.3234" y2="-108.1847" gradientTransform="matrix(0.9339 0.3575 -0.3575 0.9339 74.4831 41.0601)">
			<stop  offset="0" style="stop-color:#D44107"/>
			<stop  offset="1" style="stop-color:#D15D09"/>
		</linearGradient>
		<path class="st15" d="M508.308,96.372c1.845,11.256,12.466,13.302,12.466,13.302s-9.632-4.168-11.06-13.297
			c-1.379-8.794,2.417-13.271,4.869-14.978c1.03-0.718,1.943-0.694,1.943-0.694s-0.862-0.438-1.82-0.123
			C511.822,81.523,506.489,85.284,508.308,96.372z"/>
	</g>
	<g>
		<path class="st16" d="M525.701,52.224l1.88,1.88c1.551,1.551-0.888,6.709-6.186,12.008c-5.299,5.299-10.457,7.737-12.008,6.186
			l-1.88-1.88"/>
		<path class="st17" d="M525.589,52.113c1.55,1.55-0.888,6.709-6.186,12.008c-5.299,5.299-10.457,7.737-12.008,6.187
			c-1.551-1.551,1.265-6.88,6.289-11.905C518.709,53.378,524.039,50.562,525.589,52.113z"/>
		<path class="st18" d="M523.88,53.204c0.968,0.968-1.441,5.564-5.635,9.758c-4.194,4.194-8.79,6.603-9.758,5.635
			c-0.968-0.968,1.647-5.358,5.841-9.552C518.521,54.852,522.912,52.237,523.88,53.204z"/>
		<g>
			<path class="st17" d="M520.626,56.982l-8.168,8.168c-0.612,0.612-1.338,0.887-1.614,0.611c-0.276-0.276-0.001-1.002,0.611-1.614
				l8.168-8.168c0.612-0.612,1.338-0.886,1.614-0.611C521.513,55.644,521.238,56.371,520.626,56.982z"/>
		</g>
	</g>
	<linearGradient id="SVGID_13_" gradientUnits="userSpaceOnUse" x1="486.7932" y1="84.8698" x2="509.1068" y2="84.8698">
		<stop  offset="0" style="stop-color:#B33706"/>
		<stop  offset="1" style="stop-color:#B04E08"/>
	</linearGradient>
	<path class="st19" d="M509.107,82.177c-0.68,0.399-1.072,1.005-1.072,1.005l-21.242,4.38c0,0,0.416-0.634,1.343-1.009
		L509.107,82.177z"/>
	<g>
		<defs>
			<polygon id="SVGID_14_" points="508.974,72.681 482.974,70.36 487.831,87.351 506.04,83.602 507.255,83.343 			"/>
		</defs>
		<clipPath id="SVGID_15_">
			<use xlink:href="#SVGID_14_"  style="overflow:visible;"/>
		</clipPath>
		<g class="st20">
			<path class="st21" d="M489.203,85.162c-0.914-5.694,1.309-10.784,7.31-11.747c4.951-0.795,9.705,3.177,10.619,8.87"/>
			<path class="st21" d="M507.132,82.284c0.914,5.693-2.359,10.953-7.31,11.747c-6.001,0.963-9.705-3.176-10.619-8.87"/>
			<path class="st18" d="M504.688,82.674c0.767,4.78-1.981,9.196-6.138,9.863c-4.157,0.667-8.149-2.667-8.916-7.447l0,0.002
				c-0.767-4.78,1.981-9.196,6.138-9.863c4.157-0.667,8.149,2.667,8.916,7.447"/>
			<path class="st17" d="M505.913,82.479c0.914,5.694-2.359,10.953-7.31,11.747s-9.705-3.177-10.619-8.87l1.24-0.199
				c0.371,2.312,1.503,4.36,3.187,5.767c1.684,1.407,3.719,2.004,5.729,1.681c2.011-0.323,3.756-1.526,4.916-3.389
				c1.159-1.863,1.593-4.162,1.222-6.475l0,0c-0.371-2.312-1.503-4.36-3.187-5.767c-1.684-1.407-3.719-2.004-5.729-1.681
				s-3.756,1.526-4.916,3.389c-1.159,1.863-1.594,4.162-1.222,6.475l-1.24,0.199c-0.914-5.693,2.359-10.953,7.31-11.747
				C500.245,72.815,505,76.786,505.913,82.479"/>
			<g>
				<path class="st21" d="M497.809,89.957L497.809,89.957c0.935-0.15,1.577-1.038,1.427-1.973l-1.397-8.703
					c-0.15-0.935-1.038-1.577-1.973-1.427v0c-0.935,0.15-1.577,1.038-1.427,1.973l1.397,8.703
					C495.987,89.465,496.874,90.107,497.809,89.957z"/>
				<path class="st17" d="M497.456,90.045L497.456,90.045c0.935-0.15,1.577-1.038,1.427-1.973l-1.397-8.703
					c-0.15-0.935-1.038-1.577-1.973-1.427l0,0c-0.935,0.15-1.577,1.038-1.427,1.973l1.397,8.703
					C495.633,89.552,496.521,90.195,497.456,90.045z"/>
			</g>
		</g>
	</g>
</g>
<g>
	<linearGradient id="SVGID_16_" gradientUnits="userSpaceOnUse" x1="245" y1="39.5687" x2="284.0615" y2="39.5687">
		<stop  offset="0" style="stop-color:#3D6032"/>
		<stop  offset="1" style="stop-color:#4F7C41"/>
	</linearGradient>
	<polygon class="st22" points="284.061,60.553 245,51.105 245,18.584 284.061,25.852 	"/>
	<linearGradient id="SVGID_17_" gradientUnits="userSpaceOnUse" x1="284.0615" y1="32.5997" x2="335" y2="32.5997">
		<stop  offset="0" style="stop-color:#436A37"/>
		<stop  offset="1" style="stop-color:#38582E"/>
	</linearGradient>
	<polygon class="st23" points="335,4.647 284.061,25.852 284.061,26.486 284.061,27.305 284.061,28.098 284.061,28.865 
		284.061,29.53 284.061,30.195 284.061,30.972 284.061,31.627 284.061,32.292 284.061,33.315 284.061,33.826 284.061,34.456 
		284.061,35.258 284.061,35.77 284.061,36.486 284.061,37.202 284.061,37.714 284.061,38.539 284.061,39.569 284.061,40.271 
		284.061,41.294 284.061,41.857 284.061,42.522 284.061,43.238 284.061,44.056 284.061,44.926 284.061,45.386 284.061,46.102 
		284.061,47.125 284.061,47.688 284.061,48.148 284.061,48.813 284.061,49.507 284.061,50.194 284.061,51.115 284.061,51.882 
		284.061,52.649 284.061,53.57 284.061,54.081 284.061,55.002 284.061,55.616 284.061,56.229 284.061,56.843 284.061,57.304 
		284.061,57.969 284.061,58.633 284.061,59.298 284.061,59.912 284.061,60.553 335,37.613 	"/>
	<g>
		
			<linearGradient id="SVGID_18_" gradientUnits="userSpaceOnUse" x1="540.2957" y1="137.0602" x2="541.0224" y2="137.0602" gradientTransform="matrix(0.1422 -35.6082 -35.6082 -0.1422 5093.1953 19284.2559)">
			<stop  offset="0" style="stop-color:#4A743D"/>
			<stop  offset="1" style="stop-color:#4F7C41"/>
		</linearGradient>
		<path class="st24" d="M300.544,2.023c2.036,0,4.114-0.209,5.22-0.61c5.834,0.847,9.556,1.38,16.907,2.435
			c-2.126,0.854-1.978,2.149,2.209,2.837c-1.101,0.452-0.748,0.904-1.849,1.355c-11.339,4.651-22.686,9.284-34.034,13.914
			l-0.041-0.008c-1.629-0.318-3.535-0.474-5.466-0.474c-3.261,0-6.591,0.444-8.772,1.297c-7.951-1.505-12.169-2.303-18.762-3.559
			c3.845-1.356,3.658-3.017,0.767-3.608c13.401-4.588,26.79-9.207,40.172-13.85C297.908,1.935,299.217,2.023,300.544,2.023
			 M299.608,0c-18.168,6.191-36.322,12.421-54.511,18.552c12.916,2.428,25.835,4.842,38.753,7.261
			c13.238-5.468,26.476-10.936,39.715-16.402c1.882-0.777,10.538-4.683,10.538-4.683s-11.51-1.633-13.963-1.963
			C313.296,1.843,306.452,0.921,299.608,0"/>
		
			<linearGradient id="SVGID_19_" gradientUnits="userSpaceOnUse" x1="533.7592" y1="151.7013" x2="534.4859" y2="151.7013" gradientTransform="matrix(32.4674 -55.7203 -55.7203 -32.4674 -8597.9521 34699.2266)">
			<stop  offset="0" style="stop-color:#699758"/>
			<stop  offset="1" style="stop-color:#6F9E5E"/>
		</linearGradient>
		<path class="st25" d="M274.425,19.199c-1.4,0-2.784-0.109-3.956-0.338c-3.154-0.614-3.375-1.849-0.847-2.762
			c1.588-0.574,3.837-0.884,6.035-0.884c1.3,0,2.581,0.109,3.699,0.336c3.008,0.612,3.728,1.844,1.346,2.76
			C279.205,18.886,276.793,19.199,274.425,19.199 M293.902,14.69c-3.285,0-6.585-0.37-9.646-0.97
			c-6.554-1.288-6.363-3.806-1.603-5.481c2.832-0.996,6.528-1.521,10.378-1.522c2.621,0,5.312,0.243,7.854,0.747
			c6.275,1.244,8.539,3.848,4.181,5.451C301.644,14.174,297.783,14.69,293.902,14.69 M308.578,6.366
			c-1.326,0-2.714-0.109-3.912-0.335c-2.793-0.527-3.455-1.438-1.849-2.029c0.924-0.341,2.411-0.518,4.05-0.518
			c1.21,0,2.503,0.096,3.714,0.294c2.849,0.466,4.031,1.369,2.369,2.021C311.999,6.172,310.343,6.366,308.578,6.366 M305.764,1.414
			c-1.106,0.401-3.184,0.61-5.22,0.61c-1.327,0-2.636-0.088-3.648-0.27c-13.382,4.642-26.771,9.262-40.172,13.85
			c2.891,0.591,3.078,2.252-0.767,3.608c6.593,1.256,10.81,2.054,18.762,3.559c2.181-0.853,5.512-1.297,8.772-1.297
			c1.931,0,3.837,0.155,5.466,0.474l0.041,0.008c11.348-4.63,22.694-9.263,34.034-13.914c1.101-0.452,2.137-0.841,3.237-1.293
			c-0.15-0.025-1.683-0.113-1.823-0.139c-3.76-0.704-3.824-1.938-1.774-2.761C315.32,2.794,311.599,2.261,305.764,1.414"/>
		
			<linearGradient id="SVGID_20_" gradientUnits="userSpaceOnUse" x1="632.5515" y1="138.0731" x2="633.2781" y2="138.0731" gradientTransform="matrix(4.2169 -7.2371 -7.2371 -4.2169 -1361.8903 5167.6357)">
			<stop  offset="0" style="stop-color:#3D6032"/>
			<stop  offset="0.7522" style="stop-color:#466E3A"/>
			<stop  offset="1" style="stop-color:#466E3A"/>
		</linearGradient>
		<path class="st26" d="M308.362,5.985c-0.987,0-2.021-0.081-2.921-0.248c-2.097-0.39-2.654-1.074-1.445-1.523
			c0.694-0.258,1.828-0.392,3.07-0.392c0.922,0,1.903,0.074,2.81,0.226c2.129,0.356,2.978,1.034,1.737,1.518
			C310.905,5.841,309.676,5.985,308.362,5.985 M306.866,3.484c-1.639,0-3.126,0.177-4.05,0.518
			c-1.606,0.592-0.943,1.503,1.849,2.029c1.198,0.226,2.586,0.335,3.912,0.335c1.766,0,3.422-0.194,4.371-0.567
			c1.662-0.652,0.48-1.556-2.369-2.021C309.37,3.58,308.077,3.484,306.866,3.484"/>
		
			<linearGradient id="SVGID_21_" gradientUnits="userSpaceOnUse" x1="563.2491" y1="147.5327" x2="563.9758" y2="147.5327" gradientTransform="matrix(10.8616 -18.6406 -18.6406 -10.8616 -3078.3584 12119.3936)">
			<stop  offset="0" style="stop-color:#3D6032"/>
			<stop  offset="0.7522" style="stop-color:#466E3A"/>
			<stop  offset="1" style="stop-color:#466E3A"/>
		</linearGradient>
		<path class="st27" d="M293.311,14.071c-2.807,0-5.656-0.237-8.042-0.73c-5.844-1.209-5.83-3.387-1.615-4.881
			c2.501-0.886,5.842-1.352,9.31-1.352c2.378,0,4.816,0.219,7.085,0.672c5.581,1.115,7.612,3.277,3.652,4.857
			C301.359,13.573,297.38,14.071,293.311,14.071 M293.031,6.717c-3.85,0-7.546,0.525-10.378,1.522
			c-4.76,1.676-4.951,4.193,1.603,5.481c3.061,0.601,6.36,0.97,9.646,0.97c3.881,0,7.742-0.516,11.165-1.775
			c4.358-1.603,2.093-4.207-4.181-5.451C298.344,6.96,295.652,6.717,293.031,6.717"/>
		
			<linearGradient id="SVGID_22_" gradientUnits="userSpaceOnUse" x1="531.092" y1="152.074" x2="531.8206" y2="152.074" gradientTransform="matrix(39.5738 -67.9163 -67.9163 -39.5738 -10413.418 42124.2773)">
			<stop  offset="0" style="stop-color:#699758"/>
			<stop  offset="1" style="stop-color:#6F9E5E"/>
		</linearGradient>
		<path class="st28" d="M283.56,25.231c-12.218-2.297-24.436-4.588-36.651-6.904c17.662-5.981,35.295-12.046,52.934-18.096
			c7.189,1.004,14.38,2,21.57,2.994c1.165,0.161,12.383,1.529,12.383,1.529s-8.234,3.2-9.523,3.731
			C310.705,14.073,297.132,19.652,283.56,25.231 M299.608,0c-18.168,6.191-36.322,12.421-54.511,18.552
			c12.916,2.428,26.046,4.882,38.964,7.3C297.3,20.384,335,4.647,335,4.647S306.452,0.921,299.608,0"/>
		
			<linearGradient id="SVGID_23_" gradientUnits="userSpaceOnUse" x1="632.5515" y1="138.0803" x2="633.2781" y2="138.0803" gradientTransform="matrix(4.2169 -7.2371 -7.2371 -4.2169 -1361.8903 5167.6357)">
			<stop  offset="0" style="stop-color:#567F48"/>
			<stop  offset="0.7522" style="stop-color:#5B864C"/>
			<stop  offset="1" style="stop-color:#5B864C"/>
		</linearGradient>
		<path class="st29" d="M307.066,3.821c-1.242,0-2.375,0.134-3.07,0.392c-1.209,0.449-0.653,1.132,1.445,1.523
			c0.899,0.167,1.934,0.248,2.921,0.248c1.314,0,2.543-0.144,3.251-0.42c1.241-0.484,0.392-1.162-1.737-1.518
			C308.97,3.895,307.988,3.821,307.066,3.821"/>
		
			<linearGradient id="SVGID_24_" gradientUnits="userSpaceOnUse" x1="563.2491" y1="147.5376" x2="563.9758" y2="147.5376" gradientTransform="matrix(10.8616 -18.6406 -18.6406 -10.8616 -3078.3584 12119.3936)">
			<stop  offset="0" style="stop-color:#567F48"/>
			<stop  offset="0.7522" style="stop-color:#5B864C"/>
			<stop  offset="1" style="stop-color:#5B864C"/>
		</linearGradient>
		<path class="st30" d="M292.965,7.107c-3.469,0-6.809,0.466-9.31,1.352c-4.215,1.494-4.229,3.672,1.615,4.881
			c2.385,0.494,5.235,0.73,8.042,0.73c4.069,0,8.048-0.498,10.392-1.434c3.959-1.581,1.928-3.742-3.652-4.857
			C297.781,7.326,295.343,7.107,292.965,7.107"/>
		
			<linearGradient id="SVGID_25_" gradientUnits="userSpaceOnUse" x1="549.2676" y1="193.1331" x2="549.9942" y2="193.1331" gradientTransform="matrix(19.5682 0.2907 0.2907 -19.5682 -10536.3984 3636.6807)">
			<stop  offset="0" style="stop-color:#3D6032"/>
			<stop  offset="0.7522" style="stop-color:#466E3A"/>
			<stop  offset="1" style="stop-color:#466E3A"/>
		</linearGradient>
		<path class="st31" d="M274.567,18.688c-1.044,0-2.075-0.082-2.95-0.254c-2.351-0.461-2.574-1.389-0.693-2.073
			c1.181-0.43,2.885-0.662,4.551-0.662c0.988,0,1.962,0.082,2.806,0.253c2.268,0.459,2.773,1.385,0.973,2.071
			C278.125,18.454,276.329,18.688,274.567,18.688 M275.657,15.215c-2.198,0-4.446,0.311-6.035,0.884
			c-2.528,0.912-2.307,2.147,0.847,2.762c1.171,0.228,2.556,0.338,3.956,0.338c2.368,0,4.78-0.313,6.277-0.888
			c2.382-0.916,1.662-2.148-1.346-2.76C278.238,15.324,276.957,15.215,275.657,15.215"/>
		
			<linearGradient id="SVGID_26_" gradientUnits="userSpaceOnUse" x1="549.2676" y1="193.1337" x2="549.9942" y2="193.1337" gradientTransform="matrix(19.5682 0.2907 0.2907 -19.5682 -10536.3984 3636.6807)">
			<stop  offset="0" style="stop-color:#567F48"/>
			<stop  offset="0.7522" style="stop-color:#5B864C"/>
			<stop  offset="1" style="stop-color:#5B864C"/>
		</linearGradient>
		<path class="st32" d="M275.476,15.699c-1.666,0-3.37,0.233-4.551,0.662c-1.882,0.685-1.658,1.612,0.693,2.073
			c0.874,0.172,1.906,0.254,2.95,0.254c1.762,0,3.558-0.234,4.688-0.665c1.8-0.686,1.295-1.612-0.973-2.071
			C277.438,15.781,276.464,15.699,275.476,15.699"/>
	</g>
	<polygon class="st33" points="284.061,60.553 245,51.105 245,18.584 246.272,19.311 284.061,26.486 284.061,27.305 245.545,19.91 
		284.061,28.031 284.061,28.824 245.545,20.871 284.061,29.53 284.061,30.195 246.272,22.978 284.061,31.627 284.061,32.292 
		246.272,24.594 284.061,33.826 284.061,34.456 246.272,25.811 284.061,35.77 284.061,36.486 246.272,27.755 284.061,37.714 
		284.061,38.539 246.272,30.121 284.061,40.271 284.061,41.294 246.272,32.409 284.061,42.522 284.061,43.238 246.272,34.609 
		284.061,44.199 284.061,45.156 249.179,36.665 284.061,45.846 284.061,46.829 246.272,37.678 284.061,47.688 284.061,48.148 
		246.272,39.365 284.061,49.507 284.061,50.194 246.272,41.667 284.061,51.882 284.061,52.649 246.272,44.122 284.061,54.081 
		284.061,55.002 246.272,46.168 284.061,56.229 284.061,56.843 246.272,47.856 284.061,57.969 284.061,58.633 246.272,49.851 
		284.061,59.912 	"/>
	<polygon class="st33" points="335,5.265 322.011,10.605 310.273,15.517 309.934,14 273.928,8.711 308.712,15.61 308.718,16.168 
		284.061,26.486 284.061,27.305 308.929,16.847 308.929,49.175 310.15,48.597 310.399,16.229 334.266,6.782 284.061,28.098 
		284.061,28.865 334.049,8.014 284.061,29.53 284.061,30.195 334.599,8.892 284.061,31.627 284.061,32.292 334.552,10.915 
		284.061,33.826 284.061,34.456 334.266,13.392 284.061,35.77 284.061,36.486 334.574,15.201 284.061,37.714 284.061,38.539 
		334.444,17.326 284.061,40.271 284.061,41.294 334.796,19.455 284.061,42.522 284.061,43.238 334.785,21.507 284.061,44.199 
		284.061,45.156 334.932,23.584 284.061,45.846 284.061,46.829 334.434,25.197 284.061,47.688 284.061,48.148 334.566,26.921 
		284.061,49.507 284.061,50.194 334.771,29.139 284.061,51.882 284.061,52.649 334.904,31.389 284.061,54.081 284.061,55.002 
		334.311,33.406 284.061,56.229 284.061,56.843 334.452,34.999 284.061,57.969 284.061,58.633 334.759,36.619 284.061,59.912 
		284.061,60.553 335,37.613 	"/>
	<polygon class="st34" points="316.35,46.012 309.326,49.175 309.326,15.355 303.884,12.54 316.35,12.437 	"/>
	<polygon class="st35" points="280.056,6.619 316.35,12.437 309.326,15.355 273.928,8.711 	"/>
</g>
<path class="st36" d="M324.88,76.2c3.144,0,10.019,17.548,0,17.548c-17.047,0-37.614,1.252-43.214,1.252
	c-6.008,0-17.358-2.743-25.578-7.29C246.827,82.586,240,76.44,240,73.475c0-5.598,5.909-3.754,19.895,4.757
	c0,0,7.041,1.062,13.77,2.207c0,0-3.163-5.65,3.813-6.47c5.074-0.597,18.117-3.143,22.986-3.557
	C311.87,69.44,319.306,76.2,324.88,76.2z"/>
<path class="st37" d="M321.88,97.748c-17.047,0-34.036-2-42.214-2.748c-5.983-0.547-15.358-2.743-23.578-7.29
	C246.827,82.586,240,76.44,240,73.475c0-0.829,0.129-1.494,0.395-1.999c0,0,0.857,4.809,17.155,13.81c0,0,14.377,6.32,23.148,6.451
	c7.268,0.108,29.67,3.425,36.73,0.805c4.122-1.53,3.638-16.565,4.505-16.968"/>
<path class="st37" d="M297.192,84.755c-6.382,0-11.799-1.44-17.117-1.44c-11.687,0-6.41-2.876-6.41-2.876s-1.213-2.166-0.481-4.01
	c0,0-0.269,5.385,5.421,5.385c9.49,0,9.858,1.643,21.308,0.689C311.322,81.552,303.292,84.755,297.192,84.755"/>
<rect x="321.934" y="73.245" class="st38" width="18.066" height="26.755"/>
<g>
	<path class="st39" d="M100,134.101c0,13.66-12.457,15.904-22.888,15.904s-22.888-2.244-22.888-15.904
		c0-10.993,12.457-28.905,22.888-28.905S100,123.108,100,134.101z"/>
	<path class="st40" d="M97,132.101c0,10.993-9.456,14.904-19.888,14.904s-19.888-3.911-19.888-14.904
		c0-8.326,9.456-26.905,19.888-26.905S97,123.775,97,132.101z"/>
	<path class="st41" d="M68.971,109.968c1.655,0.893,4.738,1.496,8.278,1.496c3.54,0,6.623-0.602,8.278-1.496"/>
	<path class="st40" d="M92.566,100.005c0.9,1.815-6.224,6.696-7.877,8.585c-2.509,2.867-6.006,1.873-7.717,1.873
		c-1.419,0-4.648,0.089-7.522-2.095c-2.874-2.184-9.509-5.033-8.394-6.733c1.361-2.076,4.759-3.063,7.696-4.465
		c2.343-1.118,3.133-2.952,7.059-2.952c3.941,0,4.662,2.045,7.139,2.724C82.546,96.831,91.033,96.915,92.566,100.005z"/>
	<path class="st39" d="M92.566,100.005c0.9,1.815-7.212-2.608-8.865-0.719c-2.509,2.867-6.032,4.083-7.743,4.083
		c-1.419,0-4.112,0.635-6.987-1.549s-9.031,1.516-7.917-0.184c1.361-2.076,4.759-3.063,7.696-4.465
		c2.343-1.118,3.133-2.952,7.059-2.952c3.941,0,4.662,2.045,7.139,2.724C82.546,96.831,91.033,96.915,92.566,100.005z"/>
	<g>
		<path class="st42" d="M41.883,84.058c-2.3,0.879-4.538,1.124-4.945,0.59l-0.009,0.002c-5.629-4.837-13.015-7.825-20.173-7.825
			c-6.997,0-11.942,2.948-15.171,7.696H1.572c-0.041,0.126-0.4,0.263-0.784,0.263C0.35,84.785,0,84.701,0,84.49
			c0-0.013,0-0.023,0.005-0.033c0-0.009,0-0.012,0.006-0.02c3.836-8.324,10.925-13.666,21.145-13.666
			c8.673,0,18.001,3.982,24.704,10.261l-0.016,0.006c0.064,0.049,0.114,0.101,0.137,0.17C46.203,81.834,44.424,83.09,41.883,84.058z
			"/>
		<path class="st43" d="M37.194,73.539c-0.062-0.031-0.637-0.318-1.024-0.511c-0.699-0.35-1.702-0.762-2.947-1.233
			c-0.156-0.061-0.317-0.113-0.476-0.172c-0.269-0.1-0.55-0.201-0.853-0.315c-1.779-0.627-3.854-1.166-6.206-1.49
			c-0.397-0.051-0.858-0.104-1.374-0.143c-0.967-0.091-1.933-0.144-2.895-0.144c-0.489,0-0.958,0.012-1.432,0.031
			c-0.476,0.026-0.936,0.048-1.366,0.091c-2.767,0.286-4.344,0.818-4.817,0.984c-0.285,0.098-0.609,0.053-0.644-0.203
			c-0.074-0.473,0.106-1.509,0.195-2.157c0.365-2.815,0.552-5.96-0.358-9.227c-0.903-3.271-3.186-6.345-3.822-7.317
			c-0.689-1.062-0.211-1.443,0.592-1.598c3.529-0.658,10.945,1.31,14.657,3.012c4.402,2.037,12.616,8.537,13.241,19.669
			C37.713,73.526,37.537,73.737,37.194,73.539z"/>
	</g>
	<polyline class="st44" points="100,70.144 100,50.144 80,50.144 	"/>
	<g>
		<polygon class="st44" points="89.429,53.634 58.746,84.275 21.955,100.503 0,150.005 10.922,150.005 29.527,108.092 64.49,92.671 
			96.495,60.71 89.429,53.634 		"/>
	</g>
	<path class="st45" d="M68.416,108.968c1.711,0.893,4.897,1.496,8.556,1.496s6.845-0.602,8.556-1.496"/>
	<text transform="matrix(1 0 0 1 71.0012 136.6885)" class="st46 st47 st48">$</text>
</g>
<g>
	<path class="st42" d="M18.122,165.756c1.872,0,3.306,0.333,4.302,0.999s1.494,1.701,1.494,3.105c0,0.876-0.201,1.587-0.603,2.133
		c-0.402,0.546-0.981,0.975-1.737,1.287c0.252,0.312,0.516,0.669,0.792,1.071c0.275,0.402,0.549,0.822,0.819,1.26
		c0.27,0.438,0.53,0.894,0.782,1.368s0.486,0.939,0.702,1.395h-3.139c-0.229-0.408-0.461-0.822-0.696-1.242
		c-0.234-0.42-0.476-0.828-0.722-1.224c-0.247-0.396-0.491-0.771-0.732-1.125s-0.482-0.675-0.723-0.963h-1.386v4.554h-2.809V166.08
		c0.612-0.12,1.245-0.204,1.899-0.252C17.02,165.78,17.606,165.756,18.122,165.756z M18.284,168.15
		c-0.204,0-0.387,0.006-0.549,0.018c-0.162,0.012-0.315,0.024-0.459,0.036v3.384h0.792c1.056,0,1.812-0.132,2.268-0.396
		c0.456-0.264,0.685-0.714,0.685-1.35c0-0.612-0.231-1.046-0.693-1.305C19.865,168.279,19.183,168.15,18.284,168.15z"/>
	<path class="st42" d="M25.394,173.712c0-0.84,0.129-1.575,0.387-2.205c0.258-0.63,0.597-1.155,1.017-1.575s0.903-0.738,1.449-0.954
		s1.107-0.324,1.684-0.324c1.344,0,2.405,0.412,3.186,1.233s1.17,2.031,1.17,3.627c0,0.156-0.006,0.327-0.018,0.513
		c-0.013,0.187-0.024,0.351-0.036,0.495h-6.084c0.06,0.552,0.317,0.99,0.773,1.314c0.456,0.324,1.068,0.486,1.836,0.486
		c0.492,0,0.976-0.045,1.449-0.135s0.861-0.201,1.161-0.333l0.36,2.178c-0.145,0.072-0.336,0.144-0.576,0.216
		c-0.24,0.072-0.507,0.135-0.801,0.189c-0.295,0.054-0.609,0.099-0.945,0.135c-0.336,0.036-0.672,0.054-1.008,0.054
		c-0.853,0-1.593-0.126-2.224-0.378c-0.63-0.252-1.151-0.597-1.565-1.035c-0.414-0.438-0.72-0.957-0.918-1.557
		S25.394,174.408,25.394,173.712z M31.694,172.686c-0.012-0.228-0.052-0.45-0.117-0.666c-0.066-0.216-0.168-0.408-0.306-0.576
		c-0.139-0.168-0.312-0.306-0.522-0.414c-0.21-0.108-0.471-0.162-0.783-0.162c-0.3,0-0.558,0.051-0.773,0.153
		c-0.216,0.102-0.396,0.237-0.54,0.405c-0.145,0.168-0.255,0.363-0.333,0.585s-0.135,0.447-0.171,0.675H31.694z"/>
	<path class="st42" d="M38.943,178.374c-0.614-1.2-1.237-2.604-1.87-4.212c-0.632-1.608-1.231-3.36-1.797-5.256h2.844
		c0.12,0.468,0.262,0.975,0.425,1.521c0.162,0.546,0.331,1.098,0.506,1.656s0.35,1.101,0.524,1.629
		c0.175,0.528,0.347,1.008,0.516,1.44c0.156-0.432,0.325-0.912,0.506-1.44c0.181-0.528,0.358-1.071,0.533-1.629
		s0.343-1.11,0.506-1.656c0.162-0.546,0.304-1.053,0.425-1.521h2.773c-0.565,1.896-1.165,3.648-1.796,5.256
		c-0.632,1.608-1.255,3.012-1.869,4.212H38.943z"/>
	<path class="st42" d="M45.554,173.712c0-0.84,0.129-1.575,0.387-2.205c0.259-0.63,0.598-1.155,1.018-1.575s0.902-0.738,1.449-0.954
		c0.546-0.216,1.106-0.324,1.683-0.324c1.344,0,2.406,0.412,3.187,1.233c0.779,0.822,1.17,2.031,1.17,3.627
		c0,0.156-0.007,0.327-0.019,0.513c-0.012,0.187-0.024,0.351-0.036,0.495h-6.084c0.061,0.552,0.318,0.99,0.774,1.314
		c0.456,0.324,1.067,0.486,1.836,0.486c0.492,0,0.975-0.045,1.449-0.135c0.474-0.09,0.86-0.201,1.161-0.333l0.359,2.178
		c-0.144,0.072-0.336,0.144-0.576,0.216c-0.24,0.072-0.507,0.135-0.801,0.189s-0.609,0.099-0.945,0.135
		c-0.336,0.036-0.672,0.054-1.008,0.054c-0.852,0-1.593-0.126-2.223-0.378s-1.152-0.597-1.566-1.035
		c-0.414-0.438-0.72-0.957-0.918-1.557C45.653,175.056,45.554,174.408,45.554,173.712z M51.853,172.686
		c-0.012-0.228-0.051-0.45-0.116-0.666c-0.066-0.216-0.169-0.408-0.307-0.576c-0.138-0.168-0.312-0.306-0.521-0.414
		c-0.21-0.108-0.472-0.162-0.783-0.162c-0.3,0-0.558,0.051-0.774,0.153c-0.216,0.102-0.396,0.237-0.54,0.405
		c-0.144,0.168-0.255,0.363-0.333,0.585s-0.135,0.447-0.171,0.675H51.853z"/>
	<path class="st42" d="M56.515,169.23c0.456-0.132,1.045-0.255,1.765-0.369c0.72-0.114,1.476-0.171,2.268-0.171
		c0.804,0,1.474,0.105,2.007,0.315c0.534,0.21,0.957,0.507,1.27,0.891c0.312,0.384,0.534,0.84,0.666,1.368s0.198,1.116,0.198,1.764
		v5.346h-2.683v-5.022c0-0.864-0.114-1.476-0.342-1.836c-0.229-0.36-0.654-0.54-1.278-0.54c-0.191,0-0.396,0.009-0.611,0.027
		c-0.217,0.018-0.408,0.039-0.576,0.063v7.308h-2.683V169.23z"/>
	<path class="st42" d="M75.199,178.05c-0.456,0.132-1.044,0.255-1.764,0.369s-1.476,0.171-2.268,0.171
		c-0.805,0-1.474-0.108-2.007-0.324c-0.534-0.216-0.958-0.519-1.27-0.909c-0.312-0.39-0.534-0.855-0.666-1.395
		s-0.198-1.134-0.198-1.782v-5.274h2.683v4.95c0,0.864,0.113,1.488,0.342,1.872c0.228,0.384,0.654,0.576,1.278,0.576
		c0.191,0,0.396-0.009,0.611-0.027s0.408-0.039,0.576-0.063v-7.308h2.682V178.05z"/>
	<path class="st42" d="M77.269,173.712c0-0.84,0.129-1.575,0.387-2.205c0.259-0.63,0.598-1.155,1.018-1.575s0.902-0.738,1.449-0.954
		c0.546-0.216,1.106-0.324,1.683-0.324c1.344,0,2.406,0.412,3.187,1.233c0.779,0.822,1.17,2.031,1.17,3.627
		c0,0.156-0.007,0.327-0.019,0.513c-0.012,0.187-0.024,0.351-0.036,0.495h-6.084c0.061,0.552,0.318,0.99,0.774,1.314
		c0.456,0.324,1.067,0.486,1.836,0.486c0.492,0,0.975-0.045,1.449-0.135c0.474-0.09,0.86-0.201,1.161-0.333l0.359,2.178
		c-0.144,0.072-0.336,0.144-0.576,0.216c-0.24,0.072-0.507,0.135-0.801,0.189s-0.609,0.099-0.945,0.135
		c-0.336,0.036-0.672,0.054-1.008,0.054c-0.852,0-1.593-0.126-2.223-0.378s-1.152-0.597-1.566-1.035
		c-0.414-0.438-0.72-0.957-0.918-1.557C77.369,175.056,77.269,174.408,77.269,173.712z M83.569,172.686
		c-0.012-0.228-0.051-0.45-0.116-0.666c-0.066-0.216-0.169-0.408-0.307-0.576c-0.138-0.168-0.312-0.306-0.521-0.414
		c-0.21-0.108-0.472-0.162-0.783-0.162c-0.3,0-0.558,0.051-0.774,0.153c-0.216,0.102-0.396,0.237-0.54,0.405
		c-0.144,0.168-0.255,0.363-0.333,0.585s-0.135,0.447-0.171,0.675H83.569z"/>
</g>
<g>
	<path class="st42" d="M485.684,187.769c0,0.492-0.159,0.879-0.477,1.161c-0.318,0.282-0.693,0.423-1.125,0.423
		c-0.432,0-0.807-0.141-1.125-0.423c-0.318-0.282-0.477-0.669-0.477-1.161c0-0.492,0.159-0.879,0.477-1.161
		c0.318-0.282,0.693-0.423,1.125-0.423c0.432,0,0.807,0.141,1.125,0.423C485.525,186.89,485.684,187.278,485.684,187.769z
		 M485.432,199.973h-2.682v-9.468h2.682V199.973z"/>
	<path class="st42" d="M487.952,190.829c0.456-0.132,1.044-0.255,1.764-0.369c0.72-0.114,1.476-0.171,2.268-0.171
		c0.804,0,1.473,0.105,2.007,0.315c0.534,0.21,0.957,0.507,1.269,0.891c0.312,0.384,0.534,0.84,0.666,1.368s0.198,1.116,0.198,1.764
		v5.346h-2.682v-5.022c0-0.864-0.114-1.476-0.342-1.836c-0.229-0.36-0.654-0.54-1.278-0.54c-0.192,0-0.396,0.009-0.612,0.027
		c-0.216,0.018-0.408,0.039-0.576,0.063v7.308h-2.682V190.829z"/>
	<path class="st42" d="M500.854,199.973c-0.614-1.2-1.238-2.604-1.87-4.212s-1.231-3.36-1.797-5.256h2.844
		c0.121,0.468,0.262,0.975,0.425,1.521s0.332,1.098,0.506,1.656s0.35,1.101,0.524,1.629c0.175,0.528,0.347,1.008,0.516,1.44
		c0.156-0.432,0.325-0.912,0.505-1.44c0.181-0.528,0.358-1.071,0.533-1.629s0.343-1.11,0.506-1.656s0.304-1.053,0.425-1.521h2.773
		c-0.565,1.896-1.165,3.648-1.796,5.256c-0.632,1.608-1.255,3.012-1.869,4.212H500.854z"/>
	<path class="st42" d="M507.464,195.311c0-0.84,0.129-1.575,0.387-2.205c0.258-0.63,0.597-1.155,1.017-1.575
		s0.903-0.738,1.449-0.954c0.546-0.216,1.107-0.324,1.683-0.324c1.344,0,2.406,0.412,3.186,1.233c0.78,0.822,1.17,2.031,1.17,3.627
		c0,0.156-0.006,0.327-0.018,0.513c-0.012,0.187-0.024,0.351-0.036,0.495h-6.084c0.06,0.552,0.318,0.99,0.774,1.314
		c0.456,0.324,1.068,0.486,1.836,0.486c0.492,0,0.975-0.045,1.449-0.135c0.474-0.09,0.861-0.201,1.161-0.333l0.36,2.178
		c-0.144,0.072-0.336,0.144-0.576,0.216c-0.24,0.072-0.507,0.135-0.801,0.189c-0.294,0.054-0.609,0.099-0.945,0.135
		c-0.336,0.036-0.672,0.054-1.008,0.054c-0.852,0-1.593-0.126-2.223-0.378c-0.63-0.252-1.152-0.597-1.566-1.035
		c-0.414-0.438-0.72-0.957-0.918-1.557C507.563,196.656,507.464,196.008,507.464,195.311z M513.764,194.285
		c-0.012-0.228-0.051-0.45-0.117-0.666c-0.066-0.216-0.168-0.408-0.306-0.576c-0.138-0.168-0.312-0.306-0.522-0.414
		c-0.21-0.108-0.471-0.162-0.783-0.162c-0.3,0-0.558,0.051-0.774,0.153c-0.216,0.102-0.396,0.237-0.54,0.405
		c-0.144,0.168-0.255,0.363-0.333,0.585s-0.135,0.447-0.171,0.675H513.764z"/>
	<path class="st42" d="M521.144,198.048c0.492,0,0.84-0.048,1.044-0.144s0.306-0.282,0.306-0.558c0-0.216-0.132-0.405-0.396-0.567
		c-0.264-0.162-0.666-0.345-1.206-0.549c-0.42-0.156-0.801-0.318-1.143-0.486s-0.633-0.369-0.873-0.603
		c-0.24-0.234-0.426-0.513-0.558-0.837c-0.132-0.324-0.198-0.714-0.198-1.17c0-0.888,0.33-1.59,0.99-2.106s1.566-0.774,2.718-0.774
		c0.576,0,1.128,0.051,1.656,0.153s0.948,0.213,1.26,0.333l-0.468,2.088c-0.312-0.108-0.651-0.204-1.017-0.288
		c-0.366-0.083-0.777-0.126-1.233-0.126c-0.84,0-1.26,0.234-1.26,0.702c0,0.108,0.018,0.204,0.054,0.288
		c0.036,0.084,0.108,0.165,0.216,0.243c0.108,0.078,0.255,0.163,0.441,0.253s0.423,0.19,0.711,0.299
		c0.588,0.218,1.074,0.433,1.458,0.644c0.384,0.212,0.687,0.44,0.909,0.686c0.222,0.246,0.378,0.518,0.468,0.817
		s0.135,0.647,0.135,1.042c0,0.934-0.351,1.641-1.053,2.12c-0.702,0.479-1.695,0.718-2.979,0.718c-0.84,0-1.539-0.072-2.097-0.216
		c-0.558-0.144-0.945-0.264-1.161-0.36l0.45-2.178c0.456,0.18,0.924,0.321,1.404,0.423
		C520.202,197.996,520.676,198.048,521.144,198.048z"/>
	<path class="st42" d="M527.066,188.147l2.682-0.432v2.79h3.222v2.232h-3.222v3.33c0,0.564,0.099,1.014,0.297,1.35
		c0.198,0.336,0.597,0.504,1.197,0.504c0.288,0,0.585-0.027,0.891-0.081c0.306-0.054,0.585-0.129,0.837-0.225l0.378,2.088
		c-0.324,0.132-0.684,0.246-1.08,0.342c-0.396,0.096-0.882,0.144-1.458,0.144c-0.732,0-1.338-0.099-1.818-0.297
		c-0.48-0.198-0.864-0.474-1.152-0.828c-0.288-0.354-0.489-0.783-0.603-1.287c-0.114-0.504-0.171-1.062-0.171-1.674V188.147z"/>
	<path class="st42" d="M540.349,194.951c0-0.864-0.111-1.476-0.333-1.836s-0.603-0.54-1.143-0.54c-0.168,0-0.342,0.009-0.522,0.027
		c-0.18,0.018-0.354,0.039-0.522,0.063v7.308h-2.682v-9.144c0.228-0.06,0.495-0.123,0.801-0.189s0.63-0.126,0.972-0.18
		c0.342-0.054,0.693-0.096,1.053-0.126c0.36-0.03,0.714-0.045,1.062-0.045c0.684,0,1.239,0.087,1.665,0.261
		c0.426,0.174,0.777,0.381,1.053,0.621c0.384-0.276,0.825-0.492,1.323-0.648c0.498-0.156,0.957-0.234,1.377-0.234
		c0.756,0,1.377,0.105,1.863,0.315c0.486,0.21,0.873,0.507,1.161,0.891c0.288,0.384,0.486,0.84,0.594,1.368s0.162,1.116,0.162,1.764
		v5.346h-2.682v-5.022c0-0.864-0.111-1.476-0.333-1.836c-0.222-0.36-0.603-0.54-1.143-0.54c-0.144,0-0.345,0.036-0.603,0.108
		c-0.258,0.072-0.471,0.162-0.639,0.27c0.084,0.276,0.138,0.567,0.162,0.873s0.036,0.633,0.036,0.981v5.166h-2.682V194.951z"/>
	<path class="st42" d="M550.214,195.311c0-0.84,0.129-1.575,0.387-2.205c0.258-0.63,0.597-1.155,1.017-1.575
		s0.903-0.738,1.449-0.954c0.546-0.216,1.107-0.324,1.683-0.324c1.344,0,2.406,0.412,3.186,1.233c0.78,0.822,1.17,2.031,1.17,3.627
		c0,0.156-0.006,0.327-0.018,0.513c-0.012,0.187-0.024,0.351-0.036,0.495h-6.084c0.06,0.552,0.318,0.99,0.774,1.314
		c0.456,0.324,1.068,0.486,1.836,0.486c0.492,0,0.975-0.045,1.449-0.135c0.474-0.09,0.861-0.201,1.161-0.333l0.36,2.178
		c-0.144,0.072-0.336,0.144-0.576,0.216c-0.24,0.072-0.507,0.135-0.801,0.189c-0.294,0.054-0.609,0.099-0.945,0.135
		c-0.336,0.036-0.672,0.054-1.008,0.054c-0.852,0-1.593-0.126-2.223-0.378c-0.63-0.252-1.152-0.597-1.566-1.035
		c-0.414-0.438-0.72-0.957-0.918-1.557C550.313,196.656,550.214,196.008,550.214,195.311z M556.513,194.285
		c-0.012-0.228-0.051-0.45-0.117-0.666c-0.066-0.216-0.168-0.408-0.306-0.576c-0.138-0.168-0.312-0.306-0.522-0.414
		c-0.21-0.108-0.471-0.162-0.783-0.162c-0.3,0-0.558,0.051-0.774,0.153c-0.216,0.102-0.396,0.237-0.54,0.405
		c-0.144,0.168-0.255,0.363-0.333,0.585s-0.135,0.447-0.171,0.675H556.513z"/>
	<path class="st42" d="M561.176,190.829c0.456-0.132,1.044-0.255,1.764-0.369c0.72-0.114,1.476-0.171,2.268-0.171
		c0.804,0,1.473,0.105,2.007,0.315c0.534,0.21,0.957,0.507,1.269,0.891c0.312,0.384,0.534,0.84,0.666,1.368s0.198,1.116,0.198,1.764
		v5.346h-2.682v-5.022c0-0.864-0.114-1.476-0.342-1.836c-0.229-0.36-0.654-0.54-1.278-0.54c-0.192,0-0.396,0.009-0.612,0.027
		c-0.216,0.018-0.408,0.039-0.576,0.063v7.308h-2.682V190.829z"/>
	<path class="st42" d="M571.687,188.147l2.682-0.432v2.79h3.222v2.232h-3.222v3.33c0,0.564,0.099,1.014,0.297,1.35
		c0.198,0.336,0.597,0.504,1.197,0.504c0.288,0,0.585-0.027,0.891-0.081c0.306-0.054,0.585-0.129,0.837-0.225l0.378,2.088
		c-0.324,0.132-0.684,0.246-1.08,0.342c-0.396,0.096-0.882,0.144-1.458,0.144c-0.732,0-1.338-0.099-1.818-0.297
		c-0.48-0.198-0.864-0.474-1.152-0.828c-0.288-0.354-0.489-0.783-0.603-1.287c-0.114-0.504-0.171-1.062-0.171-1.674V188.147z"/>
</g>
<g>
	<path class="st42" d="M228.333,119.466c0,0.457-0.09,0.895-0.27,1.314c-0.18,0.42-0.414,0.825-0.702,1.215
		c-0.288,0.39-0.612,0.765-0.972,1.125c-0.36,0.36-0.714,0.702-1.062,1.026c-0.18,0.168-0.375,0.357-0.585,0.567
		c-0.21,0.21-0.411,0.423-0.603,0.639s-0.363,0.417-0.513,0.603c-0.15,0.186-0.243,0.339-0.279,0.459h5.364v2.25h-8.316
		c-0.024-0.132-0.036-0.3-0.036-0.504s0-0.348,0-0.432c0-0.576,0.093-1.104,0.279-1.584s0.429-0.927,0.729-1.341
		s0.639-0.801,1.017-1.161s0.753-0.72,1.125-1.08c0.288-0.276,0.558-0.537,0.81-0.783s0.474-0.486,0.666-0.72
		c0.192-0.234,0.342-0.468,0.45-0.702c0.108-0.234,0.162-0.471,0.162-0.711c0-0.528-0.15-0.9-0.45-1.116
		c-0.3-0.216-0.672-0.324-1.116-0.324c-0.324,0-0.627,0.051-0.909,0.153c-0.282,0.102-0.54,0.222-0.774,0.36
		c-0.234,0.138-0.435,0.276-0.603,0.414c-0.168,0.138-0.294,0.249-0.378,0.333l-1.332-1.872c0.528-0.492,1.143-0.897,1.845-1.215
		c0.702-0.318,1.455-0.477,2.259-0.477c0.732,0,1.362,0.084,1.89,0.252c0.528,0.168,0.963,0.405,1.305,0.711
		c0.342,0.306,0.594,0.678,0.756,1.116C228.252,118.419,228.333,118.914,228.333,119.466z"/>
	<path class="st42" d="M236.109,124.992c0-0.348-0.078-0.657-0.234-0.927c-0.156-0.27-0.426-0.495-0.81-0.675
		c-0.384-0.18-0.9-0.318-1.548-0.414c-0.648-0.096-1.464-0.144-2.448-0.144c0.132-1.116,0.24-2.25,0.324-3.402
		c0.083-1.152,0.15-2.232,0.198-3.24h6.75v2.25h-4.5c-0.024,0.432-0.051,0.849-0.081,1.251c-0.03,0.402-0.063,0.753-0.099,1.053
		c1.751,0.12,3.044,0.531,3.879,1.233c0.834,0.702,1.251,1.677,1.251,2.925c0,0.576-0.102,1.11-0.306,1.602
		c-0.204,0.492-0.51,0.918-0.918,1.278c-0.408,0.36-0.921,0.642-1.539,0.846c-0.618,0.204-1.341,0.306-2.169,0.306
		c-0.324,0-0.663-0.021-1.017-0.063s-0.696-0.096-1.026-0.162s-0.627-0.135-0.891-0.207c-0.264-0.072-0.468-0.144-0.612-0.216
		l0.486-2.214c0.3,0.132,0.696,0.261,1.188,0.387s1.08,0.189,1.764,0.189c0.828,0,1.428-0.165,1.8-0.495
		C235.923,125.823,236.109,125.436,236.109,124.992z"/>
	<path class="st42" d="M246.854,119.394c0,1.128-0.288,1.992-0.864,2.592c-0.576,0.601-1.35,0.9-2.322,0.9
		c-0.972,0-1.746-0.3-2.322-0.9c-0.576-0.6-0.864-1.464-0.864-2.592s0.288-1.992,0.864-2.592c0.576-0.6,1.35-0.9,2.322-0.9
		c0.972,0,1.746,0.3,2.322,0.9C246.566,117.402,246.854,118.266,246.854,119.394z M244.82,119.394c0-0.612-0.108-1.056-0.324-1.332
		c-0.216-0.276-0.492-0.414-0.828-0.414c-0.348,0-0.627,0.138-0.837,0.414c-0.21,0.276-0.315,0.72-0.315,1.332
		s0.105,1.059,0.315,1.341c0.21,0.282,0.489,0.423,0.837,0.423c0.336,0,0.612-0.141,0.828-0.423
		C244.712,120.453,244.82,120.006,244.82,119.394z M250.365,116.19h2.502l-7.038,12.474h-2.502L250.365,116.19z M255.746,125.46
		c0,1.128-0.288,1.992-0.864,2.592c-0.576,0.6-1.35,0.9-2.322,0.9s-1.746-0.3-2.322-0.9c-0.576-0.6-0.864-1.464-0.864-2.592
		c0-1.128,0.288-1.992,0.864-2.592c0.576-0.6,1.35-0.9,2.322-0.9s1.746,0.3,2.322,0.9
		C255.458,123.468,255.746,124.332,255.746,125.46z M253.712,125.46c0-0.612-0.108-1.056-0.324-1.332
		c-0.216-0.276-0.492-0.414-0.828-0.414c-0.348,0-0.627,0.138-0.837,0.414c-0.21,0.276-0.315,0.72-0.315,1.332
		c0,0.612,0.105,1.059,0.315,1.341c0.21,0.282,0.489,0.423,0.837,0.423c0.336,0,0.612-0.141,0.828-0.423
		C253.604,126.519,253.712,126.072,253.712,125.46z"/>
	<path class="st42" d="M261.506,123.93c0-0.684,0.111-1.329,0.333-1.935c0.222-0.606,0.543-1.134,0.963-1.584
		c0.42-0.45,0.93-0.807,1.53-1.071c0.6-0.264,1.284-0.396,2.052-0.396c0.504,0,0.966,0.045,1.386,0.135
		c0.42,0.09,0.828,0.219,1.224,0.387l-0.558,2.142c-0.252-0.096-0.528-0.18-0.828-0.252c-0.3-0.072-0.636-0.108-1.008-0.108
		c-0.792,0-1.383,0.246-1.773,0.738c-0.39,0.492-0.585,1.141-0.585,1.944c0,0.852,0.183,1.512,0.549,1.98
		c0.366,0.468,1.005,0.702,1.917,0.702c0.324,0,0.672-0.03,1.044-0.09c0.372-0.06,0.714-0.156,1.026-0.288l0.378,2.196
		c-0.312,0.132-0.702,0.246-1.17,0.342c-0.468,0.096-0.984,0.144-1.548,0.144c-0.864,0-1.608-0.129-2.232-0.387
		c-0.624-0.258-1.137-0.609-1.539-1.053c-0.402-0.444-0.696-0.969-0.882-1.575C261.599,125.295,261.506,124.638,261.506,123.93z"/>
	<path class="st42" d="M279.363,123.912c0,0.744-0.108,1.425-0.324,2.043s-0.528,1.146-0.936,1.584
		c-0.408,0.438-0.897,0.777-1.467,1.017c-0.57,0.24-1.209,0.36-1.917,0.36c-0.696,0-1.33-0.12-1.899-0.36
		c-0.57-0.24-1.06-0.579-1.467-1.017c-0.408-0.438-0.726-0.966-0.954-1.584s-0.342-1.299-0.342-2.043s0.117-1.422,0.351-2.034
		c0.234-0.612,0.558-1.134,0.972-1.566c0.414-0.432,0.906-0.768,1.476-1.008s1.191-0.36,1.863-0.36c0.684,0,1.311,0.12,1.881,0.36
		c0.57,0.24,1.059,0.576,1.467,1.008c0.408,0.432,0.726,0.954,0.954,1.566C279.248,122.49,279.363,123.168,279.363,123.912z
		 M276.626,123.912c0-0.828-0.165-1.479-0.495-1.953c-0.33-0.474-0.801-0.711-1.413-0.711c-0.612,0-1.086,0.237-1.422,0.711
		c-0.336,0.474-0.504,1.125-0.504,1.953s0.168,1.485,0.504,1.971c0.336,0.486,0.81,0.729,1.422,0.729
		c0.612,0,1.083-0.243,1.413-0.729C276.461,125.397,276.626,124.74,276.626,123.912z"/>
	<path class="st42" d="M286.634,123.642c0-0.864-0.111-1.476-0.333-1.836s-0.603-0.54-1.143-0.54c-0.168,0-0.342,0.009-0.522,0.027
		c-0.18,0.018-0.354,0.039-0.522,0.063v7.308h-2.682v-9.144c0.228-0.06,0.495-0.123,0.801-0.189s0.63-0.126,0.972-0.18
		c0.342-0.054,0.693-0.096,1.053-0.126c0.36-0.03,0.714-0.045,1.062-0.045c0.684,0,1.239,0.087,1.665,0.261
		c0.426,0.174,0.777,0.381,1.053,0.621c0.384-0.276,0.825-0.492,1.323-0.648c0.498-0.156,0.957-0.234,1.377-0.234
		c0.756,0,1.377,0.105,1.863,0.315c0.486,0.21,0.873,0.507,1.161,0.891c0.288,0.384,0.486,0.84,0.594,1.368s0.162,1.116,0.162,1.764
		v5.346h-2.682v-5.022c0-0.864-0.111-1.476-0.333-1.836c-0.222-0.36-0.603-0.54-1.143-0.54c-0.144,0-0.345,0.036-0.603,0.108
		c-0.258,0.072-0.471,0.162-0.639,0.27c0.084,0.276,0.138,0.567,0.162,0.873s0.036,0.633,0.036,0.981v5.166h-2.682V123.642z"/>
	<path class="st42" d="M302.15,123.642c0-0.864-0.111-1.476-0.333-1.836s-0.603-0.54-1.143-0.54c-0.168,0-0.342,0.009-0.522,0.027
		c-0.18,0.018-0.354,0.039-0.522,0.063v7.308h-2.682v-9.144c0.228-0.06,0.495-0.123,0.801-0.189s0.63-0.126,0.972-0.18
		c0.342-0.054,0.693-0.096,1.053-0.126c0.36-0.03,0.714-0.045,1.062-0.045c0.684,0,1.239,0.087,1.665,0.261
		c0.426,0.174,0.777,0.381,1.053,0.621c0.384-0.276,0.825-0.492,1.323-0.648c0.498-0.156,0.957-0.234,1.377-0.234
		c0.756,0,1.377,0.105,1.863,0.315c0.486,0.21,0.873,0.507,1.161,0.891c0.288,0.384,0.486,0.84,0.594,1.368s0.162,1.116,0.162,1.764
		v5.346h-2.682v-5.022c0-0.864-0.111-1.476-0.333-1.836c-0.222-0.36-0.603-0.54-1.143-0.54c-0.144,0-0.345,0.036-0.603,0.108
		c-0.258,0.072-0.471,0.162-0.639,0.27c0.084,0.276,0.138,0.567,0.162,0.873s0.036,0.633,0.036,0.981v5.166h-2.682V123.642z"/>
	<path class="st42" d="M315.398,116.46c0,0.492-0.159,0.879-0.477,1.161c-0.318,0.282-0.693,0.423-1.125,0.423
		c-0.432,0-0.807-0.141-1.125-0.423c-0.318-0.282-0.477-0.669-0.477-1.161c0-0.492,0.159-0.879,0.477-1.161
		c0.318-0.282,0.693-0.423,1.125-0.423c0.432,0,0.807,0.141,1.125,0.423C315.239,115.581,315.398,115.968,315.398,116.46z
		 M315.146,128.664h-2.682v-9.468h2.682V128.664z"/>
	<path class="st42" d="M320.384,126.738c0.492,0,0.84-0.048,1.044-0.144s0.306-0.282,0.306-0.558c0-0.216-0.132-0.405-0.396-0.567
		c-0.264-0.162-0.666-0.345-1.206-0.549c-0.42-0.156-0.801-0.318-1.143-0.486s-0.633-0.369-0.873-0.603
		c-0.24-0.234-0.426-0.513-0.558-0.837c-0.132-0.324-0.198-0.714-0.198-1.17c0-0.888,0.33-1.59,0.99-2.106s1.566-0.774,2.718-0.774
		c0.576,0,1.128,0.051,1.656,0.153s0.948,0.213,1.26,0.333l-0.468,2.088c-0.312-0.108-0.651-0.204-1.017-0.288
		c-0.366-0.083-0.777-0.126-1.233-0.126c-0.84,0-1.26,0.234-1.26,0.702c0,0.108,0.018,0.204,0.054,0.288
		c0.036,0.084,0.108,0.165,0.216,0.243c0.108,0.078,0.255,0.163,0.441,0.253s0.423,0.19,0.711,0.299
		c0.588,0.218,1.074,0.433,1.458,0.644c0.384,0.212,0.687,0.44,0.909,0.686c0.222,0.246,0.378,0.518,0.468,0.817
		s0.135,0.647,0.135,1.042c0,0.934-0.351,1.641-1.053,2.12c-0.702,0.479-1.695,0.718-2.979,0.718c-0.84,0-1.539-0.072-2.097-0.216
		c-0.558-0.144-0.945-0.264-1.161-0.36l0.45-2.178c0.456,0.18,0.924,0.321,1.404,0.423
		C319.442,126.687,319.916,126.738,320.384,126.738z"/>
	<path class="st42" d="M329.114,126.738c0.492,0,0.84-0.048,1.044-0.144s0.306-0.282,0.306-0.558c0-0.216-0.132-0.405-0.396-0.567
		c-0.264-0.162-0.666-0.345-1.206-0.549c-0.42-0.156-0.801-0.318-1.143-0.486s-0.633-0.369-0.873-0.603
		c-0.24-0.234-0.426-0.513-0.558-0.837c-0.132-0.324-0.198-0.714-0.198-1.17c0-0.888,0.33-1.59,0.99-2.106s1.566-0.774,2.718-0.774
		c0.576,0,1.128,0.051,1.656,0.153s0.948,0.213,1.26,0.333l-0.468,2.088c-0.312-0.108-0.651-0.204-1.017-0.288
		c-0.366-0.083-0.777-0.126-1.233-0.126c-0.84,0-1.26,0.234-1.26,0.702c0,0.108,0.018,0.204,0.054,0.288
		c0.036,0.084,0.108,0.165,0.216,0.243c0.108,0.078,0.255,0.163,0.441,0.253s0.423,0.19,0.711,0.299
		c0.588,0.218,1.074,0.433,1.458,0.644c0.384,0.212,0.687,0.44,0.909,0.686c0.222,0.246,0.378,0.518,0.468,0.817
		s0.135,0.647,0.135,1.042c0,0.934-0.351,1.641-1.053,2.12c-0.702,0.479-1.695,0.718-2.979,0.718c-0.84,0-1.539-0.072-2.097-0.216
		c-0.558-0.144-0.945-0.264-1.161-0.36l0.45-2.178c0.456,0.18,0.924,0.321,1.404,0.423
		C328.171,126.687,328.645,126.738,329.114,126.738z"/>
	<path class="st42" d="M338.059,116.46c0,0.492-0.159,0.879-0.477,1.161c-0.318,0.282-0.693,0.423-1.125,0.423
		c-0.432,0-0.807-0.141-1.125-0.423c-0.318-0.282-0.477-0.669-0.477-1.161c0-0.492,0.159-0.879,0.477-1.161
		c0.318-0.282,0.693-0.423,1.125-0.423c0.432,0,0.807,0.141,1.125,0.423C337.9,115.581,338.059,115.968,338.059,116.46z
		 M337.807,128.664h-2.682v-9.468h2.682V128.664z"/>
	<path class="st42" d="M349.183,123.912c0,0.744-0.108,1.425-0.324,2.043s-0.528,1.146-0.936,1.584
		c-0.408,0.438-0.897,0.777-1.467,1.017c-0.57,0.24-1.209,0.36-1.917,0.36c-0.696,0-1.33-0.12-1.899-0.36
		c-0.57-0.24-1.06-0.579-1.467-1.017c-0.408-0.438-0.726-0.966-0.954-1.584s-0.342-1.299-0.342-2.043s0.117-1.422,0.351-2.034
		c0.234-0.612,0.558-1.134,0.972-1.566c0.414-0.432,0.906-0.768,1.476-1.008s1.191-0.36,1.863-0.36c0.684,0,1.311,0.12,1.881,0.36
		c0.57,0.24,1.059,0.576,1.467,1.008c0.408,0.432,0.726,0.954,0.954,1.566C349.069,122.49,349.183,123.168,349.183,123.912z
		 M346.447,123.912c0-0.828-0.165-1.479-0.495-1.953c-0.33-0.474-0.801-0.711-1.413-0.711c-0.612,0-1.086,0.237-1.422,0.711
		c-0.336,0.474-0.504,1.125-0.504,1.953s0.168,1.485,0.504,1.971c0.336,0.486,0.81,0.729,1.422,0.729
		c0.612,0,1.083-0.243,1.413-0.729C346.282,125.397,346.447,124.74,346.447,123.912z"/>
	<path class="st42" d="M351.253,119.52c0.456-0.132,1.044-0.255,1.764-0.369c0.72-0.114,1.476-0.171,2.268-0.171
		c0.804,0,1.473,0.105,2.007,0.315c0.534,0.21,0.957,0.507,1.269,0.891c0.312,0.384,0.534,0.84,0.666,1.368s0.198,1.116,0.198,1.764
		v5.346h-2.682v-5.022c0-0.864-0.114-1.476-0.342-1.836c-0.229-0.36-0.654-0.54-1.278-0.54c-0.192,0-0.396,0.009-0.612,0.027
		c-0.216,0.018-0.408,0.039-0.576,0.063v7.308h-2.682V119.52z"/>
</g>
<g>
	<path class="st42" d="M490.833,165.899c0.217,0.396,0.466,0.885,0.749,1.467c0.282,0.582,0.577,1.212,0.884,1.89
		c0.307,0.678,0.61,1.371,0.912,2.079c0.3,0.708,0.583,1.375,0.848,1.998c0.265-0.624,0.548-1.29,0.849-1.998
		c0.301-0.708,0.604-1.401,0.911-2.079c0.307-0.678,0.602-1.308,0.885-1.89c0.282-0.582,0.532-1.071,0.749-1.467h2.556
		c0.12,0.828,0.23,1.755,0.333,2.781c0.102,1.026,0.191,2.094,0.27,3.204s0.15,2.223,0.217,3.339
		c0.065,1.116,0.123,2.166,0.171,3.15h-2.736c-0.036-1.212-0.084-2.532-0.144-3.96c-0.061-1.428-0.15-2.868-0.271-4.32
		c-0.217,0.504-0.457,1.062-0.722,1.674c-0.266,0.612-0.527,1.224-0.786,1.836s-0.509,1.197-0.749,1.755
		c-0.241,0.558-0.445,1.035-0.614,1.431h-1.962c-0.169-0.396-0.373-0.873-0.614-1.431c-0.24-0.558-0.49-1.143-0.749-1.755
		s-0.521-1.224-0.785-1.836s-0.506-1.17-0.723-1.674c-0.12,1.452-0.21,2.892-0.27,4.32c-0.061,1.428-0.108,2.748-0.145,3.96h-2.735
		c0.048-0.984,0.104-2.034,0.171-3.15c0.065-1.116,0.138-2.229,0.216-3.339s0.168-2.178,0.27-3.204
		c0.103-1.026,0.213-1.953,0.333-2.781H490.833z"/>
	<path class="st42" d="M506.888,168.653c0.792,0,1.452,0.09,1.98,0.27c0.527,0.18,0.95,0.438,1.269,0.774s0.543,0.744,0.675,1.224
		c0.132,0.48,0.198,1.014,0.198,1.602v5.58c-0.384,0.084-0.918,0.183-1.602,0.297c-0.685,0.114-1.513,0.171-2.484,0.171
		c-0.612,0-1.167-0.054-1.665-0.162s-0.927-0.285-1.287-0.531c-0.359-0.246-0.636-0.567-0.828-0.963
		c-0.191-0.396-0.288-0.882-0.288-1.458c0-0.552,0.111-1.02,0.333-1.404c0.223-0.384,0.52-0.69,0.892-0.918
		c0.371-0.228,0.798-0.393,1.277-0.495c0.48-0.102,0.979-0.153,1.494-0.153c0.349,0,0.657,0.016,0.928,0.045
		c0.27,0.03,0.488,0.069,0.656,0.117v-0.252c0-0.456-0.138-0.822-0.414-1.098c-0.275-0.276-0.756-0.414-1.439-0.414
		c-0.456,0-0.906,0.033-1.351,0.099c-0.443,0.066-0.827,0.159-1.151,0.279l-0.342-2.16c0.155-0.048,0.351-0.099,0.585-0.153
		c0.233-0.054,0.488-0.102,0.765-0.144c0.275-0.042,0.567-0.078,0.873-0.108S506.576,168.653,506.888,168.653z M507.104,176.501
		c0.264,0,0.517-0.006,0.756-0.018c0.24-0.012,0.433-0.03,0.576-0.054v-2.034c-0.107-0.024-0.27-0.048-0.485-0.072
		c-0.217-0.024-0.414-0.036-0.595-0.036c-0.252,0-0.488,0.015-0.711,0.045c-0.222,0.03-0.417,0.087-0.585,0.171
		c-0.168,0.084-0.3,0.198-0.396,0.342c-0.097,0.144-0.145,0.324-0.145,0.54c0,0.42,0.142,0.711,0.423,0.873
		C506.225,176.42,506.612,176.501,507.104,176.501z"/>
	<path class="st42" d="M519.146,171.282c-0.24-0.06-0.522-0.123-0.846-0.189c-0.324-0.066-0.673-0.099-1.044-0.099
		c-0.169,0-0.369,0.015-0.604,0.045c-0.234,0.03-0.411,0.063-0.531,0.099v7.236h-2.682v-8.964c0.479-0.168,1.047-0.327,1.701-0.477
		c0.653-0.15,1.383-0.225,2.187-0.225c0.145,0,0.318,0.009,0.522,0.027s0.407,0.042,0.612,0.072c0.203,0.03,0.407,0.066,0.611,0.108
		s0.378,0.093,0.522,0.153L519.146,171.282z"/>
	<path class="st42" d="M523.719,172.305c0.264-0.287,0.536-0.584,0.818-0.895c0.281-0.311,0.554-0.618,0.817-0.922
		c0.265-0.304,0.513-0.593,0.747-0.868c0.233-0.274,0.434-0.513,0.602-0.715h3.189c-0.636,0.73-1.257,1.428-1.863,2.092
		c-0.605,0.665-1.269,1.35-1.988,2.057c0.359,0.324,0.731,0.712,1.115,1.163c0.384,0.451,0.757,0.917,1.116,1.398
		c0.36,0.481,0.69,0.961,0.99,1.442c0.3,0.481,0.552,0.92,0.756,1.316h-3.084c-0.191-0.313-0.41-0.658-0.655-1.038
		c-0.246-0.379-0.507-0.758-0.782-1.136c-0.275-0.379-0.565-0.743-0.871-1.092s-0.608-0.644-0.907-0.884v4.15h-2.683v-13.536
		l2.683-0.432V172.305z"/>
	<path class="st42" d="M530.36,173.711c0-0.84,0.129-1.575,0.387-2.205c0.259-0.63,0.598-1.155,1.018-1.575s0.902-0.738,1.449-0.954
		c0.546-0.216,1.106-0.324,1.683-0.324c1.344,0,2.406,0.412,3.187,1.233c0.779,0.822,1.17,2.031,1.17,3.627
		c0,0.156-0.007,0.327-0.019,0.513c-0.012,0.187-0.024,0.351-0.036,0.495h-6.084c0.061,0.552,0.318,0.99,0.774,1.314
		c0.456,0.324,1.067,0.486,1.836,0.486c0.492,0,0.975-0.045,1.449-0.135c0.474-0.09,0.86-0.201,1.161-0.333l0.359,2.178
		c-0.144,0.072-0.336,0.144-0.576,0.216c-0.24,0.072-0.507,0.135-0.801,0.189s-0.609,0.099-0.945,0.135
		c-0.336,0.036-0.672,0.054-1.008,0.054c-0.852,0-1.593-0.126-2.223-0.378s-1.152-0.597-1.566-1.035
		c-0.414-0.438-0.72-0.957-0.918-1.557C530.46,175.055,530.36,174.407,530.36,173.711z M536.66,172.685
		c-0.012-0.228-0.051-0.45-0.116-0.666c-0.066-0.216-0.169-0.408-0.307-0.576c-0.138-0.168-0.312-0.306-0.521-0.414
		c-0.21-0.108-0.472-0.162-0.783-0.162c-0.3,0-0.558,0.051-0.774,0.153c-0.216,0.102-0.396,0.237-0.54,0.405
		c-0.144,0.168-0.255,0.363-0.333,0.585s-0.135,0.447-0.171,0.675H536.66z"/>
	<path class="st42" d="M541.232,166.547l2.682-0.432v2.79h3.223v2.232h-3.223v3.33c0,0.564,0.1,1.014,0.297,1.35
		c0.198,0.336,0.597,0.504,1.197,0.504c0.288,0,0.585-0.027,0.891-0.081c0.307-0.054,0.585-0.129,0.838-0.225l0.378,2.088
		c-0.324,0.132-0.685,0.246-1.08,0.342c-0.396,0.096-0.882,0.144-1.458,0.144c-0.732,0-1.339-0.099-1.818-0.297
		c-0.48-0.198-0.864-0.474-1.152-0.828c-0.288-0.354-0.488-0.783-0.603-1.287c-0.114-0.504-0.171-1.062-0.171-1.674V166.547z"/>
	<path class="st42" d="M552.248,166.169c0,0.492-0.159,0.879-0.478,1.161c-0.317,0.282-0.692,0.423-1.125,0.423
		c-0.432,0-0.807-0.141-1.125-0.423c-0.317-0.282-0.477-0.669-0.477-1.161c0-0.492,0.159-0.879,0.477-1.161
		c0.318-0.282,0.693-0.423,1.125-0.423c0.433,0,0.808,0.141,1.125,0.423C552.089,165.29,552.248,165.678,552.248,166.169z
		 M551.996,178.373h-2.683v-9.468h2.683V178.373z"/>
	<path class="st42" d="M554.515,169.229c0.456-0.132,1.045-0.255,1.765-0.369c0.72-0.114,1.476-0.171,2.268-0.171
		c0.804,0,1.474,0.105,2.007,0.315c0.534,0.21,0.957,0.507,1.27,0.891c0.312,0.384,0.534,0.84,0.666,1.368s0.198,1.116,0.198,1.764
		v5.346h-2.683v-5.022c0-0.864-0.114-1.476-0.342-1.836c-0.229-0.36-0.654-0.54-1.278-0.54c-0.191,0-0.396,0.009-0.611,0.027
		c-0.217,0.018-0.408,0.039-0.576,0.063v7.308h-2.683V169.229z"/>
	<path class="st42" d="M573.29,177.185c0,1.548-0.394,2.697-1.18,3.447s-2.001,1.125-3.645,1.125c-0.576,0-1.152-0.051-1.729-0.153
		c-0.575-0.102-1.109-0.237-1.602-0.405l0.468-2.25c0.42,0.168,0.861,0.3,1.323,0.396c0.462,0.096,0.986,0.144,1.575,0.144
		c0.768,0,1.311-0.168,1.629-0.504c0.317-0.336,0.477-0.768,0.477-1.296v-0.342c-0.288,0.132-0.585,0.231-0.891,0.297
		s-0.639,0.099-0.999,0.099c-1.309,0-2.311-0.387-3.006-1.161c-0.696-0.774-1.044-1.857-1.044-3.249
		c0-0.696,0.107-1.329,0.323-1.899c0.217-0.57,0.531-1.059,0.945-1.467c0.414-0.408,0.921-0.723,1.521-0.945
		c0.6-0.222,1.277-0.333,2.033-0.333c0.324,0,0.657,0.015,0.999,0.045c0.343,0.03,0.682,0.069,1.018,0.117s0.657,0.105,0.963,0.171
		c0.306,0.066,0.579,0.135,0.819,0.207V177.185z M567.403,173.333c0,1.5,0.606,2.25,1.818,2.25c0.276,0,0.534-0.036,0.774-0.108
		c0.239-0.072,0.443-0.156,0.611-0.252v-4.284c-0.132-0.024-0.288-0.045-0.468-0.063s-0.39-0.027-0.63-0.027
		c-0.708,0-1.236,0.234-1.584,0.702C567.577,172.019,567.403,172.614,567.403,173.333z"/>
</g>
</svg>
