<?xml version="1.0" encoding="utf-8"?>
<!-- Generator: Adobe Illustrator 16.0.0, SVG Export Plug-In . SVG Version: 6.00 Build 0)  -->
<!DOCTYPE svg PUBLIC "-//W3C//DTD SVG 1.1//EN" "http://www.w3.org/Graphics/SVG/1.1/DTD/svg11.dtd">
<svg version="1.1" id="image" xmlns="http://www.w3.org/2000/svg" xmlns:xlink="http://www.w3.org/1999/xlink" x="0px" y="0px"
	 width="30px" height="30px" viewBox="0 0 30 30" enable-background="new 0 0 30 30" xml:space="preserve">
<g>
	<path fill="currentColor" d="M8.355,0.999c4.432,0,8.863,0,13.297,0c0.044,0.006,0.076,0.014,0.109,0.02
		c0.377,0.051,0.757,0.082,1.12,0.16c1.328,0.283,2.501,0.875,3.497,1.777c1.441,1.289,2.293,2.894,2.561,4.8
		C28.964,7.955,28.978,8.151,29,8.344c0,4.438,0,8.869,0,13.301c-0.003,0.034-0.009,0.078-0.021,0.11
		c-0.028,0.241-0.035,0.482-0.08,0.708c-0.246,1.483-0.856,2.809-1.867,3.915c-1.51,1.683-3.411,2.59-5.664,2.6
		c-4.231,0.041-8.457,0.018-12.682,0.018c-0.625-0.004-1.241-0.088-1.844-0.246c-1.219-0.324-2.308-0.894-3.242-1.744
		c-1.669-1.518-2.568-3.42-2.583-5.687c-0.029-4.214-0.011-8.436-0.003-12.65c0.001-0.433,0.044-0.863,0.123-1.286
		C1.467,5.57,2.338,4.063,3.732,2.866c1.166-1.004,2.519-1.605,4.048-1.8C7.972,1.039,8.164,1.019,8.355,0.999z M15.002,22.768
		c4.296,0,7.768-3.471,7.783-7.766c0.004-4.279-3.462-7.73-7.687-7.782c-4.34-0.051-7.867,3.47-7.867,7.767
		C7.232,19.289,10.706,22.768,15.002,22.768z M22.786,5.666c0.003,0.859,0.712,1.565,1.562,1.555
		C25.2,7.216,25.9,6.512,25.903,5.663c0-0.854-0.708-1.558-1.561-1.557C23.477,4.107,22.774,4.812,22.786,5.666z"/>
	<path fill="currentColor" d="M15.003,10.327c2.574,0,4.67,2.09,4.67,4.669c0,2.574-2.096,4.67-4.67,4.67
		c-2.574,0-4.664-2.097-4.664-4.67C10.339,12.417,12.429,10.327,15.003,10.327z"/>
</g>
</svg>
