<?xml version="1.0" encoding="utf-8"?>
<!-- Generator: Adobe Illustrator 16.0.0, SVG Export Plug-In . SVG Version: 6.00 Build 0)  -->
<!DOCTYPE svg PUBLIC "-//W3C//DTD SVG 1.1//EN" "http://www.w3.org/Graphics/SVG/1.1/DTD/svg11.dtd">
<svg version="1.1" id="image" xmlns="http://www.w3.org/2000/svg" xmlns:xlink="http://www.w3.org/1999/xlink" x="0px" y="0px"
	 width="60px" height="60px" viewBox="0 0 60 60" enable-background="new 0 0 60 60" xml:space="preserve">
<rect x="-611" y="-1461" fill="none" width="1440" height="2988"/>
<path fill-rule="evenodd" clip-rule="evenodd" fill="#9245B1" d="M51.533,19.417c-0.437-1.026-1.154-1.895-2.06-2.507
	c-0.459-0.31-0.959-0.556-1.497-0.719c-0.538-0.167-1.108-0.254-1.694-0.254h-9.216V13.02c0-0.685-0.145-1.351-0.4-1.951
	c-0.379-0.902-1.012-1.667-1.813-2.207c-0.401-0.274-0.846-0.488-1.314-0.634C33.066,8.079,32.559,8,32.048,8h-4.812
	c-0.692,0-1.357,0.144-1.955,0.396c-0.903,0.381-1.669,1.018-2.208,1.818c-0.271,0.399-0.488,0.84-0.633,1.312
	C22.296,12,22.213,12.5,22.213,13.019v2.917h-8.49c-0.778,0-1.536,0.159-2.22,0.446c-1.025,0.436-1.892,1.156-2.504,2.064
	c-0.309,0.453-0.554,0.955-0.72,1.491c-0.166,0.542-0.257,1.114-0.257,1.698v0.087v3.803v0.091v20.679
	c0,0.787,0.161,1.539,0.447,2.22c0.437,1.026,1.158,1.895,2.067,2.511c0.451,0.304,0.952,0.548,1.491,0.717
	C12.564,51.912,13.136,52,13.721,52h32.556c0.781,0,1.534-0.158,2.222-0.449c1.024-0.434,1.893-1.152,2.507-2.061
	c0.31-0.455,0.553-0.959,0.717-1.496c0.164-0.539,0.256-1.107,0.256-1.695V25.616v-0.088v-3.803v-0.09
	C51.981,20.857,51.819,20.102,51.533,19.417z M25.715,13.02c0-0.21,0.045-0.409,0.122-0.588c0.117-0.271,0.308-0.506,0.55-0.672
	c0.12-0.08,0.254-0.145,0.394-0.185c0.144-0.047,0.291-0.072,0.455-0.072h4.806c0.211,0,0.406,0.043,0.589,0.118
	c0.273,0.115,0.506,0.31,0.67,0.554c0.082,0.12,0.145,0.253,0.188,0.395c0.044,0.144,0.067,0.293,0.067,0.449v2.918h-7.841V13.02z"
	/>
<rect x="-636" y="-1496" fill="none" width="1440" height="2988"/>
<rect x="-433" y="-2594" fill="none" width="1440" height="2988"/>
<rect x="-433" y="-2594" fill="none" width="1440" height="2988"/>
<rect x="-433" y="-2594" fill="none" width="1440" height="2988"/>
</svg>
