<?xml version="1.0" encoding="utf-8"?>
<!-- Generator: Adobe Illustrator 16.0.0, SVG Export Plug-In . SVG Version: 6.00 Build 0)  -->
<!DOCTYPE svg PUBLIC "-//W3C//DTD SVG 1.1//EN" "http://www.w3.org/Graphics/SVG/1.1/DTD/svg11.dtd">
<svg version="1.1" id="image" xmlns="http://www.w3.org/2000/svg" xmlns:xlink="http://www.w3.org/1999/xlink" x="0px" y="0px"
	 width="60px" height="60px" viewBox="0 0 60 60" enable-background="new 0 0 60 60" xml:space="preserve">
<g>
	<path fill-rule="evenodd" clip-rule="evenodd" fill="#FA5A3A" d="M16.447,17.926c-0.742,0.133-1.46,0.34-2.134,0.625
		c-1.823,0.768-3.361,2.047-4.45,3.658c-0.546,0.806-0.97,1.697-1.263,2.646c-0.3,0.951-0.455,1.962-0.455,3.003
		c0,1.391,0.279,2.724,0.784,3.934c0.766,1.813,2.054,3.354,3.663,4.443c1.136,0.769,2.448,1.308,3.854,1.56V17.926z"/>
	<path fill-rule="evenodd" clip-rule="evenodd" fill="#FA5A3A" d="M51.333,8.524C50.996,8.192,50.533,8,50.061,8
		s-0.936,0.192-1.273,0.524c-0.323,0.334-0.521,0.796-0.521,1.268c0,0.454-0.083,0.895-0.253,1.345
		c-0.14,0.392-0.35,0.791-0.638,1.191c-0.506,0.702-1.231,1.41-2.179,2.063c-1.42,0.98-3.302,1.833-5.502,2.43
		c-2.204,0.596-4.706,0.938-7.37,0.937H20.036v20.205l1.814,0.007l4.995,10.948l0.002,0.008c0.442,0.963,1.153,1.742,1.99,2.263
		l0.006,0.003c0.832,0.519,1.805,0.811,2.815,0.81c0.749,0.003,1.514-0.166,2.216-0.49l0.004-0.002
		c0.973-0.446,1.746-1.165,2.26-1.982l0.004-0.006c0.537-0.854,0.811-1.832,0.812-2.827c0-0.745-0.165-1.501-0.491-2.206h0.002
		l-2.914-6.475l1.959,0.01c1.781,0.188,3.453,0.522,4.965,0.987c1.255,0.388,2.387,0.858,3.373,1.387
		c0.75,0.398,1.403,0.828,1.968,1.276c0.848,0.673,1.469,1.385,1.87,2.08c0.195,0.347,0.338,0.69,0.438,1.033
		c0.1,0.34,0.143,0.678,0.143,1.024c0,0.472,0.198,0.934,0.521,1.268c0.338,0.334,0.801,0.527,1.273,0.527s0.936-0.193,1.272-0.527
		c0.324-0.334,0.522-0.796,0.522-1.268V9.792C51.855,9.32,51.657,8.858,51.333,8.524"/>
</g>
</svg>
