<?xml version="1.0" encoding="utf-8"?>
<!-- Generator: Adobe Illustrator 16.0.0, SVG Export Plug-In . SVG Version: 6.00 Build 0)  -->
<!DOCTYPE svg PUBLIC "-//W3C//DTD SVG 1.1//EN" "http://www.w3.org/Graphics/SVG/1.1/DTD/svg11.dtd">
<svg version="1.1" id="image" xmlns="http://www.w3.org/2000/svg" xmlns:xlink="http://www.w3.org/1999/xlink" x="0px" y="0px"
	 width="30px" height="30px" viewBox="0 0 30 30" enable-background="new 0 0 30 30" xml:space="preserve">
<g>
	<path fill="#8C96A9" d="M23.789,18.012c-0.647-5.795-1.59-13.051-6.585-14.67c0.003-0.044,0.024-0.078,0.024-0.12
		C17.227,1.991,16.23,1,15,1c-1.228,0-2.223,0.991-2.223,2.222c0,0.042,0.021,0.078,0.024,0.12
		c-4.993,1.616-5.937,8.873-6.586,14.67c-0.222,2.006-5.04,5.006-2.448,5.006h7.073H15h4.156h7.072
		C28.826,23.018,24.008,20.013,23.789,18.012z"/>
	<path fill="#8C96A9" d="M15,29c2.173,0,3.972-1.559,4.367-3.617h-8.735C11.027,27.441,12.829,29,15,29z"/>
</g>
</svg>
