<?xml version="1.0" encoding="utf-8"?>
<!-- Generator: Adobe Illustrator 16.0.0, SVG Export Plug-In . SVG Version: 6.00 Build 0)  -->
<!DOCTYPE svg PUBLIC "-//W3C//DTD SVG 1.1//EN" "http://www.w3.org/Graphics/SVG/1.1/DTD/svg11.dtd">
<svg version="1.1" id="image" xmlns="http://www.w3.org/2000/svg" xmlns:xlink="http://www.w3.org/1999/xlink" x="0px" y="0px"
	 width="30px" height="30px" viewBox="10 10 30 30" enable-background="new 10 10 30 30" xml:space="preserve">
<g>
	<path fill="#CCA98F" d="M39,25.001c0,5.439-3.104,10.157-7.637,12.472c-1.909,0.977-4.072-0.601-6.363-0.601
		c-4.764,0-8.973-0.25-11.5-3.887C11.924,30.72,11,27.967,11,25C11,17.267,17.269,11,25,11C32.732,11.001,39,17.269,39,25.001z"/>
	<path fill="#875831" d="M34.738,17.386c-0.002-0.032-0.008-0.061-0.018-0.082c-1.436-3.561-9.311-0.272-14.739,1.168
		c-0.029-0.001-2.122,0.309-2.122,0.309c-3.487,0.785-3.221,5.074-3.658,6.885c-0.374,1.732-0.586,4.397-0.7,7.32
		C16.031,36.62,20.237,39,25.001,39c2.292,0,4.454-0.551,6.362-1.527c-1.166-1.09-1.834-2.123-1.646-2.812l0,0
		c0.562-1.865,0.223-1.662,1.281-4.622c0.305-0.854-0.594-1.209-0.363-1.482c0.186-0.225,0.35-0.441,0.51-0.713
		c0.006-0.007,0.01-0.014,0.013-0.02c0.063-0.112,0.132-0.236,0.2-0.371c0.004-0.014,0.012-0.029,0.02-0.043s0.012-0.029,0.02-0.043
		c0.012-0.025,0.023-0.049,0.037-0.074c0.006-0.019,0.016-0.037,0.025-0.059c0.01-0.023,0.02-0.043,0.03-0.066
		s0.021-0.049,0.032-0.076c0.01-0.018,0.016-0.036,0.025-0.055c0.011-0.027,0.021-0.055,0.032-0.081
		c0.009-0.021,0.017-0.04,0.024-0.06c0.01-0.022,0.018-0.043,0.027-0.062c0.01-0.029,0.022-0.059,0.033-0.088
		c0.01-0.021,0.018-0.047,0.027-0.07c0.012-0.027,0.021-0.055,0.033-0.085c0.015-0.034,0.027-0.071,0.039-0.104
		c0.008-0.022,0.014-0.041,0.023-0.062c0.008-0.024,0.018-0.052,0.028-0.078c0.011-0.034,0.022-0.066,0.034-0.101
		c0.005-0.013,0.01-0.028,0.015-0.04c0.016-0.049,0.034-0.097,0.05-0.146c0.006-0.018,0.014-0.035,0.018-0.057
		c0.018-0.046,0.033-0.092,0.05-0.141c0.007-0.025,0.016-0.051,0.023-0.075c0.015-0.043,0.03-0.089,0.045-0.136
		c0.011-0.033,0.021-0.064,0.032-0.099c0.014-0.04,0.025-0.081,0.04-0.123c0.009-0.031,0.019-0.062,0.028-0.094
		c0.015-0.046,0.027-0.093,0.045-0.142c0.01-0.033,0.02-0.066,0.031-0.101c0.012-0.048,0.029-0.095,0.043-0.146
		c0.014-0.045,0.029-0.091,0.043-0.138c0.012-0.042,0.023-0.081,0.035-0.124c0.018-0.059,0.035-0.118,0.053-0.178
		c0.01-0.032,0.02-0.062,0.029-0.095c0.021-0.076,0.045-0.157,0.068-0.237c0.006-0.017,0.011-0.032,0.014-0.051
		c0.059-0.199,0.117-0.405,0.18-0.623c1.04-2.814,1.894-4.993,2.029-5.858C34.753,17.595,34.76,17.515,34.738,17.386z
		 M17.611,33.644c-0.116-0.039-0.283-0.092-0.474-0.16c-0.192-0.068-0.411-0.15-0.646-0.244c-0.116-0.049-0.237-0.1-0.36-0.156
		c-0.125-0.058-0.249-0.118-0.376-0.194c-0.124-0.072-0.25-0.157-0.365-0.252c-0.117-0.097-0.222-0.208-0.314-0.321
		c-0.084-0.119-0.161-0.237-0.213-0.359c-0.059-0.118-0.086-0.238-0.116-0.344c-0.029-0.105-0.034-0.212-0.048-0.299
		c-0.014-0.089-0.002-0.162-0.003-0.226c0.003-0.122,0.013-0.195,0.013-0.195s0.045,0.056,0.111,0.163
		c0.034,0.051,0.07,0.119,0.119,0.186c0.049,0.065,0.094,0.144,0.153,0.22c0.061,0.075,0.115,0.161,0.189,0.237
		c0.064,0.082,0.147,0.151,0.224,0.229c0.045,0.033,0.087,0.068,0.129,0.105c0.046,0.035,0.096,0.064,0.142,0.1
		c0.099,0.064,0.198,0.131,0.312,0.193c0.106,0.068,0.225,0.127,0.337,0.196c0.116,0.065,0.228,0.134,0.339,0.204
		c0.219,0.14,0.415,0.293,0.571,0.434c0.155,0.146,0.276,0.276,0.353,0.379c0.077,0.098,0.115,0.159,0.115,0.159
		S17.73,33.682,17.611,33.644z M18.1,32.327c-0.125-0.062-0.306-0.146-0.512-0.252c-0.21-0.102-0.447-0.225-0.703-0.361
		c-0.254-0.138-0.53-0.292-0.798-0.492c-0.131-0.104-0.265-0.209-0.379-0.336c-0.062-0.06-0.115-0.126-0.164-0.193
		c-0.053-0.068-0.104-0.131-0.142-0.205c-0.039-0.068-0.084-0.137-0.115-0.205c-0.028-0.073-0.059-0.141-0.087-0.209
		c-0.054-0.135-0.081-0.268-0.113-0.387c-0.022-0.123-0.035-0.238-0.047-0.336c-0.014-0.099-0.007-0.182-0.01-0.254
		c0.001-0.14,0.009-0.224,0.009-0.224s0.047,0.069,0.117,0.19c0.036,0.061,0.075,0.138,0.124,0.22
		c0.05,0.081,0.104,0.173,0.159,0.27c0.065,0.091,0.123,0.196,0.198,0.298c0.036,0.049,0.073,0.101,0.111,0.152
		c0.041,0.047,0.082,0.097,0.125,0.148c0.039,0.052,0.088,0.098,0.135,0.144c0.045,0.05,0.094,0.097,0.146,0.14
		c0.1,0.092,0.211,0.179,0.328,0.267c0.114,0.087,0.238,0.171,0.359,0.262c0.125,0.085,0.245,0.176,0.361,0.267
		c0.235,0.182,0.444,0.371,0.611,0.545c0.082,0.088,0.153,0.176,0.218,0.249c0.063,0.073,0.11,0.149,0.151,0.206
		c0.082,0.115,0.121,0.188,0.121,0.188S18.226,32.385,18.1,32.327z M18.562,30.607c-0.069-0.036-0.153-0.079-0.249-0.128
		c-0.098-0.051-0.205-0.104-0.317-0.167c-0.235-0.118-0.499-0.261-0.786-0.417c-0.284-0.158-0.594-0.332-0.892-0.557
		c-0.147-0.113-0.295-0.232-0.424-0.372c-0.068-0.066-0.129-0.139-0.184-0.213c-0.058-0.076-0.115-0.146-0.158-0.227
		c-0.045-0.078-0.094-0.15-0.129-0.23c-0.036-0.078-0.068-0.154-0.102-0.229c-0.062-0.15-0.093-0.299-0.131-0.43
		c-0.028-0.137-0.045-0.264-0.061-0.375c-0.019-0.107-0.013-0.202-0.018-0.281c-0.004-0.158,0.001-0.249,0.001-0.249
		s0.05,0.077,0.125,0.216c0.038,0.067,0.08,0.155,0.132,0.248c0.054,0.09,0.112,0.195,0.171,0.305
		c0.071,0.106,0.137,0.226,0.22,0.34c0.04,0.059,0.081,0.116,0.124,0.176c0.044,0.059,0.094,0.113,0.14,0.17
		c0.045,0.059,0.1,0.111,0.151,0.166c0.052,0.057,0.106,0.109,0.165,0.16c0.114,0.106,0.24,0.205,0.372,0.303
		c0.13,0.102,0.271,0.195,0.407,0.294c0.142,0.098,0.275,0.197,0.409,0.299c0.132,0.098,0.259,0.202,0.376,0.303
		c0.115,0.102,0.222,0.201,0.315,0.297c0.096,0.098,0.178,0.191,0.25,0.273s0.127,0.161,0.176,0.225
		c0.093,0.127,0.141,0.204,0.141,0.204S18.701,30.677,18.562,30.607z M31.303,18.846c-0.092,0.051-0.217,0.106-0.359,0.161
		c-0.068,0.029-0.148,0.053-0.221,0.079c-0.068,0.022-0.139,0.045-0.213,0.069c-0.068,0.02-0.133,0.032-0.205,0.06
		c-0.073,0.024-0.15,0.07-0.227,0.127c-0.074,0.055-0.15,0.12-0.225,0.185c-0.078,0.066-0.154,0.131-0.227,0.192
		c-0.148,0.128-0.293,0.243-0.414,0.339c-0.246,0.196-0.42,0.315-0.42,0.315l-0.045-0.045c0,0,0.117-0.175,0.292-0.429
		c0.089-0.128,0.188-0.28,0.3-0.439c0.055-0.08,0.113-0.163,0.176-0.246c0.062-0.083,0.126-0.168,0.201-0.253
		c0.074-0.084,0.152-0.177,0.251-0.26c0.095-0.087,0.214-0.154,0.33-0.195c0.118-0.036,0.232-0.052,0.331-0.049
		c0.104-0.003,0.191,0.012,0.275,0.026c0.166,0.035,0.299,0.082,0.389,0.127c0.092,0.044,0.146,0.082,0.146,0.082v0.066
		C31.439,18.758,31.39,18.798,31.303,18.846z"/>
	<path fill="#FFFFFF" d="M21.652,21.879c-2.468,0.556-3.313,1.492-4.023,2.906C16.013,17.83,20.987,19.982,21.652,21.879z"/>
	<g>
		<path fill="#FFFFFF" d="M22.544,27.488c1.75,0.998,3.183,1.412,5.235,1.439c1.396,0.061,1.496-0.123,2.854-0.374
			c-2.291,3.971-7.541,0.429-9.719-1.862"/>
	</g>
	<path fill="#875831" d="M18.24,22.35c0.158,0.557,0.758,0.876,1.336,0.713c0.579-0.162,0.921-0.745,0.762-1.301
		c-0.157-0.556-0.757-0.876-1.336-0.713S18.082,21.793,18.24,22.35z"/>
</g>
</svg>
