<?xml version="1.0" encoding="utf-8"?>
<!-- Generator: Adobe Illustrator 16.0.0, SVG Export Plug-In . SVG Version: 6.00 Build 0)  -->
<!DOCTYPE svg PUBLIC "-//W3C//DTD SVG 1.1//EN" "http://www.w3.org/Graphics/SVG/1.1/DTD/svg11.dtd">
<svg version="1.1" id="image" xmlns="http://www.w3.org/2000/svg" xmlns:xlink="http://www.w3.org/1999/xlink" x="0px" y="0px"
	 width="24px" height="24px" viewBox="0 0 24 24" enable-background="new 0 0 24 24" xml:space="preserve">
<g>
	<defs>
		<rect id="SVGID_1_" x="478.623" y="1408.656" width="1" height="0.345"/>
	</defs>
	<clipPath id="SVGID_2_">
		<use xlink:href="#SVGID_1_"  overflow="visible"/>
	</clipPath>
	<g clip-path="url(#SVGID_2_)">
		<defs>
			<rect id="SVGID_3_" x="-635" y="-1462" width="1440" height="2988"/>
		</defs>
		<clipPath id="SVGID_4_">
			<use xlink:href="#SVGID_3_"  overflow="visible"/>
		</clipPath>
		<g clip-path="url(#SVGID_4_)" enable-background="new    ">
			<g>
				<defs>
					<rect id="SVGID_5_" x="478" y="1408" width="1" height="1"/>
				</defs>
				<clipPath id="SVGID_6_">
					<use xlink:href="#SVGID_5_"  overflow="visible"/>
				</clipPath>
				<g clip-path="url(#SVGID_6_)">
					<defs>
						<polygon id="SVGID_7_" points="478.656,1408.689 478.625,1408.657 478.623,1408.656 						"/>
					</defs>
					<clipPath id="SVGID_8_">
						<use xlink:href="#SVGID_7_"  overflow="visible"/>
					</clipPath>
					<g clip-path="url(#SVGID_8_)">
						<defs>
							<rect id="SVGID_9_" x="478" y="1408" width="2" height="1"/>
						</defs>
						<clipPath id="SVGID_10_">
							<use xlink:href="#SVGID_9_"  overflow="visible"/>
						</clipPath>
						<rect x="473.623" y="1403.656" clip-path="url(#SVGID_10_)" width="10.033" height="10.033"/>
					</g>
				</g>
			</g>
		</g>
	</g>
</g>
<rect x="-635" y="-1462" fill="none" width="1440" height="2988"/>
<g>
	<path fill-rule="evenodd" clip-rule="evenodd" fill="#FFFFFF" d="M22.789,1.607l-0.142-0.26l-0.26-0.142
		C20.996,0.452,19.326,0,17.512,0c-2.119-0.001-4.432,0.623-6.68,2.084C9.58,2.897,8.352,3.975,7.174,5.332
		C6.738,5.191,6.296,5.117,5.867,5.118C4.266,5.131,2.889,5.925,1.865,6.771C1.354,7.199,0.928,7.649,0.609,8.08
		c-0.16,0.217-0.295,0.428-0.402,0.65C0.104,8.955,0.008,9.177,0,9.53c0,0.118,0.014,0.256,0.066,0.409
		c0.049,0.148,0.145,0.311,0.273,0.441v0.001c0.001,0.001,0.002,0.001,0.003,0.002c0.001,0.002,0.003,0.004,0.004,0.005l0.001-0.001
		c0.156,0.151,0.275,0.199,0.357,0.234c0.164,0.061,0.242,0.067,0.32,0.078c0.135,0.017,0.244,0.019,0.371,0.021
		c0.432,0.01,1.059-0.002,1.699,0.058c0.416,0.035,0.822,0.111,1.15,0.214c0.1,0.612,0.332,1.287,0.725,2.035
		c0.43,0.815,1.062,1.715,1.928,2.672l-1.812,1.816c-0.391,0.392-0.391,1.024,0.002,1.414c0.391,0.391,1.023,0.39,1.414-0.001
		l1.812-1.815c0.955,0.86,1.854,1.493,2.668,1.922c0.75,0.393,1.426,0.625,2.041,0.725c0.139,0.457,0.223,1.074,0.242,1.637
		c0.018,0.393,0.018,0.757,0.021,1.052c0.002,0.149,0.003,0.278,0.012,0.411c0.006,0.068,0.012,0.136,0.031,0.234l0.056,0.193
		c0.035,0.084,0.079,0.201,0.231,0.362l0.008,0.008c0.133,0.132,0.295,0.226,0.445,0.275c0.152,0.052,0.289,0.066,0.408,0.067
		c0.354-0.008,0.576-0.104,0.801-0.208c0.385-0.189,0.752-0.459,1.139-0.806c0.574-0.521,1.168-1.211,1.641-2.032
		c0.469-0.82,0.824-1.778,0.827-2.827c0.001-0.426-0.071-0.866-0.21-1.299c1.354-1.178,2.432-2.407,3.242-3.659
		C23.377,10.921,24,8.61,24,6.491C23.999,4.674,23.545,3.001,22.789,1.607 M13.884,17.793l-0.005,0.002
		c-0.023,0.008-0.1,0.023-0.214,0.023c-0.323,0.004-0.946-0.126-1.751-0.553c-0.627-0.329-1.367-0.838-2.188-1.567l1.875-1.88
		c0.389-0.391,0.389-1.024-0.002-1.414c-0.391-0.391-1.023-0.39-1.414,0.002l-1.875,1.879c-0.732-0.822-1.242-1.563-1.57-2.189
		c-0.428-0.804-0.557-1.429-0.553-1.752l0.016-0.187l0.008-0.027c1.794-3.078,3.768-5.107,5.709-6.368
		c1.311-0.85,2.605-1.347,3.841-1.586c0.565,1.201,1.413,2.422,2.524,3.535c1.117,1.113,2.339,1.958,3.539,2.522
		c-0.237,1.238-0.734,2.536-1.584,3.85C18.982,14.023,16.955,15.998,13.884,17.793"/>
	<path fill-rule="evenodd" clip-rule="evenodd" fill="#FFFFFF" d="M14.933,6.244c-0.724,0-1.448,0.276-1.999,0.832
		c-1.109,1.105-1.104,2.897,0.005,3.998c0.554,0.552,1.277,0.826,2,0.826c0.724,0,1.447-0.276,1.996-0.832
		c1.106-1.105,1.099-2.897-0.002-4C16.377,6.519,15.654,6.244,14.933,6.244"/>
</g>
</svg>
