<?xml version="1.0" encoding="utf-8"?>
<!-- Generator: Adobe Illustrator 24.1.2, SVG Export Plug-In . SVG Version: 6.00 Build 0)  -->
<!DOCTYPE svg PUBLIC "-//W3C//DTD SVG 1.1//EN" "http://www.w3.org/Graphics/SVG/1.1/DTD/svg11.dtd">
<svg version="1.1" id="image" xmlns="http://www.w3.org/2000/svg" xmlns:xlink="http://www.w3.org/1999/xlink" x="0px" y="0px"
	  viewBox="0 0 16 16" enable-background="new 0 0 30 30" xml:space="preserve">
<g>
	<path fill="#fff" class="st1" d="M2.102,11.809c1.155,0,2.096,0.938,2.096,2.095C4.198,15.059,3.257,16,2.102,16s-2.093-0.941-2.093-2.096
		C0.009,12.747,0.947,11.809,2.102,11.809z"/>
	<path fill="#fff" class="st1" d="M0.003,8.615c2.039,0.001,3.877,0.824,5.22,2.163c0.67,0.669,1.212,1.466,1.586,2.348
		c0.374,0.883,0.581,1.849,0.581,2.873h3.198c0.001-2.919-1.191-5.574-3.104-7.484c-1.911-1.912-4.566-3.099-7.48-3.099V8.615
		L0.003,8.615z"/>
	<path fill="#fff" class="st1" d="M0,3.2C3.531,3.2,6.723,4.629,9.047,6.949c2.321,2.322,3.754,5.511,3.755,9.05H16
		c0.001-4.414-1.798-8.423-4.693-11.312C8.415,1.794,4.406,0.001,0,0.002V3.2L0,3.2z"/>
</g>
</svg>
