<?xml version="1.0" encoding="utf-8"?>
<!-- Generator: Adobe Illustrator 24.3.0, SVG Export Plug-In . SVG Version: 6.00 Build 0)  -->
<svg version="1.1" id="Layer_1" xmlns="http://www.w3.org/2000/svg" xmlns:xlink="http://www.w3.org/1999/xlink" x="0px" y="0px"
	 viewBox="0 0 320 315" style="enable-background:new 0 0 320 315;" xml:space="preserve">
<style type="text/css">
	.st0{fill:#49484C;}
	.st1{fill:url(#SVGID_1_);}
	.st2{fill:#AF2917;}
	.st3{fill:#33628B;}
	.st4{fill:#407AAE;}
	.st5{fill:#FBC9AA;}
	.st6{fill:#EFB192;}
	.st7{fill:#DC9D87;}
	.st8{fill:#FFDDCA;}
	.st9{fill:#FA5A3A;}
	.st10{fill:#E8E8E8;}
	.st11{opacity:0.1;enable-background:new    ;}
	.st12{fill:#FCBF51;}
	.st13{opacity:0.3;fill:#FFFFFF;}
	.st14{opacity:0.3;}
	.st15{fill:#95A6BA;}
	.st16{fill:#C0DBF2;}
	.st17{fill:#384A56;}
	.st18{opacity:0.5;fill:#4E6572;}
	.st19{fill:#5D5D5D;}
	.st20{fill:#384955;}
	.st21{fill:#E15134;}
	.st22{fill:#EDEFF3;}
	.st23{fill:#B2B2B2;}
	.st24{opacity:0.1;}
	.st25{opacity:0.2;}
	.st26{opacity:0.2;fill:#FFFFFF;}
	.st27{opacity:0.7;}
	.st28{fill:#2E659C;}
	.st29{fill:#5897D1;}
	.st30{opacity:0.5;}
	.st31{opacity:0.1;fill:url(#SVGID_2_);}
	.st32{fill:#7B7A7F;}
</style>
<g>
	<polygon class="st0" points="69.75,126.463 103.627,133.998 108.008,106.826 65.758,92.136 	"/>
	<linearGradient id="SVGID_1_" gradientUnits="userSpaceOnUse" x1="165.5848" y1="117.9466" x2="187.9743" y2="117.9466">
		<stop  offset="0" style="stop-color:#FA5A3A"/>
		<stop  offset="1" style="stop-color:#E15134"/>
	</linearGradient>
	<polygon class="st1" points="165.585,107.062 187.802,101.72 187.974,132.443 173.967,134.173 	"/>
	<g>
		<path class="st2" d="M172.134,126.482c0,5.261-1.89,10.161-5.615,10.161c-3.725,0-7.875-4.9-7.875-10.161
			c0-5.262,3.02-9.527,6.745-9.527C169.115,116.954,172.134,121.22,172.134,126.482z"/>
		<path class="st3" d="M163.742,132.851c7.159,7.68-14.636,21.999-21.025,21.408c-8.635-0.798-41.189-20.845-41.189-24.478
			c0-3.633,7.291-22.145,11.08-22.145c0.404,0,1.919,0.873,5.249,0.492c5.018-0.574,12.762-2.321,15.93-0.879
			C148.256,113.833,161.849,130.82,163.742,132.851z"/>
		<path class="st4" d="M157.357,129.138c7.16,7.681-5.366,19.702-11.756,19.111c-1.655-0.153-1.668-2.333-4.652-4.135
			c-1.061-0.64-2.508-0.556-3.499-1.081c-0.831-0.439-2.104-1.881-3.085-2.255c-3.113-1.188-3.25,0.549-5.19,0.15
			c-1.119-0.23-1.06-1.542-3.229-2.539c-5.124-2.356-8.25,2.508-8.832,1.493c-2.541-4.442-8.822-3.604-7.204-7.031
			c1.407-2.979,7.945-24.723,7.945-24.723c2.799-0.32,6.445-1.005,9.672-1.298c2.56-0.233-11.347,11.329-3.732,13.085
			c1.278,0.295,4.421-0.004,6.002-0.807c3.487-1.772,5.716-5.212,8.41-4.578C149.099,117.091,155.965,127.644,157.357,129.138z"/>
		<path class="st5" d="M163.742,132.851c0,0-6.164-6.943-13.499-12.972c-3.397-2.793-7.881-5.539-11.241-6.916
			c-1.179-0.483-2.687,0.057-3.811,0.574c-0.421,0.194-1.165,0.196-1.271,0.414c-0.87,1.792-3.195,4.539-7.013,4.539
			c-3.118,0-5.427-0.563-5.427-3.6c0-0.583,1.956-1.957,3.152-4.201c0.993-1.865,0.986-4.534,3.251-5.984
			c1.482-0.948,3.531-0.865,5.551-1.213c3.099-0.533,6.129-1.191,6.939-1.191c2.023,0,5.227,1.719,9.706,3.418
			c3.861,1.464,7.803,3.026,9.648,2.139C168.492,103.644,171.656,128.804,163.742,132.851z"/>
		<path class="st6" d="M116.181,141.621c0,1.656-0.546,3.033-1.827,3.033s-2.576,0.822-5.043-1.644
			c-1.517-1.517-1.757-6.614-0.475-6.614c0.479,0,0.528,0.279,1.776,0.989c0.833,0.474,1.885,0.64,2.85,1.26
			C114.922,139.583,116.181,140.997,116.181,141.621z"/>
		<path class="st5" d="M115.743,141.657c0.296,0.938-0.183,2.156-1.243,2.412c-2.349,0.567-4.787-2.799-5.006-3.618
			c-0.549-2.047,1.115-2.332,2.448-2.047C112.966,138.625,115.305,140.269,115.743,141.657z"/>
		<path class="st7" d="M113.668,144.251c0.022,0.277-1.284,0.23-1.673,0.216c-0.952-0.034-2.888-2.14-2.91-2.418
			c-0.023-0.278,0.274-0.529,0.662-0.559c0.25-0.02,1.148,1.074,2.222,1.889C112.559,143.826,113.661,144.151,113.668,144.251z"/>
		<path class="st6" d="M127.948,144.334c-0.326,1.274-2.868,6.742-5.646,6.742s-4.779-2.165-5.153-4.303
			c-0.33-1.88,1.699-5.892,4.714-7.647C124.265,137.731,129.072,139.949,127.948,144.334z"/>
		<path class="st5" d="M127.51,144.334c-0.326,1.274-2.43,5.646-5.207,5.646c-2.574,0-3.887-2.239-4.057-3.207
			c-0.329-1.88,0.603-5.454,3.618-7.208C124.265,138.169,128.634,139.949,127.51,144.334z"/>
		<path class="st8" d="M126.496,143.348c0,0.786-1.443,2.683-2.7,2.683s-2.7-0.783-2.7-1.82s0.384-3.22,1.069-3.22
			c0.561,0,1.264,0.701,2.114,1.085C125.334,142.551,126.496,142.773,126.496,143.348z"/>
		<path class="st6" d="M142.716,148.41c0.046,1.181-0.745,6.543-3.137,7.254c-2.646,0.786-5.294,0.086-6.417-2.169
			c-0.764-1.535,0.833-5.73,2.98-8.013C137.853,143.664,142.562,144.345,142.716,148.41z"/>
		<path class="st5" d="M142.338,148.523c0.046,1.181-0.648,5.487-3.041,6.197c-2.217,0.659-5.085-1.344-4.753-2.163
			c0.831-2.056,1.719-3.398,2.368-6.039C137.508,144.093,142.184,144.458,142.338,148.523z"/>
		<path class="st8" d="M141.575,148.44c-0.076,0.702-1.548,2.259-2.672,2.137c-1.122-0.12-2.336-0.959-2.236-1.886
			c0.1-0.926,0.652-2.84,1.266-2.775c0.501,0.055,1.061,0.749,1.784,1.174C140.615,147.616,141.631,147.926,141.575,148.44z"/>
		<path class="st6" d="M136.374,147.468c-0.443,1.335-3.158,6.982-6.193,6.787c-3.035-0.196-4.854-1.986-5.116-4.289
			c-0.23-2.026,2.699-6.597,6.114-8.255C133.898,140.393,137.903,142.875,136.374,147.468z"/>
		<path class="st5" d="M135.895,147.437c-0.443,1.335-2.604,5.844-5.639,5.65c-2.812-0.18-3.875-2.001-3.993-3.044
			c-0.23-2.027,1.472-6.207,4.886-7.864C133.868,140.859,137.423,142.844,135.895,147.437z"/>
		<path class="st8" d="M135.735,146.019c-0.117,0.797-1.901,2.499-3.208,2.307c-1.306-0.192-2.689-1.208-2.535-2.258
			c0.155-1.051,0.88-3.206,1.592-3.101c0.583,0.086,1.21,0.904,2.037,1.424C134.646,145.033,135.821,145.437,135.735,146.019z"/>
		<path class="st6" d="M163.742,132.851c0,0-6.164-6.943-13.499-12.972c-3.397-2.793-7.881-5.539-11.241-6.916
			c-1.179-0.483-2.687,0.057-3.811,0.574c-0.421,0.194-1.165,0.196-1.271,0.414c-0.87,1.792-3.195,4.539-7.013,4.539
			c-3.118,0-5.427-0.563-5.427-3.6c0-0.583,1.956-1.957,3.152-4.201c0.993-1.865,0.986-4.534,3.251-5.984
			c1.482-0.948,3.531-0.865,5.551-1.213c0.972-0.167-3.512,0.494-4.818,2.326c-1.429,2.007,0.211,5.288-0.985,7.251
			c-0.444,0.729-1.117,0.664-1.346,1.109c-0.388,0.752,0.076,1.571,2.103,1.571c3.563,0,4.664-2.666,6.443-5.426
			c0.492-0.763-2.429-2.956-1.723-3.39c0.44-0.271,1.686,1.042,2.285,2.372c0.533,1.185,0.419,2.386,0.876,2.495
			c0.44,0.105,2.579-0.075,2.956-0.884c0.601-1.287-0.573-3.496,0.176-3.592c0.273-0.035,0.998,4.589,1.295,4.655
			c0.224,0.049,0.454-2.298,0.688-2.219c0.736,0.247-0.24,2.452,0.555,3.034c1.745,1.277,3.905,1.969,5.892,3.372
			c2.529,1.784,4.78,4.174,5.54,4.462c3.86,1.464,2.977-2.895,4.823-3.781c0.208-0.1,0.007,0.51-0.495,1.467
			c-0.65,1.237-1.657,2.91-1.403,2.846c0.38-0.096,1.055-0.253,1.519-0.653c0.645-0.556,1.089-1.377,1.594-1.342
			c0.489,0.034-0.32,1.159-1.428,1.917c-1.212,0.827-2.739,1.301-2.279,1.54c1.641,0.857,5.716,7.435,8.655,7.047
			c3.141-0.415,1.624-8.607-0.674-14.672c-1.631-4.304-3.952-7.14-3.952-7.14c5.879-0.276,9.743,18.051,9.951,18.492
			C170.233,127.529,165.531,131.936,163.742,132.851z"/>
		<path class="st8" d="M127.455,111.747c0,0.822-1.044,1.754-1.59,1.754c-0.545,0-3.016-0.135-3.016-0.302
			c0-0.166,1.813-2.165,2.359-2.165S127.455,110.816,127.455,111.747z"/>
		<path class="st9" d="M187.061,133.998c-0.161,0.44-19.622,2.908-20.47,2.908c-0.363,0-1.037-0.108-1.428-0.348l0.005-0.253
			c0.218,0.165,0.615,0.337,1.351,0.337c0.671,0,1.48-1.453,1.755-3.28c0.255-1.701,0.184-6.119-0.689-9.216
			c-5.542-19.69-8.731-15.664-8.731-16.056c0-0.469,28.1-6.37,28.948-6.37C188.649,101.721,190.406,124.92,187.061,133.998z"/>
		<path class="st10" d="M76.507,125.324c0-1.872-31.282-42.677-30.041-42.677c1.242,0,70.93,23.557,70.93,25.428
			c0,1.872-8.223,30.017-10.511,30.017C105.644,138.092,76.507,127.195,76.507,125.324z"/>
		<path class="st11" d="M107.683,135.295c-1.241,0-21.589-8.414-21.589-10.285c0-1.511-18.221-4.653-14.796-11.942
			c-0.052-0.006-0.209-5.368-0.25-5.368c-1.241,0.001,5.459,15.753,5.459,17.625s29.137,12.768,30.378,12.768
			c0.483,0,1.122-0.734,3.026-5.242C109.65,133.14,107.854,135.295,107.683,135.295z"/>
	</g>
	<g>
		<g>
			<path class="st12" d="M237.241,183.196c0,19.556-16.877,34.109-16.877,34.109s-16.877-14.553-16.877-34.109
				c0-15.372,7.556-21.557,16.877-21.557C229.684,161.639,237.241,167.824,237.241,183.196z"/>
			<path class="st13" d="M234.484,174.397c0,17.638-14.121,30.764-14.121,30.764s-14.121-13.126-14.121-30.764
				c0-13.864,6.322-19.443,14.121-19.443C228.162,154.954,234.484,160.533,234.484,174.397z"/>
		</g>
		<g>
			<path class="st14" d="M258.389,148.199c0,12.787-7.16,23.769-16.532,23.153c-9.111-0.6-16.532-10.366-16.532-23.153
				c0-12.787,6.74-22.418,15.842-23.153C250.906,124.26,258.389,135.412,258.389,148.199z"/>
			<path class="st15" d="M257.698,148.199c0,12.787-7.401,23.152-16.532,23.153c-9.131,0-16.532-10.366-16.532-23.153
				c0-12.787,7.402-23.153,16.532-23.153C250.297,125.047,257.698,135.412,257.698,148.199z"/>
			<path class="st16" d="M249.483,111.125c0-3.391-18.053-6.14-29.581-6.14c-11.528,0-29.58,2.749-29.58,6.139
				c0,3.391,18.052,6.14,29.58,6.14C231.43,117.265,249.483,114.516,249.483,111.125z"/>
			<path class="st17" d="M247.493,110.944c0-2.339-16.838-4.958-27.591-4.958c-10.752,0-27.59,2.62-27.59,4.958
				s16.838,4.416,27.59,4.416C230.655,115.36,247.493,113.283,247.493,110.944z"/>
			<path class="st14" d="M255.381,147.913c0,9.274-4.688,17.012-10.921,18.801c-0.89,0.256-1.812,0.39-2.756,0.39
				c-7.554,0-13.678-8.592-13.678-19.192c0-10.599,6.124-19.191,13.678-19.191C249.257,128.721,255.381,137.313,255.381,147.913z"/>
			<path class="st17" d="M240.655,128.917c-7.14,1.33-12.629,9.327-12.629,18.995c0,9.668,5.489,17.665,12.629,18.996
				c7.141-1.331,12.629-9.328,12.629-18.996C253.285,138.244,247.796,130.247,240.655,128.917z"/>
			<path class="st18" d="M236.319,130.649c-6.03,3.829-8.293,11.793-8.293,17.263c0,5.481,2.353,13.478,7.913,16.856
				c3.155-2.036,5.793-10.868,5.793-17.281C241.732,141.062,239.483,132.677,236.319,130.649z"/>
			<path class="st18" d="M247.493,110.944c0-2.339-16.838-4.958-27.591-4.958c-10.752,0-27.59,2.62-27.59,4.958
				s16.838,4.416,27.59,4.416C230.655,115.36,247.493,113.283,247.493,110.944z"/>
			<path class="st19" d="M227.466,153.385c0.084,0.477-0.132,0.914-0.48,0.975c-0.349,0.061-0.7-0.276-0.783-0.753
				c-0.083-0.477,0.132-0.914,0.481-0.975C227.032,152.571,227.383,152.908,227.466,153.385z"/>
			<path class="st19" d="M227.082,145.925c-0.041,0.483-0.361,0.85-0.714,0.82c-0.353-0.03-0.606-0.446-0.565-0.928
				c0.041-0.483,0.36-0.85,0.713-0.819C226.87,145.027,227.122,145.443,227.082,145.925z"/>
			<path class="st19" d="M228.633,138.715c-0.154,0.459-0.551,0.741-0.886,0.628c-0.336-0.112-0.484-0.576-0.33-1.035
				c0.154-0.459,0.551-0.74,0.887-0.628C228.639,137.792,228.787,138.255,228.633,138.715z"/>
			<path class="st19" d="M232.241,132.385c-0.266,0.405-0.722,0.576-1.018,0.381c-0.296-0.194-0.32-0.68-0.055-1.085
				c0.266-0.405,0.722-0.575,1.018-0.381C232.482,131.494,232.506,131.98,232.241,132.385z"/>
			<path class="st19" d="M237.783,128.227c-0.461,0.15-0.923-0.001-1.033-0.337c-0.11-0.337,0.174-0.732,0.634-0.883
				c0.46-0.15,0.922,0.001,1.033,0.338C238.527,127.681,238.243,128.076,237.783,128.227z"/>
			<path class="st19" d="M256.105,148.102c0.023,0.436,0.3,0.775,0.619,0.759c0.319-0.017,0.558-0.384,0.535-0.82
				c-0.023-0.435-0.301-0.775-0.619-0.758C256.321,147.3,256.081,147.667,256.105,148.102z"/>
			<path class="st19" d="M255.271,141.258c0.133,0.416,0.488,0.673,0.792,0.575c0.304-0.098,0.442-0.514,0.308-0.929
				c-0.134-0.415-0.489-0.672-0.792-0.575C255.276,140.427,255.137,140.843,255.271,141.258z"/>
			<path class="st19" d="M252.847,135.039c0.228,0.372,0.634,0.538,0.906,0.372c0.272-0.167,0.308-0.604,0.08-0.976
				c-0.228-0.372-0.633-0.538-0.906-0.372C252.655,134.23,252.619,134.667,252.847,135.039z"/>
			<path class="st19" d="M248.86,129.98c0.316,0.302,0.75,0.359,0.97,0.128c0.221-0.231,0.144-0.662-0.171-0.964
				c-0.315-0.301-0.75-0.359-0.97-0.128C248.468,129.247,248.545,129.679,248.86,129.98z"/>
			<path class="st19" d="M243.094,127.619c0.435,0.039,0.81-0.188,0.838-0.505c0.029-0.318-0.301-0.607-0.735-0.646
				c-0.434-0.039-0.81,0.188-0.839,0.506C242.33,127.291,242.659,127.58,243.094,127.619z"/>
			<path class="st19" d="M229.201,158.712c0.205,0.439,0.11,0.916-0.211,1.066c-0.321,0.15-0.748-0.085-0.952-0.524
				c-0.204-0.439-0.11-0.916,0.211-1.066C228.571,158.038,228.997,158.272,229.201,158.712z"/>
			<path class="st19" d="M232.409,163.514c0.4,0.274,0.561,0.733,0.36,1.025c-0.2,0.293-0.687,0.307-1.086,0.033
				c-0.399-0.274-0.561-0.733-0.36-1.025C231.523,163.255,232.009,163.24,232.409,163.514z"/>
			<path class="st19" d="M251.098,163.359c-0.233,0.369-0.202,0.806,0.068,0.976c0.27,0.17,0.678,0.009,0.91-0.36
				c0.232-0.369,0.202-0.806-0.068-0.976C251.738,162.829,251.331,162.99,251.098,163.359z"/>
			<path class="st19" d="M255.81,152.711c-0.06,0.432,0.147,0.818,0.463,0.863c0.317,0.044,0.622-0.27,0.683-0.702
				c0.06-0.432-0.147-0.818-0.463-0.863C256.176,151.965,255.87,152.279,255.81,152.711z"/>
			<path class="st19" d="M254.447,157.603c-0.232,0.369-0.202,0.806,0.068,0.976c0.27,0.17,0.678,0.009,0.91-0.36
				c0.232-0.369,0.202-0.807-0.068-0.977C255.087,157.073,254.68,157.234,254.447,157.603z"/>
			<path class="st19" d="M209.935,154.588c0,0.309-0.274,0.561-0.612,0.561c-0.338,0-0.612-0.251-0.613-0.561
				c0-0.31,0.274-0.561,0.613-0.561C209.662,154.027,209.935,154.278,209.935,154.588z"/>
			<path class="st19" d="M216.448,155.329c0,0.31-0.274,0.561-0.612,0.561c-0.338,0-0.612-0.251-0.612-0.561
				c0-0.31,0.274-0.561,0.612-0.561C216.174,154.769,216.448,155.02,216.448,155.329z"/>
			<path class="st19" d="M223.453,155.33c0,0.31-0.274,0.561-0.613,0.561c-0.338,0-0.612-0.251-0.612-0.561
				c0-0.31,0.274-0.56,0.612-0.561C223.179,154.769,223.453,155.02,223.453,155.33z"/>
			<path class="st19" d="M240.807,122.816c0.126,0.405,0.469,0.659,0.766,0.567c0.296-0.093,0.434-0.496,0.308-0.902
				c-0.127-0.405-0.469-0.658-0.766-0.566C240.819,122.008,240.681,122.411,240.807,122.816z"/>
			<path class="st19" d="M238.892,118.046c0.158,0.394,0.52,0.62,0.808,0.504c0.288-0.115,0.394-0.529,0.236-0.923
				c-0.158-0.394-0.52-0.62-0.808-0.504C238.84,117.239,238.734,117.652,238.892,118.046z"/>
			<path class="st19" d="M259.765,149.548c-0.246-0.021-0.515,0.202-0.6,0.498c-0.085,0.296,0.046,0.552,0.293,0.573
				c0.246,0.021,0.515-0.203,0.6-0.498C260.143,149.825,260.012,149.568,259.765,149.548z"/>
			<path class="st19" d="M196.198,116.843c-0.305-0.053-0.506-0.366-0.448-0.699c0.058-0.333,0.352-0.56,0.657-0.508
				c0.305,0.053,0.506,0.366,0.448,0.699C196.797,116.669,196.503,116.896,196.198,116.843z"/>
			<path class="st19" d="M192.727,127.113c-0.306-0.053-0.506-0.366-0.448-0.699c0.057-0.333,0.351-0.56,0.657-0.508
				c0.305,0.053,0.506,0.366,0.448,0.699C193.326,126.939,193.032,127.166,192.727,127.113z"/>
			<path class="st19" d="M191.531,132.207c-0.305-0.053-0.506-0.366-0.448-0.699c0.058-0.333,0.352-0.56,0.657-0.508
				c0.305,0.053,0.506,0.366,0.448,0.699C192.131,132.033,191.837,132.26,191.531,132.207z"/>
			<path class="st19" d="M194.213,121.824c-0.305-0.053-0.506-0.366-0.447-0.699c0.057-0.333,0.351-0.561,0.657-0.507
				c0.305,0.053,0.506,0.366,0.448,0.699C194.813,121.649,194.519,121.877,194.213,121.824z"/>
			<path class="st20" d="M191.579,174.116c-12.012-45.358,8.192-69.868,28.307-75.856c20.129,5.941,40.39,30.404,28.484,75.79
				c-1.023,3.818-9.529,9.881-28.385,9.904C201.132,183.976,192.61,177.932,191.579,174.116z"/>
			<path class="st21" d="M186.477,165.476c0.003,3.014,21.732,2.366,2.334,2.389c-9.502,0.011-20.739,14.493-21.994,14.495
				c-4.724,0.006-6.869-39.032,18.898-39.062C187.47,143.295,186.464,155.084,186.477,165.476z"/>
			<path class="st9" d="M267.309,147.908c-3.227-2.869-7.505-4.697-13.089-4.691c-1.754,0.002-0.722,11.789-0.71,22.18
				c0.004,3.013-21.726,2.417-2.327,2.394c4.32-0.005,9.007,2.981,12.951,6.24"/>
			<path class="st22" d="M183.772,164.991c-15.31-57.812,10.441-89.055,36.08-96.686c25.657,7.571,51.481,38.753,36.306,96.601
				c-1.303,4.867-12.146,12.595-36.178,12.623C195.948,177.556,185.086,169.854,183.772,164.991z"/>
			<path class="st9" d="M219.886,97.355c11.282-0.013,21.62-2.373,29.66-6.287c-7.808-12.029-18.766-19.538-29.694-22.763
				c-10.92,3.251-21.861,10.786-29.641,22.832C198.261,95.032,208.605,97.368,219.886,97.355z"/>
			<g>
				<path class="st23" d="M182.964,111.503c-0.068,0-0.136,0.013-0.201,0.039c-0.143,0.057-0.253,0.171-0.306,0.315
					c-0.01,0.027-0.26,0.717-0.62,2.375c-1.255,5.792-1.748,11.94-1.748,17.953c0,9.111,1.133,17.913,2.483,24.695
					c0.675,3.391,1.405,6.276,2.078,8.448c0.337,1.087,0.612,2.016,0.958,2.705c0.063,0.125,1.659,1.567,1.677,1.546l0.584,0.448
					l0,0c-0.137-0.148-0.993-1.752-1.267-2.412c-0.982-2.331-2.353-7.263-3.462-13.557c-1.112-6.299-1.972-13.979-1.972-21.873
					c0-5.954,0.489-12.03,1.724-17.724c0.165-0.762,0.306-1.308,0.407-1.669c2.467,1.085,6.242,2.025,10.517,2.729
					c4.435,0.728,9.393,1.188,13.905,1.223c-0.792,4.988-1.132,10.825-1.132,16.881c0,10.169,0.959,20.95,2.369,29.32
					c0.706,4.186,1.522,7.767,2.399,10.385c0.439,1.31,0.892,2.379,1.371,3.179c0.19,0.309,0.335,0.534,0.585,0.818
					c0.052,0.059,1.75,0.096,1.75,0.096c-0.192-0.029-1.001-0.768-1.411-1.469c-0.731-1.212-1.502-3.393-2.208-6.219
					c-2.13-8.491-3.779-22.855-3.777-36.11c0-6.268,0.368-12.293,1.22-17.328c0.026-0.156-0.017-0.316-0.119-0.437
					c-0.102-0.121-0.252-0.191-0.41-0.192h-0.084c-0.001,0-0.002,0-0.003,0c-4.585,0-9.722-0.462-14.28-1.211
					c-4.556-0.745-8.552-1.79-10.787-2.898C183.127,111.522,183.046,111.503,182.964,111.503"/>
			</g>
			<path class="st21" d="M259.456,127.972c0.016,13.634-8.456,24.696-18.924,24.709c-10.468,0.012-18.965-11.031-18.982-24.665
				c-0.016-13.634,8.456-24.698,18.924-24.71C250.943,103.294,259.441,114.338,259.456,127.972z"/>
			<path class="st9" d="M261.085,127.97c0.016,13.634-8.456,24.696-18.924,24.709c-10.467,0.012-18.965-11.03-18.981-24.665
				c-0.016-13.635,8.456-24.696,18.924-24.709C252.571,103.292,261.069,114.335,261.085,127.97z"/>
			<path class="st24" d="M199.372,110.74c-0.02-16.532,7.517-31.479,19.668-42.184c-25.365,8.045-50.416,39.232-35.268,96.435
				c1.314,4.863,12.176,12.566,36.207,12.538c18.365-0.02,29.027-4.539,33.617-8.84c-10.461,6.904-31.315,1.881-33.649-19.123
				c0,0-2.984,1.354-4.37-0.069C205.504,139.152,199.39,125.592,199.372,110.74z"/>
			<path class="st9" d="M223.155,176.245c0.013,10.946-1.401,18.104-3.155,18.106c-1.754,0.002-3.186-7.153-3.198-18.099
				c-0.012-10.946,1.391-26.685,3.145-26.687C221.702,149.563,223.142,165.299,223.155,176.245z"/>
			<path class="st24" d="M257.505,127.974c0.013,10.605-6.577,19.209-14.718,19.218c-8.141,0.01-14.751-8.579-14.763-19.184
				c-0.013-10.604,6.577-19.208,14.718-19.217C250.884,108.781,257.493,117.37,257.505,127.974z"/>
			<path class="st4" d="M240.636,108.988c-7.142,1.34-12.624,9.348-12.613,19.02c0.011,9.674,5.512,17.668,12.657,18.991
				c7.143-1.339,12.624-9.347,12.613-19.02C253.282,118.306,247.781,110.311,240.636,108.988z"/>
			<path class="st25" d="M219.997,194.351c-1.754,0.002-3.185-7.153-3.197-18.099c-0.013-10.945,1.391-26.685,3.145-26.687"/>
			<path class="st26" d="M240.869,110.891c4.544,3.46,7.593,9.818,7.602,17.093c0.008,7.275-3.026,13.64-7.562,17.11
				c6.332-1.336,11.162-8.49,11.153-17.115C252.051,119.356,247.204,112.213,240.869,110.891z"/>
			<g>
				<path d="M197.964,101.625c-0.25,0.001-0.491,0.051-0.725,0.149c-0.319,0.134-0.605,0.354-0.865,0.657
					c-0.26,0.304-0.483,0.687-0.672,1.151c-0.189,0.463-0.327,1-0.411,1.613c-0.169,1.234-0.094,2.224,0.246,2.99
					c0.339,0.762,0.928,1.242,1.767,1.413c0.252,0.05,0.486,0.072,0.705,0.065c0.121-0.005,0.237-0.017,0.349-0.039
					c0.311-0.062,0.555-0.153,0.733-0.273c-0.06-0.483-0.119-0.965-0.178-1.447c-0.068,0.034-0.143,0.069-0.228,0.108
					c-0.085,0.038-0.177,0.068-0.286,0.09c-0.106,0.023-0.229,0.036-0.364,0.042l-0.01,0c-0.134,0.004-0.281-0.009-0.442-0.039
					c-0.264-0.05-0.481-0.157-0.65-0.32c-0.169-0.163-0.296-0.364-0.384-0.603c-0.085-0.239-0.135-0.513-0.148-0.823
					c-0.012-0.309,0.002-0.638,0.046-0.985c0.053-0.434,0.137-0.797,0.249-1.089c0.112-0.292,0.241-0.526,0.388-0.699
					c0.146-0.174,0.305-0.293,0.475-0.356c0.12-0.045,0.239-0.068,0.357-0.069c0.05-0.001,0.101,0.003,0.151,0.011
					c0.252,0.037,0.473,0.114,0.663,0.232c0.191,0.118,0.356,0.251,0.494,0.4c0.15-0.454,0.298-0.909,0.444-1.366
					c-0.034-0.042-0.091-0.103-0.167-0.181c-0.077-0.079-0.176-0.158-0.295-0.238c-0.119-0.079-0.259-0.154-0.421-0.224
					c-0.161-0.071-0.342-0.119-0.545-0.147C198.147,101.63,198.054,101.624,197.964,101.625"/>
				<g>
					<g>
						<path class="st27" d="M200.538,102.097c-0.24,2.619-0.488,5.222-0.742,7.807c0.394,0.066,0.789,0.129,1.184,0.19
							c0.108-1.108,0.214-2.219,0.32-3.332c0.162,0.236,0.323,0.504,0.48,0.806c0.156,0.302,0.305,0.616,0.442,0.943
							c0.137,0.326,0.264,0.65,0.381,0.97c0.115,0.32,0.214,0.617,0.295,0.891c0.47,0.063,0.94,0.123,1.411,0.179
							c-0.277-0.931-0.573-1.786-0.892-2.565c-0.326-0.779-0.673-1.456-1.043-2.034c0.464-0.558,0.906-1.122,1.327-1.69
							c0.426-0.567,0.851-1.167,1.271-1.795c-0.475-0.036-0.95-0.074-1.423-0.112c-0.311,0.437-0.649,0.906-1.019,1.405
							c-0.364,0.5-0.725,0.972-1.079,1.418c0.095-0.989,0.188-1.981,0.281-2.976C201.333,102.168,200.936,102.133,200.538,102.097"
							/>
						<path class="st27" d="M205.789,102.528c-0.252,2.711-0.516,5.412-0.794,8.103c1.246,0.138,2.497,0.25,3.757,0.332
							c0.056-0.516,0.111-1.031,0.165-1.547c-0.86-0.054-1.719-0.119-2.573-0.197c0.067-0.653,0.133-1.306,0.198-1.96
							c0.709,0.059,1.42,0.111,2.133,0.156c0.052-0.504,0.102-1.008,0.152-1.513c-0.714-0.043-1.425-0.093-2.136-0.148
							c0.052-0.533,0.104-1.067,0.155-1.6c0.801,0.058,1.603,0.109,2.41,0.155c0.051-0.517,0.099-1.034,0.148-1.551
							C208.194,102.692,206.99,102.614,205.789,102.528"/>
						<path class="st27" d="M210.009,102.79c-0.049,0.525-0.1,1.05-0.151,1.576c0.54,0.028,1.081,0.053,1.623,0.075
							c-0.219,2.212-0.45,4.42-0.694,6.626c0.402,0.016,0.805,0.027,1.209,0.036c0.247-2.205,0.481-4.411,0.701-6.619
							c0.543,0.017,1.089,0.029,1.635,0.039c0.05-0.523,0.102-1.045,0.152-1.567C212.983,102.922,211.491,102.865,210.009,102.79"/>
					</g>
				</g>
				<g>
					<path d="M186.816,103.067c-0.152-0.009-0.327-0.045-0.524-0.107c-0.099-0.031-0.197-0.063-0.296-0.095
						c0.183-0.593,0.385-1.179,0.606-1.756c0.055,0.011,0.113,0.023,0.175,0.035c0.062,0.013,0.13,0.031,0.205,0.055
						c0.33,0.104,0.555,0.247,0.677,0.432c0.122,0.184,0.128,0.434,0.023,0.753c-0.108,0.332-0.266,0.543-0.478,0.631
						C187.097,103.059,186.968,103.076,186.816,103.067 M186.577,99.763c-0.185-0.032-0.369-0.052-0.556-0.062
						c-0.9,2.052-1.572,4.209-2.001,6.427c0.366,0.134,0.733,0.262,1.101,0.384c0.144-0.831,0.323-1.652,0.536-2.464
						c0.174,0.058,0.35,0.114,0.526,0.169c0.052,0.183,0.102,0.383,0.149,0.603c0.049,0.219,0.097,0.45,0.148,0.694
						c0.052,0.244,0.103,0.493,0.154,0.75c0.051,0.256,0.106,0.508,0.162,0.757c0.09-0.287,0.206-0.574,0.359-0.851
						c0.115-0.208,0.252-0.41,0.413-0.593c0.027-0.031,0.057-0.061,0.086-0.092c-0.042-0.192-0.085-0.381-0.126-0.562
						c-0.057-0.246-0.111-0.465-0.165-0.66c0.329-0.084,0.607-0.252,0.837-0.499c0.232-0.247,0.411-0.601,0.556-1.056
						c0.233-0.73,0.245-1.308,0.016-1.754c-0.232-0.447-0.679-0.771-1.358-0.985c-0.187-0.059-0.405-0.115-0.651-0.167
						C186.701,99.785,186.639,99.773,186.577,99.763"/>
				</g>
				<path class="st21" d="M191.471,107.698c-0.114,0.003-0.228-0.01-0.342-0.041c-1.022-0.277-1.577-1.724-1.265-3.236
					c0.296-1.417,1.21-2.493,2.114-2.5c0.059,0,0.117,0.004,0.175,0.013c0.957,0.143,1.546,1.602,1.293,3.241
					C193.226,106.633,192.373,107.674,191.471,107.698 M192.657,98.982c-1.536,0.541-3.464,2.677-4.043,6.837
					c-1.331,0.253-1.857,2.966-1.57,3.072l0.006,0.001c0.106-0.003,0.911-0.744,1.524-0.814c0.227,0.487,0.879,1.146,2.183,1.535
					c0.511,0.15,0.95,0.203,1.319,0.19c0.572-0.02,0.976-0.196,1.213-0.41c0.543,0.409,0.991,1.669,1.069,1.691l0.015,0.002
					c0.31-0.012,0.856-3.066-0.273-3.943C195.14,102.592,193.962,99.759,192.657,98.982"/>
			</g>
		</g>
	</g>
	<g>
		<path class="st28" d="M6.968,150.438c10.518-5.552,22.856-8.607,36.984-8.607c28.98,0,60.149,13.305,82.547,34.286l-0.053,0.021
			c0.213,0.163,0.379,0.339,0.459,0.568c0.739,2.091-5.205,6.289-13.694,9.523c-7.684,2.937-15.165,3.756-16.523,1.971l-0.03,0.007
			c-18.809-16.161-43.491-26.146-67.408-26.146c-7.315,0-13.959,0.964-19.966,2.775"/>
		<path class="st29" d="M22.628,73.486c11.395,1.845,24.331,5.831,32.239,9.456c14.708,6.808,42.155,28.526,44.245,65.722
			c0.164,2.375-0.424,3.08-1.569,2.419c-0.206-0.104-2.129-1.062-3.423-1.709c-2.336-1.171-5.686-2.545-9.847-4.119
			c-0.522-0.205-1.06-0.378-1.592-0.575c-0.899-0.334-1.838-0.673-2.851-1.053c-5.946-2.095-12.878-3.897-20.736-4.978
			c-1.328-0.169-2.868-0.346-4.591-0.477c-3.232-0.305-6.458-0.48-9.673-0.48c-1.635,0-3.2,0.039-4.786,0.103
			c-1.591,0.086-3.127,0.159-4.566,0.305c-9.244,0.955-14.517,2.732-16.096,3.288c-0.953,0.326-2.034,0.178-2.153-0.68
			c-0.246-1.582,0.353-5.044,0.651-7.206c1.219-9.408,1.843-19.914-1.196-30.833c-1.086-3.933-2.768-7.78-4.576-11.246"/>
	</g>
	<path class="st0" d="M221,241.099l61.415,71.348l0.238,0.254c0.859,0.848,1.908,1.451,2.961,1.806
		c1.058,0.359,2.119,0.493,3.155,0.493c1.666-0.004,3.289-0.338,4.934-0.875c2.463-0.812,4.988-2.104,7.551-3.792
		c2.559-1.689,5.145-3.781,7.631-6.222c3.313-3.258,5.997-6.686,7.923-10.014c0.962-1.667,1.736-3.311,2.291-4.939
		c0.55-1.63,0.896-3.244,0.901-4.912c-0.001-1.037-0.14-2.106-0.513-3.167c-0.369-1.057-0.995-2.102-1.859-2.945l-0.257-0.232
		l-73.143-60.755"/>
	<path class="st30" d="M314.114,297.494c-2.486,2.441-5.072,4.532-7.631,6.222c-2.563,1.688-5.088,2.98-7.551,3.792
		c-1.646,0.537-3.269,0.871-4.934,0.875c-1.036-0.001-2.098-0.135-3.155-0.493c-1.053-0.355-2.101-0.958-2.961-1.806l-0.238-0.254
		l-56.239-64.288c2.552-2.162,5.049-4.42,7.47-6.798c4.096-4.024,7.876-8.241,11.345-12.619l-5.99-4.976L221,241.099l61.415,71.348
		l0.238,0.254c0.859,0.848,1.907,1.451,2.961,1.806c1.058,0.359,2.119,0.493,3.155,0.493c1.666-0.004,3.289-0.338,4.934-0.875
		c2.463-0.812,4.988-2.104,7.552-3.792c2.559-1.689,5.145-3.781,7.631-6.222c2.748-2.703,5.056-5.522,6.865-8.304
		C315.221,296.373,314.68,296.936,314.114,297.494z"/>
	<radialGradient id="SVGID_2_" cx="137" cy="134.5797" r="128.8568" gradientUnits="userSpaceOnUse">
		<stop  offset="0" style="stop-color:#000000;stop-opacity:0"/>
		<stop  offset="1" style="stop-color:#000000"/>
	</radialGradient>
	<path class="st31" d="M228.924,44.28C203.54,19.344,170.27,6.876,137,6.876c-33.27,0-66.54,12.468-91.924,37.403
		c-50.768,49.872-50.768,130.728,0,180.6C70.46,249.815,103.73,262.283,137,262.283c33.27,0,66.539-12.468,91.924-37.403
		C279.692,175.008,279.692,94.151,228.924,44.28z M218.317,214.46c-22.455,22.058-51.886,33.088-81.317,33.088
		s-58.862-11.03-81.318-33.088c-44.91-44.117-44.91-115.644,0-159.761C78.138,32.641,107.569,21.611,137,21.611
		s58.862,11.03,81.317,33.088C263.228,98.816,263.228,170.343,218.317,214.46z"/>
	<path class="st32" d="M137,10.83c33.738,0,65.446,12.896,89.285,36.314c23.786,23.366,36.886,54.418,36.886,87.436
		s-13.099,64.071-36.886,87.437c-23.838,23.417-55.547,36.313-89.285,36.313s-65.446-12.896-89.285-36.313
		C23.929,198.651,10.83,167.598,10.83,134.58s13.1-64.07,36.886-87.436C71.554,23.726,103.262,10.83,137,10.83 M137,0
		c-35.061,0-70.123,13.14-96.874,39.418c-53.502,52.557-53.502,137.767,0,190.324c26.751,26.278,61.813,39.418,96.874,39.418
		s70.122-13.14,96.873-39.418c53.502-52.557,53.502-137.767,0-190.324C207.123,13.14,172.062,0,137,0z"/>
</g>
</svg>
