<?xml version="1.0" encoding="utf-8"?>
<!-- Generator: Adobe Illustrator 24.3.0, SVG Export Plug-In . SVG Version: 6.00 Build 0)  -->
<svg version="1.1" id="Layer_1" xmlns="http://www.w3.org/2000/svg" xmlns:xlink="http://www.w3.org/1999/xlink" x="0px" y="0px"
	 viewBox="0 0 320 283" style="enable-background:new 0 0 320 283;" xml:space="preserve">
<style type="text/css">
	.st0{fill:url(#SVGID_1_);}
	.st1{fill:#EFB192;}
	.st2{fill:#FBC9AA;}
	.st3{fill:url(#SVGID_2_);}
	.st4{fill:url(#SVGID_3_);}
	.st5{fill:#D4704E;}
	.st6{fill:#C45D35;}
	.st7{fill:#D97553;}
	.st8{opacity:0.7;fill:#C45D35;}
	.st9{fill:#A94926;}
	.st10{fill:#683E31;}
	.st11{clip-path:url(#SVGID_5_);}
	.st12{fill:#4F7C41;}
	.st13{fill:url(#SVGID_6_);}
	.st14{fill:url(#SVGID_7_);}
	.st15{fill:url(#SVGID_8_);}
	.st16{fill:url(#SVGID_9_);}
	.st17{fill:url(#SVGID_10_);}
	.st18{opacity:0.5;fill:#6F9E5E;}
	.st19{fill:url(#SVGID_11_);}
	.st20{fill:url(#SVGID_12_);}
	.st21{fill:url(#SVGID_13_);}
	.st22{fill:url(#SVGID_14_);}
	.st23{fill:url(#SVGID_15_);}
	.st24{fill:url(#SVGID_16_);}
	.st25{fill:url(#SVGID_17_);}
	.st26{fill:url(#SVGID_18_);}
	.st27{fill:url(#SVGID_19_);}
	.st28{fill:url(#SVGID_20_);}
	.st29{fill:url(#SVGID_21_);}
	.st30{fill:url(#SVGID_22_);}
	.st31{fill:url(#SVGID_23_);}
	.st32{fill:url(#SVGID_24_);}
	.st33{fill:url(#SVGID_25_);}
	.st34{fill:url(#SVGID_26_);}
	.st35{opacity:0.2;}
	.st36{fill:#D3B694;}
	.st37{fill:#EFD6B4;}
	.st38{fill:#FA5A3A;}
	.st39{fill:#DD4D36;}
	.st40{fill:#FFFFFF;}
	.st41{fill:#FCBF51;}
	.st42{opacity:0;fill:#E5C8A5;}
</style>
<g>
	<linearGradient id="SVGID_1_" gradientUnits="userSpaceOnUse" x1="160" y1="135.0447" x2="160" y2="5.0017">
		<stop  offset="0" style="stop-color:#8BD6F7"/>
		<stop  offset="1" style="stop-color:#44C7F4"/>
	</linearGradient>
	<ellipse class="st0" cx="160" cy="70.023" rx="65" ry="65.022"/>
	<path class="st1" d="M126.836,46.889c0,0.404,4.348,9.254,12.834,19.72c5.419,6.683-4.514,10.685-5.228,11.076
		c-0.533,0.291-5.442-5.36-7.568-11.021c-3.066-8.165-5.584-16.431-6.075-17.004c-4.469-5.214-11.511-6.891-11.511-8.679
		s3.151-2.841,5.708-2.841c0.952,0,2.836,0.386,4.827,1.178c0.902,0.359,2.13-4.159,5.114-4.12c1.299,0.017-1.337,5.782,0.48,7.894
		C126.321,44.144,126.836,45.437,126.836,46.889z"/>
	<path class="st2" d="M126.836,46.889c0,0.404,4.348,9.254,12.834,19.72c5.419,6.683-0.513,10.685-1.227,11.076
		c-0.533,0.291-7.442-5.36-9.569-11.021c-3.066-8.165-6.584-17.431-7.075-18.005c-4.469-5.214-12.512-5.89-12.512-7.679
		s3.151-2.841,5.708-2.841c0.952,0,2.836,0.386,4.827,1.178c0.902,0.359,2.13-4.159,5.114-4.12c1.299,0.017-1.337,5.782,0.48,7.894
		C126.321,44.144,126.836,45.437,126.836,46.889z"/>
	<linearGradient id="SVGID_2_" gradientUnits="userSpaceOnUse" x1="70" y1="277.9984" x2="70" y2="147.9553">
		<stop  offset="0" style="stop-color:#8BD6F7"/>
		<stop  offset="1" style="stop-color:#44C7F4"/>
	</linearGradient>
	<ellipse class="st3" cx="70" cy="212.977" rx="65" ry="65.022"/>
	<linearGradient id="SVGID_3_" gradientUnits="userSpaceOnUse" x1="250" y1="277.9984" x2="250" y2="147.9553">
		<stop  offset="0" style="stop-color:#8BD6F7"/>
		<stop  offset="1" style="stop-color:#44C7F4"/>
	</linearGradient>
	<ellipse class="st4" cx="250" cy="212.977" rx="65" ry="65.022"/>
	<g>
		<g>
			<path class="st5" d="M274.09,271.886c0.009-0.037,10.411,5.255,12.877-5.426c4.506-19.516,10.861-47.075,10.836-47.144
				c-1.005-2.787-28.946,3.183-45.959,3.183c-16.884,0-48.617-5.105-49.811-2.348c-0.036,0.082,6.269,26.808,10.856,46.212
				c2.61,11.039,15.762,8.294,15.776,8.339c1.461,4.712,5.225,3.295,22.893,3.295C269.224,277.998,273.115,275.783,274.09,271.886z"
				/>
			<path class="st6" d="M249.569,259.011c-1.649-10.409-3.557-25.328-3.167-27.552c0.543-3.099,36.458,0.042,50.863-9.729
				c13.973-9.477-94.038-4.335-95.232-1.578c-0.036,0.082,6.269,26.808,10.856,46.212c2.61,11.039,43.034,13.274,43.034,13.274
				C253.393,274.895,251.037,268.276,249.569,259.011z"/>
			<path class="st7" d="M300.984,218.545c0-0.173,1.191-17.251,1.13-17.421c-1.603-4.441-24.998,3.919-52.113,3.919
				c-26.908,0-50.211-8.312-52.114-3.919c-0.088,0.203,1.13,17.213,1.13,17.421c0,4.682,22.827,8.477,50.983,8.477
				C278.158,227.022,300.984,223.227,300.984,218.545z"/>
			<path class="st8" d="M246.819,214.961c0-10.725,10.049-20.683,13.395-11.389c-1.603-4.442,16.902,1.471-10.212,1.471
				c-26.908,0-50.211-8.312-52.114-3.919c-0.088,0.203,1.13,17.213,1.13,17.421c0,4.682,22.827,8.477,50.983,8.477
				C250.002,227.022,246.819,225.002,246.819,214.961z"/>
			<path class="st6" d="M302.114,201.124c0-4.314-23.332-7.81-52.113-7.81c-28.782,0-52.114,3.496-52.114,7.81
				c0,4.312,23.332,7.81,52.114,7.81C278.783,208.934,302.114,205.436,302.114,201.124z"/>
			<path class="st9" d="M299.729,200.615c0-3.542-22.262-6.418-49.727-6.418c-27.466,0-49.728,2.875-49.728,6.418
				c0,3.543,22.262,6.419,49.728,6.419C277.467,207.034,299.729,204.158,299.729,200.615z"/>
			<path class="st10" d="M206.097,203.63c8.365,2.025,24.885,3.404,43.905,3.404c19.018,0,35.538-1.379,43.903-3.404
				c-8.364-2.023-24.885-3.403-43.903-3.403C230.982,200.227,214.462,201.606,206.097,203.63z"/>
		</g>
		<g>
			<defs>
				<path id="SVGID_4_" d="M293.903,203.63c-8.365,2.025-24.885,3.404-43.905,3.404c-19.018,0-35.539-1.379-43.903-3.404
					c-1.944,0.47-3.998-30.322,0-30.322c11.003,0,22.145,0,43.632,0C291.746,173.307,309.058,207.295,293.903,203.63z"/>
			</defs>
			<clipPath id="SVGID_5_">
				<use xlink:href="#SVGID_4_"  style="overflow:visible;"/>
			</clipPath>
			<g class="st11">
				<g>
					
						<ellipse transform="matrix(1 -0.0029 0.0029 1 -0.7154 0.6799)" class="st12" cx="237.976" cy="251.101" rx="6.576" ry="6.578"/>
					
						<linearGradient id="SVGID_6_" gradientUnits="userSpaceOnUse" x1="1052.4803" y1="-471.9008" x2="1133.4141" y2="-518.6279" gradientTransform="matrix(0.4906 -0.8714 0.8714 0.4906 133.0348 1417.3584)">
						<stop  offset="0" style="stop-color:#2C4524"/>
						<stop  offset="1" style="stop-color:#4F7C41"/>
					</linearGradient>
					<polygon class="st13" points="260.044,175.026 261.192,268.407 215.193,268.973 214.044,175.592 					"/>
					
						<linearGradient id="SVGID_7_" gradientUnits="userSpaceOnUse" x1="1050.0399" y1="-495.264" x2="1135.8545" y2="-495.264" gradientTransform="matrix(0.4906 -0.8714 0.8714 0.4906 133.0348 1417.3584)">
						<stop  offset="0.2221" style="stop-color:#4F7C41"/>
						<stop  offset="1" style="stop-color:#6F9E5E"/>
					</linearGradient>
					<path class="st14" d="M257.704,256.115c0.016,0,0.032,0.001,0.048,0.001l-0.845-68.715c-4.994,0.061-9.092-3.938-9.153-8.933
						l-21.34,0.263c0.061,4.995-3.937,9.095-8.931,9.156l0.845,68.714c4.994-0.061,9.092,3.938,9.153,8.933l21.292-0.262
						C248.712,260.275,252.711,256.176,257.704,256.115z"/>
					
						<linearGradient id="SVGID_8_" gradientUnits="userSpaceOnUse" x1="1111.5514" y1="-509.852" x2="1124.7095" y2="-509.852" gradientTransform="matrix(0.4906 -0.8714 0.8714 0.4906 133.0348 1417.3584)">
						<stop  offset="0" style="stop-color:#3D6032"/>
						<stop  offset="0.7522" style="stop-color:#466E3A"/>
					</linearGradient>
					<path class="st15" d="M237.179,186.321c3.632-0.045,6.612,2.864,6.657,6.497c0.045,3.633-2.863,6.614-6.495,6.659
						c-3.632,0.045-6.612-2.864-6.657-6.497C230.64,189.347,233.548,186.365,237.179,186.321z"/>
					
						<linearGradient id="SVGID_9_" gradientUnits="userSpaceOnUse" x1="1078.1444" y1="-495.2643" x2="1107.75" y2="-495.2643" gradientTransform="matrix(0.4906 -0.8714 0.8714 0.4906 133.0348 1417.3584)">
						<stop  offset="0" style="stop-color:#3D6032"/>
						<stop  offset="0.7522" style="stop-color:#466E3A"/>
					</linearGradient>
					<ellipse class="st16" cx="237.618" cy="222" rx="14.797" ry="14.802"/>
					<g>
						
							<linearGradient id="SVGID_10_" gradientUnits="userSpaceOnUse" x1="1041.0131" y1="-495.2643" x2="1144.8813" y2="-495.2643" gradientTransform="matrix(0.4906 -0.8714 0.8714 0.4906 133.0348 1417.3584)">
							<stop  offset="0.2221" style="stop-color:#4F7C41"/>
							<stop  offset="1" style="stop-color:#6F9E5E"/>
						</linearGradient>
						<path class="st17" d="M259.861,267.108l-43.369,0.534l-1.116-90.75l43.369-0.534L259.861,267.108 M214.044,175.592
							l1.148,93.381l45.999-0.566l-1.148-93.381L214.044,175.592"/>
					</g>
					
						<ellipse transform="matrix(1 -0.0031 0.0031 1 -0.5877 0.7251)" class="st18" cx="237.26" cy="192.899" rx="4.932" ry="4.934"/>
					<ellipse class="st18" cx="237.618" cy="222" rx="13.153" ry="13.157"/>
				</g>
				<g>
					
						<ellipse transform="matrix(1 -0.0018 0.0018 1 -0.4547 0.4407)" class="st12" cx="244.223" cy="252.473" rx="6.576" ry="6.578"/>
					
						<linearGradient id="SVGID_11_" gradientUnits="userSpaceOnUse" x1="726.4363" y1="-332.8305" x2="807.3649" y2="-379.5546" gradientTransform="matrix(0.7071 -0.7071 0.7071 0.7071 -38.7017 1018.4979)">
						<stop  offset="0" style="stop-color:#2C4524"/>
						<stop  offset="1" style="stop-color:#4F7C41"/>
					</linearGradient>
					<polygon class="st19" points="285.956,185.154 261.922,275.395 217.47,263.548 241.503,173.307 					"/>
					
						<linearGradient id="SVGID_12_" gradientUnits="userSpaceOnUse" x1="723.9967" y1="-356.1923" x2="809.8045" y2="-356.1923" gradientTransform="matrix(0.7071 -0.7071 0.7071 0.7071 -38.7017 1018.4979)">
						<stop  offset="0.2221" style="stop-color:#4F7C41"/>
						<stop  offset="1" style="stop-color:#6F9E5E"/>
					</linearGradient>
					<path class="st20" d="M261.873,262.617c0.016,0.004,0.031,0.009,0.046,0.014l17.685-66.404
						c-4.826-1.286-7.695-6.242-6.41-11.069l-20.622-5.496c-1.286,4.827-6.24,7.698-11.065,6.412l-17.685,66.403
						c4.826,1.286,7.695,6.242,6.41,11.069l20.576,5.484C252.093,264.201,257.047,261.331,261.873,262.617z"/>
					
						<linearGradient id="SVGID_13_" gradientUnits="userSpaceOnUse" x1="785.5035" y1="-370.7821" x2="798.6605" y2="-370.7821" gradientTransform="matrix(0.7071 -0.7071 0.7071 0.7071 -38.7017 1018.4979)">
						<stop  offset="0" style="stop-color:#3D6032"/>
						<stop  offset="0.7522" style="stop-color:#466E3A"/>
					</linearGradient>
					<path class="st21" d="M260.895,189.872c3.51,0.935,5.597,4.54,4.662,8.05c-0.935,3.511-4.538,5.599-8.048,4.663
						c-3.51-0.935-5.597-4.54-4.662-8.05C253.783,191.024,257.386,188.937,260.895,189.872z"/>
					
						<linearGradient id="SVGID_14_" gradientUnits="userSpaceOnUse" x1="752.0991" y1="-356.1926" x2="781.7021" y2="-356.1926" gradientTransform="matrix(0.7071 -0.7071 0.7071 0.7071 -38.7017 1018.4979)">
						<stop  offset="0" style="stop-color:#3D6032"/>
						<stop  offset="0.7522" style="stop-color:#466E3A"/>
					</linearGradient>
					<ellipse class="st22" cx="251.713" cy="224.351" rx="14.797" ry="14.802"/>
					<g>
						
							<linearGradient id="SVGID_15_" gradientUnits="userSpaceOnUse" x1="714.9708" y1="-356.1925" x2="818.8304" y2="-356.1925" gradientTransform="matrix(0.7071 -0.7071 0.7071 0.7071 -38.7017 1018.4979)">
							<stop  offset="0.2221" style="stop-color:#4F7C41"/>
							<stop  offset="1" style="stop-color:#6F9E5E"/>
						</linearGradient>
						<path class="st23" d="M260.99,273.785l-41.91-11.169l23.356-87.698l41.91,11.169L260.99,273.785 M241.503,173.308
							l-24.033,90.241l44.452,11.846l24.033-90.241L241.503,173.308"/>
					</g>
					
						<ellipse transform="matrix(1 -0.0026 0.0026 1 -0.5172 0.6851)" class="st18" cx="259.202" cy="196.229" rx="4.932" ry="4.934"/>
					
						<ellipse transform="matrix(1 -0.0011 0.0011 1 -0.2528 0.2839)" class="st18" cx="251.713" cy="224.351" rx="13.153" ry="13.157"/>
				</g>
			</g>
		</g>
	</g>
	<linearGradient id="SVGID_16_" gradientUnits="userSpaceOnUse" x1="20.0089" y1="224.9162" x2="73.7644" y2="224.9162">
		<stop  offset="0" style="stop-color:#3D6032"/>
		<stop  offset="1" style="stop-color:#4F7C41"/>
	</linearGradient>
	<polygon class="st24" points="73.764,253.804 20.009,240.798 20.009,196.029 73.764,206.033 	"/>
	<linearGradient id="SVGID_17_" gradientUnits="userSpaceOnUse" x1="73.7644" y1="217.8775" x2="130.8699" y2="217.8775">
		<stop  offset="0" style="stop-color:#436A37"/>
		<stop  offset="1" style="stop-color:#38582E"/>
	</linearGradient>
	<polygon class="st25" points="129.744,181.951 73.764,206.033 73.764,206.907 73.764,208.033 73.764,209.125 73.764,210.181 
		73.764,211.096 73.764,212.012 73.764,213.082 73.764,213.983 73.764,214.899 73.764,216.307 73.764,217.011 73.764,217.878 
		73.764,218.983 73.764,219.687 73.764,220.673 73.764,221.658 73.764,222.363 73.764,223.499 73.764,224.916 73.764,225.883 
		73.764,227.291 73.764,228.066 73.764,228.981 73.764,229.967 73.764,231.094 73.764,232.291 73.764,232.924 73.764,233.91 
		73.764,235.319 73.764,236.093 73.764,236.727 73.764,237.642 73.764,238.598 73.764,239.543 73.764,240.811 73.764,241.867 
		73.764,242.923 73.764,244.191 73.764,244.895 73.764,246.162 73.764,247.007 73.764,247.852 73.764,248.697 73.764,249.331 
		73.764,250.246 73.764,251.161 73.764,252.077 73.764,252.922 73.764,253.804 130.87,228.893 	"/>
	<g>
		
			<linearGradient id="SVGID_18_" gradientUnits="userSpaceOnUse" x1="419.9278" y1="138.8383" x2="420.9281" y2="138.8383" gradientTransform="matrix(0.1422 -35.6082 -35.6082 -0.1422 4959.4375 15178.5791)">
			<stop  offset="0" style="stop-color:#4A743D"/>
			<stop  offset="1" style="stop-color:#4F7C41"/>
		</linearGradient>
		<path class="st26" d="M96.447,173.23c2.802,0,5.661-0.287,7.184-0.84c8.029,1.166,13.15,1.9,23.267,3.352
			c-2.925,1.175-2.722,2.958,3.04,3.906c-1.515,0.622-1.03,1.244-2.545,1.866c-15.605,6.403-31.22,12.78-46.836,19.155l-0.057-0.012
			c-2.242-0.438-4.865-0.652-7.522-0.652c-4.487,0-9.071,0.611-12.072,1.785c-10.942-2.072-16.746-3.17-25.819-4.899
			c5.292-1.867,5.034-4.154,1.056-4.967c18.442-6.316,36.868-12.675,55.284-19.066C92.82,173.108,94.622,173.23,96.447,173.23
			 M95.159,170.445c-25.003,8.523-49.985,17.099-75.016,25.539c17.775,3.343,35.553,6.666,53.331,9.995
			c18.218-7.527,36.436-15.054,54.655-22.58c5.181-2.14,2.038-8.239-4.714-9.149C113.996,172.981,104.577,171.713,95.159,170.445"/>
		
			<linearGradient id="SVGID_19_" gradientUnits="userSpaceOnUse" x1="415.271" y1="150.5996" x2="416.2711" y2="150.5996" gradientTransform="matrix(32.4674 -55.7203 -55.7203 -32.4674 -5025.2681 28243.5566)">
			<stop  offset="0" style="stop-color:#699758"/>
			<stop  offset="1" style="stop-color:#6F9E5E"/>
		</linearGradient>
		<path class="st27" d="M60.502,196.874c-1.926,0-3.831-0.15-5.443-0.465c-4.341-0.846-4.644-2.546-1.166-3.802
			c2.186-0.79,5.28-1.217,8.305-1.217c1.789,0,3.553,0.149,5.091,0.462c4.139,0.842,5.13,2.538,1.852,3.799
			C67.081,196.444,63.762,196.874,60.502,196.874 M87.306,190.668c-4.521,0-9.062-0.509-13.274-1.336
			c-9.019-1.773-8.756-5.239-2.206-7.545c3.898-1.372,8.984-2.095,14.282-2.095c3.607,0,7.311,0.335,10.808,1.028
			c8.635,1.712,11.752,5.298,5.754,7.504C97.961,189.958,92.647,190.668,87.306,190.668 M107.503,179.209
			c-1.825,0-3.735-0.151-5.383-0.461c-3.843-0.725-4.755-1.979-2.545-2.794c1.271-0.469,3.318-0.713,5.573-0.713
			c1.666,0,3.445,0.133,5.111,0.405c3.921,0.641,5.547,1.884,3.26,2.782C112.212,178.941,109.933,179.209,107.503,179.209
			 M103.631,172.391c-1.522,0.552-4.382,0.84-7.184,0.84c-1.826,0-3.627-0.122-5.02-0.372c-18.416,6.391-36.842,12.75-55.284,19.066
			c3.978,0.813,4.236,3.1-1.056,4.967c9.073,1.729,14.877,2.827,25.819,4.899c3.002-1.174,7.585-1.785,12.072-1.785
			c2.657,0,5.28,0.214,7.522,0.652l0.057,0.012c15.617-6.374,31.231-12.752,46.836-19.155c1.515-0.622,1.03-1.244,2.545-1.866
			c-5.761-0.948-5.965-2.73-3.04-3.906C116.782,174.291,111.66,173.557,103.631,172.391"/>
		
			<linearGradient id="SVGID_20_" gradientUnits="userSpaceOnUse" x1="494.0953" y1="135.5585" x2="495.0953" y2="135.5585" gradientTransform="matrix(4.2169 -7.2371 -7.2371 -4.2169 -998.1609 4328.3076)">
			<stop  offset="0" style="stop-color:#3D6032"/>
			<stop  offset="0.7522" style="stop-color:#466E3A"/>
			<stop  offset="1" style="stop-color:#466E3A"/>
		</linearGradient>
		<path class="st28" d="M107.206,178.684c-1.358,0-2.782-0.112-4.019-0.342c-2.886-0.537-3.652-1.478-1.988-2.096
			c0.956-0.356,2.515-0.54,4.225-0.54c1.268,0,2.619,0.102,3.867,0.31c2.929,0.489,4.098,1.423,2.39,2.09
			C110.705,178.485,109.014,178.684,107.206,178.684 M105.148,175.241c-2.255,0-4.302,0.243-5.573,0.713
			c-2.21,0.815-1.298,2.069,2.545,2.794c1.648,0.311,3.558,0.461,5.383,0.461c2.43,0,4.709-0.267,6.015-0.78
			c2.287-0.898,0.661-2.141-3.26-2.782C108.593,175.374,106.813,175.241,105.148,175.241"/>
		
			<linearGradient id="SVGID_21_" gradientUnits="userSpaceOnUse" x1="438.676" y1="146.1241" x2="439.676" y2="146.1241" gradientTransform="matrix(10.8616 -18.6406 -18.6406 -10.8616 -1959.8669 9959.0742)">
			<stop  offset="0" style="stop-color:#3D6032"/>
			<stop  offset="0.7522" style="stop-color:#466E3A"/>
			<stop  offset="1" style="stop-color:#466E3A"/>
		</linearGradient>
		<path class="st29" d="M86.493,189.815c-3.863,0-7.784-0.326-11.067-1.006c-8.042-1.664-8.024-4.662-2.222-6.719
			c3.442-1.219,8.039-1.862,12.813-1.862c3.272,0,6.627,0.302,9.751,0.926c7.68,1.536,10.475,4.511,5.026,6.687
			C97.569,189.129,92.093,189.815,86.493,189.815 M86.108,179.692c-5.298,0-10.384,0.723-14.282,2.095
			c-6.551,2.307-6.814,5.772,2.206,7.545c4.212,0.827,8.753,1.336,13.274,1.336c5.341,0,10.654-0.71,15.365-2.444
			c5.997-2.207,2.881-5.792-5.754-7.504C93.419,180.026,89.715,179.692,86.108,179.692"/>
		
			<linearGradient id="SVGID_22_" gradientUnits="userSpaceOnUse" x1="413.1582" y1="151.0475" x2="414.0696" y2="151.0475" gradientTransform="matrix(39.5738 -67.9163 -67.9163 -39.5738 -6033.5225 34255.8203)">
			<stop  offset="0" style="stop-color:#699758"/>
			<stop  offset="1" style="stop-color:#6F9E5E"/>
		</linearGradient>
		<path class="st30" d="M73.074,205.178c-16.813-3.162-33.629-6.317-50.438-9.504c24.307-8.234,48.573-16.583,72.847-24.912
			c9.894,1.383,19.789,2.753,29.684,4.121c3.37,0.466,7.32,5.846,3.935,7.241C110.43,189.818,91.752,197.499,73.074,205.178
			 M95.159,170.445c-25.002,8.523-49.985,17.099-75.016,25.539c17.775,3.343,35.844,6.72,53.622,10.05
			c18.218-7.527,36.145-15.108,54.364-22.634c5.181-2.14,2.038-8.239-4.714-9.149C113.996,172.981,104.577,171.713,95.159,170.445"
			/>
		
			<linearGradient id="SVGID_23_" gradientUnits="userSpaceOnUse" x1="494.0953" y1="135.5683" x2="495.0953" y2="135.5683" gradientTransform="matrix(4.2169 -7.2371 -7.2371 -4.2169 -998.1609 4328.3076)">
			<stop  offset="0" style="stop-color:#567F48"/>
			<stop  offset="0.7522" style="stop-color:#5B864C"/>
			<stop  offset="1" style="stop-color:#5B864C"/>
		</linearGradient>
		<path class="st31" d="M105.423,175.705c-1.709,0-3.269,0.185-4.225,0.54c-1.664,0.618-0.898,1.559,1.988,2.096
			c1.237,0.23,2.661,0.342,4.019,0.342c1.808,0,3.499-0.198,4.474-0.578c1.708-0.666,0.539-1.6-2.39-2.09
			C108.043,175.807,106.692,175.705,105.423,175.705"/>
		
			<linearGradient id="SVGID_24_" gradientUnits="userSpaceOnUse" x1="438.676" y1="146.1309" x2="439.676" y2="146.1309" gradientTransform="matrix(10.8616 -18.6406 -18.6406 -10.8616 -1959.8669 9959.0742)">
			<stop  offset="0" style="stop-color:#567F48"/>
			<stop  offset="0.7522" style="stop-color:#5B864C"/>
			<stop  offset="1" style="stop-color:#5B864C"/>
		</linearGradient>
		<path class="st32" d="M86.017,180.229c-4.774,0-9.371,0.642-12.813,1.862c-5.801,2.056-5.82,5.054,2.222,6.719
			c3.283,0.679,7.204,1.006,11.067,1.006c5.6,0,11.076-0.686,14.301-1.973c5.449-2.176,2.654-5.151-5.026-6.687
			C92.644,180.53,89.289,180.229,86.017,180.229"/>
		
			<linearGradient id="SVGID_25_" gradientUnits="userSpaceOnUse" x1="428.9667" y1="182.9894" x2="429.9667" y2="182.9894" gradientTransform="matrix(19.5682 0.2907 0.2907 -19.5682 -8395.7598 3650.0466)">
			<stop  offset="0" style="stop-color:#3D6032"/>
			<stop  offset="0.7522" style="stop-color:#466E3A"/>
			<stop  offset="1" style="stop-color:#466E3A"/>
		</linearGradient>
		<path class="st33" d="M60.699,196.171c-1.436,0-2.856-0.113-4.06-0.349c-3.235-0.635-3.543-1.912-0.953-2.854
			c1.626-0.591,3.971-0.911,6.263-0.911c1.359,0,2.7,0.113,3.862,0.348c3.122,0.632,3.817,1.907,1.339,2.851
			C65.595,195.85,63.123,196.171,60.699,196.171 M62.198,191.39c-3.025,0-6.119,0.428-8.305,1.217
			c-3.479,1.256-3.175,2.956,1.166,3.802c1.612,0.315,3.517,0.465,5.443,0.465c3.259,0,6.578-0.43,8.638-1.223
			c3.278-1.261,2.287-2.957-1.852-3.799C65.751,191.54,63.987,191.39,62.198,191.39"/>
		
			<linearGradient id="SVGID_26_" gradientUnits="userSpaceOnUse" x1="428.9667" y1="182.9903" x2="429.9667" y2="182.9903" gradientTransform="matrix(19.5682 0.2907 0.2907 -19.5682 -8395.7598 3650.0466)">
			<stop  offset="0" style="stop-color:#567F48"/>
			<stop  offset="0.7522" style="stop-color:#5B864C"/>
			<stop  offset="1" style="stop-color:#5B864C"/>
		</linearGradient>
		<path class="st34" d="M61.949,192.057c-2.293,0-4.638,0.32-6.263,0.911c-2.59,0.942-2.282,2.219,0.953,2.854
			c1.203,0.236,2.623,0.349,4.06,0.349c2.425,0,4.897-0.322,6.452-0.916c2.477-0.944,1.782-2.219-1.339-2.851
			C64.649,192.169,63.309,192.057,61.949,192.057"/>
	</g>
	<polygon class="st35" points="73.764,253.804 20.009,240.798 20.009,196.029 21.759,197.029 73.764,206.907 73.764,208.033 
		20.759,197.853 73.764,209.034 73.764,210.125 20.759,199.176 73.764,211.096 73.764,212.012 21.759,202.077 73.764,213.983 
		73.764,214.899 21.759,204.302 73.764,217.011 73.764,217.878 21.759,205.977 73.764,219.687 73.764,220.673 21.759,208.653 
		73.764,222.363 73.764,223.499 21.759,211.911 73.764,225.883 73.764,227.291 21.759,215.06 73.764,228.981 73.764,229.967 
		21.759,218.088 73.764,231.29 73.764,232.608 25.76,220.919 73.764,233.558 73.764,234.911 21.759,222.313 73.764,236.093 
		73.764,236.727 21.759,224.637 73.764,238.598 73.764,239.543 21.759,227.805 73.764,241.867 73.764,242.923 21.759,231.185 
		73.764,244.895 73.764,246.162 21.759,234.002 73.764,247.852 73.764,248.697 21.759,236.325 73.764,250.246 73.764,251.161 
		21.759,239.071 73.764,252.922 	"/>
	<polygon class="st35" points="129.744,181.951 125.989,185.043 109.836,191.806 109.37,189.718 59.819,182.436 107.688,191.934 
		107.696,192.702 73.764,206.907 73.764,208.033 107.986,193.637 107.986,238.657 109.666,237.345 110.01,192.786 131.816,183.613 
		131.853,183.783 73.764,209.125 73.764,210.181 132.484,185.361 132.554,185.478 73.764,211.096 73.764,212.012 133.253,187.417 
		133.312,187.688 73.764,213.983 73.764,214.899 134.219,190.197 134.247,190.473 73.764,217.011 73.764,217.878 134.801,192.674 
		134.853,192.883 73.764,219.687 73.764,220.673 135.283,195.165 135.278,195.372 73.764,222.363 73.764,223.499 136.084,198.043 
		136.099,198.298 73.764,225.883 73.764,227.291 136.545,201.071 136.584,201.228 73.764,228.981 73.764,229.967 136.568,204.053 
		136.468,204.232 73.764,231.29 73.764,232.608 136.771,205.913 73.764,233.558 73.764,234.911 137.085,208.133 136.887,208.333 
		73.764,236.093 73.764,236.727 137.296,210.321 137.267,210.506 73.764,238.598 73.764,239.543 137.608,213.329 137.548,213.56 
		73.764,241.867 73.764,242.923 137.732,216.657 137.686,216.848 73.764,244.895 73.764,246.162 137.916,219.434 137.878,219.592 
		73.764,247.852 73.764,248.697 137.682,221.873 137.627,222.032 73.764,250.246 73.764,251.161 137.264,224.769 137.248,224.939 
		73.764,252.922 73.764,253.804 130.87,228.893 	"/>
	<polygon class="st36" points="118.2,234.42 108.533,238.637 108.533,191.583 101.044,187.707 118.2,187.566 	"/>
	<polygon class="st37" points="68.252,179.557 118.2,187.566 108.533,191.583 59.819,182.436 	"/>
	<path class="st38" d="M167.364,76.396c0,0.4,7.248,2.998,22.734-6.963l0,0c0,0,5.844,12.818,9.364,7.567
		c0,0,0.837,5.448-2.986,8.929c-2.916,2.655-9.635,5.331-10.157,6.513c-9.549,21.588-8.922,39.916-13.55,44.255
		c-0.937,0.879-34.047-2.619-34.783-2.572c-1.24,0.079-3.268-18.949-2.569-33.762c0.381-8.058,1.663-14.107,1.494-14.296
		c-3.46-3.871-8.207-9.53-8.207-13.248c0-3.718,9.715-9.717,12.134-6.921c0,0,5.071,5.553,7.26,7.266
		C157.1,80.205,167.364,74.598,167.364,76.396z"/>
	<path class="st39" d="M194.737,84.822c-3.379-1.532-8.681-12.178-4.639-15.388l0,0c0,0,5.844,12.818,9.364,7.567
		c0,0,0.837,5.448-2.986,8.929c-2.916,2.655-9.635,5.331-10.157,6.513c-9.549,21.588-8.922,39.916-13.55,44.255
		c-0.937,0.879-34.047-2.619-34.783-2.572c-1.24,0.079-3.268-18.949-2.569-33.762c0.381-8.058,1.663-14.107,1.494-14.296
		c-3.46-3.871-8.207-9.53-8.207-13.248c0-1.124,0.888-2.457,2.195-3.693c0,0,2.787,8.232,10.382,16.306
		c0,0-1.281,40.746,3.104,48.444c0.267,0.469,16.961,12.466,26.094-0.101c3.441-4.736,6.737-40.207,11.124-42.078
		C190.795,87.779,195.317,85.085,194.737,84.822z"/>
	<path class="st10" d="M175.627,53.303c1.162,2.574,0.15,13.89-8.706,19.208c-3.449,2.071-10.082-20.724-12.251-22.531
		c-2.556-2.13,2.281-6.477,6.304-6.477c2.343,0,4.76,1.239,6.37,2.832C168.499,47.476,172.281,45.889,175.627,53.303z"/>
	<path class="st2" d="M167.364,76.396c0,0-10.917,8.956-15.858,4.61c-3.058-2.69,0.211-0.457-0.247-4.654
		c-0.309-2.826,0.101-3.069-0.503-6.101c-0.442-2.216-5.526-7.069-5.526-8.085c0-1.678,1.185-3.78,2.972-6.511
		c0.744-1.138-0.575-2.734,0.689-3.445c4.693-2.641,5.185-4.371,5.185-4.371c1.99-1.191,3.988-1.949,5.366-1.949
		c0.659,0,1.559,1.512,2.898,2.331c0.9,0.55,2.332,0.124,2.777,1.209c1.154,2.811-0.045,7.534,1.383,10.161
		c1.237,2.275,4.576-0.012,4.848,2.629c0.231,2.241-2.685,4.595-3.448,6.812C166.367,73.483,167.364,75.086,167.364,76.396z"/>
	<path class="st1" d="M167.364,76.396c0,0-13.918,13.958-18.859,9.612c-3.058-2.69,0.628-5.53,1.753-9.657
		c0.747-2.743,1.102-3.069,0.497-6.101c-0.442-2.216-5.526-7.069-5.526-8.085c0-1.678,11.075,7.858,17.771,4.203
		c1.193-0.651,2.251,2.402,3.628,1.945c2.846-0.945,4.719-6.095,4.719-6.095c0.231,2.241-2.685,4.595-3.448,6.812
		C166.367,73.483,167.364,75.086,167.364,76.396z"/>
	<path class="st1" d="M223.695,58.073c-6.168,4.38-13.205,9.796-17.237,14.608c-4.639,5.537-10.712,9.657-11.628,10.39
		c-2.516,2.014-9.151-10.427-4.733-13.637c0.373-0.271,6.979-3.917,7.922-4.695c4.685-3.861,14.136-10.365,22.783-15.903
		C220.803,48.836,228.598,54.591,223.695,58.073z"/>
	<path class="st2" d="M223.389,55.581c-6.327,4.462-13.746,10.105-17.93,15.099c-4.639,5.537-9.712,9.657-10.628,10.39
		c-2.516,2.014-9.151-8.426-4.733-11.636c0.373-0.271,6.979-3.917,7.922-4.695c4.685-3.861,14.136-10.365,22.783-15.903
		C229.449,43.298,223.389,55.581,223.389,55.581z"/>
	<path class="st40" d="M145.317,37.854c-1.971,1.922-6.371,0.969-9.432,0.392c-0.828-0.156-0.757-0.675-1.599-1.381
		c-1.431-1.201-3.609-2.944-3.609-4.376c0-1.158-4.399-7.393-2.753-9.957c0.136-0.212,1.32,0.356,2.535,1.964
		c1.231,1.629,2.494,4.298,2.733,4.197c0.493-0.208,1.034-0.324,1.603-0.324c0.41,0,2.511-2.495,5.654-4.877
		c3.214-2.436,7.471-4.755,7.938-4.168c0.924,1.16-9.069,13.686-7.901,15.131C141.354,35.529,145.758,37.424,145.317,37.854z"/>
	<path class="st40" d="M197.981,15.295c0,0.688-3.24,5.865-6.079,8.617c-1.468,1.422-1.887,4.371-3.222,5.292
		c-1.582,1.092-4.047,0.148-5.335,1.916c-0.902,1.238,5.58,1.369,5.241,2.371c-1.015,3.005-7.411,5.838-10.69,5.838
		c-2.521,0-7.96-1.576-7.797-3.733c0.114-1.51,6.033-3.304,4.563-5.041c-1.512-1.787-4.854-1.583-7.317-3.244
		c-5.018-3.384-9.533-8.202-9.533-9.2c0-1.809,12.717,4.245,18.2,4.457c2.533,0.098,1.041-2.016,4.137-2.016
		c1.225,0,1.643,2.38,2.579,1.666C187.094,18.892,197.981,12.981,197.981,15.295z"/>
	<g>
		<path class="st41" d="M250,152.955c33.083,0,59.998,26.925,59.998,60.021c0,33.096-26.915,60.021-59.998,60.021
			c-33.083,0-59.999-26.926-59.999-60.021C190.002,179.881,216.917,152.955,250,152.955 M250,142.953c-38.66,0-70,31.351-70,70.023
			S211.34,283,250,283c38.66,0,70-31.35,70-70.023S288.66,142.953,250,142.953z"/>
		<path class="st41" d="M70,152.955c33.083,0,59.998,26.925,59.998,60.021c0,33.096-26.915,60.021-59.998,60.021
			c-33.083,0-59.999-26.926-59.999-60.021C10.002,179.881,36.917,152.955,70,152.955 M70,142.953c-38.66,0-70,31.351-70,70.023
			S31.34,283,70,283c38.66,0,70-31.35,70-70.023S108.66,142.953,70,142.953z"/>
		<path class="st41" d="M160,10.002c33.083,0,59.998,26.925,59.998,60.021c0,33.096-26.915,60.021-59.998,60.021
			c-33.083,0-59.999-26.926-59.999-60.021C100.002,36.927,126.917,10.002,160,10.002 M160,0C121.34,0,90,31.35,90,70.023
			c0,38.672,31.34,70.023,70,70.023c38.66,0,70-31.351,70-70.023C230,31.35,198.66,0,160,0z"/>
	</g>
	<path class="st42" d="M161.34,52.587c0,1.089-1.693-1.314-2.045,0.516c-0.246,1.279-5.979,1.915-5.979,0.826
		c0-0.544,0.959-1.478,1.614-2.063c0.656-0.586-0.712-2.293,0.659-2.686C158.295,48.407,161.34,51.499,161.34,52.587z"/>
</g>
</svg>
